<svg width="79" height="26" viewBox="0 0 79 26" fill="none" xmlns="http://www.w3.org/2000/svg">
<g clip-path="url(#clip0_123_429)">
<path d="M19.4709 9.50343C18.9718 9.50343 18.5317 9.16791 18.4036 8.68441C18.2726 8.18918 18.5037 7.66905 18.9601 7.43023C19.1235 7.34525 19.6181 7.07127 20.2438 6.72549C27.8901 2.49411 31.1318 0.885366 32.1991 0.787201C32.5215 0.757897 34.9506 0.571822 35.9943 0.535193C36.2946 0.523472 36.5846 0.636289 36.7996 0.842877C37.0145 1.04946 37.1367 1.33517 37.1367 1.63406V8.01629C37.1367 8.61408 36.6553 9.10344 36.0547 9.11516C35.9369 9.11809 24.2039 9.34812 19.5062 9.50343C19.4945 9.50343 19.4812 9.50343 19.4694 9.50343H19.4709ZM32.4126 2.97468C31.7177 3.09336 28.8868 4.50724 23.983 7.18115C28.0138 7.08152 32.8204 6.98189 34.93 6.9394V2.793C33.8774 2.85893 32.6422 2.95417 32.4126 2.97468Z" fill="#434341"/>
<path d="M36.0338 21.7331C35.4243 21.7331 34.9297 21.2408 34.9297 20.6342V8.40453C34.9297 7.79796 35.4243 7.30566 36.0338 7.30566C36.6433 7.30566 37.1379 7.79796 37.1379 8.40453V20.6342C37.1379 21.2408 36.6433 21.7331 36.0338 21.7331Z" fill="#434341"/>
<path d="M19.4713 15.5443C18.8618 15.5443 18.3672 15.052 18.3672 14.4454V8.40307C18.3672 7.79649 18.8618 7.3042 19.4713 7.3042C20.0808 7.3042 20.5754 7.79649 20.5754 8.40307V14.4454C20.5754 15.052 20.0808 15.5443 19.4713 15.5443Z" fill="#434341"/>
<path d="M13.7372 25.5C10.6045 25.5 8.05469 22.9623 8.05469 19.8445C8.05469 16.7266 10.6045 14.189 13.7372 14.189C16.8699 14.189 19.4197 16.7266 19.4197 19.8445C19.4197 22.9623 16.8699 25.5 13.7372 25.5ZM13.7372 16.3867C11.8219 16.3867 10.2629 17.9383 10.2629 19.8445C10.2629 21.7506 11.8219 23.3022 13.7372 23.3022C15.6525 23.3022 17.2115 21.7506 17.2115 19.8445C17.2115 17.9383 15.6525 16.3867 13.7372 16.3867Z" fill="#434341"/>
<path d="M66.6981 25.5C63.5654 25.5 61.0156 22.9623 61.0156 19.8445C61.0156 16.7266 63.5654 14.189 66.6981 14.189C69.8309 14.189 72.3806 16.7266 72.3806 19.8445C72.3806 22.9623 69.8309 25.5 66.6981 25.5ZM66.6981 16.3867C64.7829 16.3867 63.2239 17.9383 63.2239 19.8445C63.2239 21.7506 64.7829 23.3022 66.6981 23.3022C68.6134 23.3022 70.1724 21.7506 70.1724 19.8445C70.1724 17.9383 68.6134 16.3867 66.6981 16.3867Z" fill="#434341"/>
<path d="M77.8959 21.733H75.5964C74.9869 21.733 74.4923 21.2407 74.4923 20.6341C74.4923 20.0275 74.9869 19.5353 75.5964 19.5353H76.7918V2.73868C70.3909 2.72549 38.2774 2.65956 36.2856 2.73282C35.283 2.76798 32.7421 2.94673 32.4123 2.97603C31.5997 3.11522 27.8678 5.02433 21.3182 8.64766C20.6278 9.03007 20.1714 9.28208 19.983 9.38024C19.9697 9.38757 19.955 9.39489 19.9417 9.40075C19.7312 9.50771 19.6164 9.52383 17.3567 9.811C14.0266 10.2344 7.10018 11.115 5.10836 11.893C4.13527 12.2739 3.58616 12.6549 3.21518 13.2043C2.67195 14.0116 2.36722 14.9962 2.23031 16.3954C2.22884 16.4115 2.22736 16.4277 2.22442 16.4438C2.21264 16.5244 2.20675 16.6225 2.20675 16.7368V16.769C2.21411 17.6525 2.8015 18.451 3.66713 18.7485C4.37081 18.9902 4.95526 19.166 5.27177 19.2334C5.86799 19.3609 6.24781 19.944 6.1212 20.5374C5.99312 21.1308 5.40721 21.5088 4.81099 21.3828C4.29132 21.2729 3.51108 21.0195 2.94872 20.8261C1.1998 20.2239 0.0147215 18.5976 0 16.7764V16.7353C0 16.5244 0.0117772 16.3353 0.0353316 16.1581C0.154576 14.964 0.416618 13.4138 1.38088 11.9794C2.18467 10.7868 3.36386 10.2125 4.30162 9.84616C6.37441 9.03593 11.9833 8.27698 17.0769 7.62938C17.9485 7.51803 18.7787 7.41253 19.0864 7.36418C19.3146 7.24111 19.7371 7.00669 20.245 6.72538C27.8928 2.494 31.133 0.885253 32.2003 0.787088C32.4933 0.760715 35.1343 0.573175 36.2075 0.53508C38.4496 0.453032 76.2898 0.539476 77.8988 0.542406C78.5068 0.542406 79 1.0347 79 1.64128V20.6327C79 21.2392 78.5054 21.7315 77.8959 21.7315V21.733ZM18.9613 7.42865C18.9613 7.42865 18.9613 7.42865 18.9598 7.42865C18.9598 7.42865 18.9598 7.42865 18.9613 7.42865Z" fill="#434341"/>
<path d="M57.9806 21.7331H22.2604C21.6509 21.7331 21.1562 21.2408 21.1562 20.6342C21.1562 20.0276 21.6509 19.5353 22.2604 19.5353H57.9806C58.5901 19.5353 59.0847 20.0276 59.0847 20.6342C59.0847 21.2408 58.5901 21.7331 57.9806 21.7331Z" fill="#434341"/>
<path d="M77.8971 9.11512H58.5104C57.9009 9.11512 57.4062 8.62283 57.4062 8.01625V1.64135C57.4062 1.03477 57.9009 0.54248 58.5104 0.54248C59.1198 0.54248 59.6145 1.03477 59.6145 1.64135V6.91738H77.8971C78.5066 6.91738 79.0012 7.40968 79.0012 8.01625C79.0012 8.62283 78.5066 9.11512 77.8971 9.11512Z" fill="#434341"/>
<path d="M47.2682 17.4753C46.6587 17.4753 46.1641 16.983 46.1641 16.3765V5.83611C46.1641 5.22954 46.6587 4.73724 47.2682 4.73724C47.8776 4.73724 48.3723 5.22954 48.3723 5.83611V16.3765C48.3723 16.983 47.8776 17.4753 47.2682 17.4753Z" fill="#434341"/>
<path d="M50.5527 10.2023H43.9869C43.3775 10.2023 42.8828 9.71002 42.8828 9.10345C42.8828 8.49687 43.3775 8.00458 43.9869 8.00458H50.5527C51.1622 8.00458 51.6568 8.49687 51.6568 9.10345C51.6568 9.71002 51.1622 10.2023 50.5527 10.2023Z" fill="#434341"/>
</g>
<defs>
<clipPath id="clip0_123_429">
<rect width="79" height="25" fill="white" transform="translate(0 0.5)"/>
</clipPath>
</defs>
</svg>
