<svg width="37" height="40" viewBox="0 0 37 40" fill="none" xmlns="http://www.w3.org/2000/svg">
<g clip-path="url(#clip0_123_445)">
<path d="M11.7868 38.7544H4.9496C4.61648 38.7544 4.33095 38.5141 4.2733 38.1857L0.0104735 13.8608C-0.0105752 13.7425 0.000406739 13.6205 0.0406739 13.5076L4.30441 1.6988C4.40234 1.42637 4.66041 1.24475 4.9496 1.24475H17.1167C17.4956 1.24475 17.8031 1.55295 17.8031 1.9327C17.8031 2.31245 17.4956 2.62065 17.1167 2.62065H5.43098L1.3942 13.8039L5.52524 37.3785H11.7868C12.1657 37.3785 12.4731 37.6867 12.4731 38.0664C12.4731 38.4462 12.1657 38.7544 11.7868 38.7544Z" fill="#434341"/>
<path d="M9.46007 35.5504H7.3552C7.01567 35.5504 6.72739 35.3018 6.67706 34.9651L3.4804 13.8452C3.46301 13.7296 3.47491 13.6113 3.51609 13.5021L6.71275 4.89727C6.8125 4.6276 7.06966 4.44965 7.35611 4.44965H14.7625C15.1414 4.44965 15.4489 4.75785 15.4489 5.13759C15.4489 5.51734 15.1414 5.82554 14.7625 5.82554H7.83291L4.86412 13.8149L7.94547 34.1735H9.46007C9.83894 34.1735 10.1464 34.4817 10.1464 34.8615C10.1464 35.2412 9.83894 35.5494 9.46007 35.5494V35.5504Z" fill="#434341"/>
<path d="M26.2231 40C26.1673 40 26.1105 39.9936 26.0547 39.9789L11.8852 36.3832C11.5622 36.3016 11.3444 35.9989 11.3691 35.665L13.1921 11.0356C13.2012 10.9154 13.2406 10.8008 13.3083 10.7008L20.3322 0.302689C20.4942 0.0623664 20.7889 -0.0495397 21.0689 0.0210896L35.2383 3.61676C35.5184 3.68739 35.7243 3.92679 35.7527 4.21573L36.9936 16.7116C37.0055 16.8308 36.9863 16.9519 36.9369 17.0611L26.8491 39.5927C26.7365 39.8441 26.4885 39.9991 26.2231 39.9991V40ZM12.7812 35.1908L25.8332 38.5021L35.6108 16.6639L34.4358 4.8303L21.1988 1.47312L14.5475 11.3209L12.7803 35.1908H12.7812Z" fill="#434341"/>
<path d="M23.9453 19.1901C23.8895 19.1901 23.8328 19.1836 23.776 19.169C23.4081 19.0754 23.1858 18.7012 23.2791 18.3333L25.06 11.2833C25.1533 10.9145 25.5258 10.6916 25.8937 10.7852C26.2616 10.8787 26.484 11.253 26.3906 11.6208L24.6097 18.6709C24.531 18.9828 24.2519 19.1901 23.9453 19.1901Z" fill="#434341"/>
<path d="M27.353 14.878C27.2971 14.878 27.2404 14.8716 27.1837 14.8569L22.8229 13.7507C22.455 13.6572 22.2326 13.2829 22.326 12.9151C22.4193 12.5464 22.7918 12.3235 23.1597 12.417L27.5204 13.5232C27.8883 13.6168 28.1107 13.991 28.0174 14.3589C27.9387 14.6707 27.6595 14.878 27.353 14.878Z" fill="#434341"/>
</g>
<defs>
<clipPath id="clip0_123_445">
<rect width="37" height="40" fill="white"/>
</clipPath>
</defs>
</svg>
