<svg width="38" height="50" viewBox="0 0 38 50" fill="none" xmlns="http://www.w3.org/2000/svg">
<g opacity="0.7" clip-path="url(#clip0_79_578)">
<path d="M37.7687 40.4082C37.7687 40.4082 37.6531 40.3295 37.4336 40.1778C35.8943 39.1072 29.2675 34.4172 22.687 28.4735C24.1022 25.6841 25.2199 23.1323 25.7368 21.183C25.9664 20.3157 26.0921 19.0563 26.095 17.5693C26.0935 14.8157 25.6545 11.2878 24.5715 8.13631C24.0285 6.55914 23.3253 5.07786 22.4314 3.83558C21.7469 2.88241 20.9469 2.07093 20.0213 1.46697C19.77 1.29093 19.5101 1.13064 19.2429 0.988951C17.8899 0.274788 16.3808 0 15.0032 0C13.4393 0 11.7671 0.367815 10.3981 1.22796L10.3245 1.2437C8.32014 2.25842 6.77934 3.35184 5.62121 4.49679L5.59811 4.50681L5.57789 4.5383C5.1028 5.01345 4.69124 5.49719 4.34178 5.98523C3.13744 7.67403 2.65224 9.44155 2.65224 11.1876C2.65369 14.0986 3.9851 16.9453 5.53312 19.3597C6.30714 20.5676 7.13602 21.6696 7.88548 22.6156C8.6335 23.5631 9.30065 24.3545 9.74542 24.9399C11.1043 26.7217 12.131 28.0699 13.1101 29.3251C11.1981 31.7552 9.22701 34.0251 7.4205 36.0001C5.41471 38.1913 3.60965 40.0203 2.30856 41.3012C1.65585 41.9395 1.13166 42.4448 0.767759 42.7868C0.587252 42.9585 0.445735 43.0902 0.350428 43.179C0.255121 43.2663 0.206023 43.3135 0.206023 43.3135L0.169922 43.5038L0.341764 43.5954L1.69628 43.4008C1.61253 43.4952 1.56487 43.5468 1.56487 43.5468H1.56199L1.5822 43.7801L1.8147 43.76C1.8147 43.76 1.94899 43.6026 2.18004 43.3321L2.36921 43.3035H2.36777L2.36632 43.3063L2.37643 43.5368L2.60892 43.5267C2.60892 43.5267 2.70712 43.4208 2.88474 43.2305L3.12012 43.1976L3.14033 43.4151L3.37283 43.4008C3.37283 43.4008 3.46091 43.302 3.61687 43.1246L3.68907 43.1131L3.7194 43.3292L3.95189 43.3078C3.95189 43.3078 4.02987 43.2133 4.1685 43.0459L4.57716 42.9872C4.46164 43.1131 4.3981 43.1833 4.3981 43.1833L4.39521 43.1861L4.39232 43.189L4.4111 43.4194L4.64359 43.3994C4.64359 43.3994 4.79666 43.2205 5.05803 42.917L5.66742 42.8297L5.72085 43.0044L5.95334 42.98C5.95334 42.98 6.01833 42.9027 6.12952 42.7625L7.05515 42.6294L7.03205 42.6594L7.02772 42.6652L7.02338 42.6709L7.06382 42.8984L7.29342 42.8569L7.35263 42.7725L8.26094 45.8295C8.15552 46.0041 8.09631 46.1029 8.09631 46.1029L8.09343 46.1057L8.15696 46.3276L8.38079 46.266H8.38224L8.38801 46.256L8.46888 46.5322C8.37213 46.6839 8.31725 46.7698 8.31725 46.7698H8.31437L8.31292 46.7741L8.36779 46.9988L8.59162 46.9473L8.66238 47.1849C8.57863 47.3222 8.53386 47.3981 8.53386 47.3981L8.53097 47.401L8.59307 47.6242L8.78513 47.5999L8.81834 47.713L8.80245 47.7387L8.79957 47.7416L8.8039 47.9205L8.86599 48.1266L8.94686 48.148L8.98007 48.2611L8.97285 48.2668V48.2711L8.96996 48.274L9.02773 48.4972L9.05227 48.5044L9.11726 48.7234L9.15769 48.8579L9.22123 49.0726L9.25733 49.1942L9.46094 49.8826L9.59524 49.9971L9.75697 49.927C9.75697 49.927 13.188 44.8563 16.8992 38.7294C17.448 37.8234 18.0025 36.8917 18.5556 35.9529C19.6155 37.1923 20.8646 38.6421 22.3953 40.4082C22.8848 40.995 23.3599 41.566 23.8134 42.1156C24.404 42.834 24.9816 43.4967 25.5072 44.1164C26.0372 44.7318 26.508 45.3071 26.9498 45.798C27.3874 46.2918 27.7715 46.7226 28.0849 47.0789C28.7145 47.7874 29.074 48.1938 29.074 48.1938L29.2141 48.2454L29.3441 48.3956L29.5159 48.4443L29.6329 48.3098L30.6379 40.7831L33.5015 40.7502H33.5289L37.6719 40.703L37.8279 40.5871L37.7643 40.4053L37.7687 40.4082ZM22.4328 28.2445C22.3433 28.1629 22.2538 28.0828 22.1643 27.9998L22.1671 27.994C22.3318 27.7364 22.4978 27.4788 22.6581 27.2255C22.8285 26.9636 22.9859 26.7031 23.1448 26.4512C23.3007 26.2022 23.4538 25.9589 23.5866 25.7242C23.7022 25.5267 23.809 25.3363 23.9072 25.1589C23.4726 26.1349 22.9758 27.1725 22.4328 28.2445ZM23.1318 6.82391L23.2213 6.97991L23.2848 7.0944C23.3152 7.2275 23.3455 7.3649 23.3801 7.50372C23.435 7.79711 23.5 8.0991 23.5448 8.41109C23.5968 8.72166 23.6343 9.03939 23.6718 9.35711C23.7094 9.67483 23.7282 9.99399 23.7542 10.3089C23.7671 10.6223 23.7874 10.9314 23.7888 11.232C23.7859 11.5311 23.8004 11.8216 23.7845 12.0978C23.7715 12.3726 23.7715 12.6345 23.7513 12.8721C23.7339 13.1125 23.7166 13.3315 23.7007 13.5276C23.6834 13.7208 23.6588 13.8911 23.643 14.0314C23.6083 14.3105 23.5881 14.4679 23.5881 14.4679C23.5881 14.4679 23.6141 14.309 23.656 14.0328C23.6762 13.8925 23.7065 13.7251 23.731 13.5305C23.7527 13.3358 23.7773 13.1154 23.8032 12.8764C23.8307 12.636 23.8408 12.3755 23.861 12.1007C23.8856 11.8245 23.8812 11.5354 23.8928 11.232C23.9014 10.9314 23.8899 10.618 23.8899 10.3017C23.8726 9.98254 23.8625 9.66195 23.835 9.34137C23.8076 9.01935 23.7816 8.69733 23.7383 8.3839C23.7282 8.29517 23.7152 8.20787 23.7022 8.1177C23.7296 8.20214 23.757 8.28658 23.7859 8.37531C23.822 8.4984 23.8581 8.6272 23.8942 8.75887C23.9188 8.84331 23.939 8.93205 23.9606 9.01935C24.0083 9.26122 24.0574 9.50882 24.0949 9.765L24.1238 9.95964L24.1325 10.0384C24.17 10.3546 24.1888 10.6738 24.2148 10.9887C24.2264 11.3021 24.248 11.6127 24.248 11.9118C24.248 12.2123 24.2596 12.5014 24.2451 12.7776C24.2321 13.0539 24.2321 13.3143 24.2119 13.5519C24.1946 13.7924 24.1758 14.0113 24.1614 14.2074C24.144 14.402 24.1166 14.5709 24.1022 14.7112C24.0675 14.9888 24.0473 15.1491 24.0473 15.1491C24.0473 15.1491 24.0704 14.9903 24.1152 14.7126C24.1354 14.5738 24.1657 14.4078 24.1903 14.2117C24.2119 14.0185 24.2365 13.7981 24.2625 13.5576C24.2913 13.3186 24.3 13.0567 24.3202 12.7819L24.3347 12.5386V12.5859C24.3347 12.885 24.3477 13.177 24.3347 13.4503C24.3217 13.7251 24.3202 13.987 24.3014 14.2246C24.2841 14.465 24.2653 14.6869 24.2495 14.8801C24.2321 15.0747 24.2076 15.2436 24.1903 15.3838C24.157 15.6615 24.1368 15.8218 24.1368 15.8218C24.1368 15.8218 24.1614 15.6629 24.2047 15.3853C24.2249 15.2479 24.2567 15.079 24.2798 14.8844C24.3014 14.6897 24.326 14.4707 24.352 14.2303C24.3809 13.9899 24.3895 13.728 24.4112 13.4546C24.4343 13.1784 24.4314 12.8864 24.443 12.5859C24.4487 12.4041 24.4459 12.2195 24.443 12.032C24.4531 12.1565 24.4603 12.2796 24.4733 12.4012C24.4834 12.7175 24.5065 13.0267 24.5065 13.3258C24.5036 13.6263 24.5181 13.9169 24.5022 14.1917C24.4906 14.4665 24.4877 14.7284 24.469 14.9674C24.4502 15.2064 24.4329 15.4268 24.417 15.6229C24.3996 15.8146 24.3736 15.9849 24.3592 16.1223C24.3231 16.4029 24.3043 16.5617 24.3043 16.5617C24.3043 16.5617 24.3303 16.4043 24.3736 16.1266C24.3939 15.9864 24.4242 15.8189 24.4487 15.6257C24.469 15.4311 24.4949 15.2121 24.5195 14.9717C24.5469 14.7327 24.5585 14.4707 24.5787 14.196C24.6033 13.9212 24.5989 13.6278 24.609 13.3272C24.6177 13.0252 24.6061 12.7132 24.6061 12.397C24.5888 12.0792 24.5801 11.7572 24.5527 11.4366C24.5267 11.1146 24.4993 10.7955 24.456 10.4792C24.4227 10.1629 24.3664 9.85516 24.3188 9.55748C24.2913 9.4072 24.2596 9.26265 24.2321 9.1181C24.2119 9.01362 24.1888 8.91344 24.1643 8.81469C24.144 8.66871 24.1224 8.52416 24.0993 8.38104C24.1744 8.64295 24.2437 8.91344 24.3159 9.19539C24.4011 9.54173 24.4791 9.90239 24.5585 10.2702C24.6264 10.638 24.7058 11.0101 24.7607 11.388C24.791 11.5755 24.8199 11.7658 24.8502 11.9519C24.8733 12.1408 24.8964 12.3283 24.9209 12.5143C24.9729 12.8864 24.9931 13.2542 25.0292 13.6106C25.0581 13.967 25.0653 14.3133 25.0827 14.6411C25.0899 14.9674 25.0856 15.2765 25.087 15.5613C25.0812 15.849 25.0596 16.1095 25.0509 16.3413C25.0437 16.5732 25.0148 16.7778 24.996 16.9424C24.957 17.2744 24.9368 17.4648 24.9368 17.4648C24.9368 17.4648 24.9643 17.2759 25.009 16.9453C25.0321 16.7778 25.0668 16.5789 25.0812 16.3442C25.0986 16.1123 25.126 15.8504 25.1404 15.5642C25.1462 15.2779 25.1592 14.9659 25.1607 14.6368C25.152 14.309 25.1549 13.9627 25.1347 13.6049C25.1087 13.2442 25.0986 12.8735 25.0552 12.5C25.0379 12.3125 25.0191 12.1222 24.9989 11.9347C24.9744 11.7443 24.9498 11.554 24.9253 11.3651C24.8791 10.9844 24.8098 10.6065 24.7505 10.2344C24.6841 9.86375 24.6119 9.4988 24.5354 9.14529L24.5036 9.00218C24.6682 9.53744 24.817 10.0827 24.9455 10.6294C25.5202 13.0539 25.7657 15.5341 25.7657 17.5736C25.7657 19.0405 25.6372 20.2842 25.4191 21.1057C25.178 22.016 24.7982 23.0708 24.3159 24.2257C24.1729 24.4275 23.9996 24.678 23.8047 24.9657C23.6718 25.1617 23.5289 25.3735 23.3801 25.6011C23.2328 25.8272 23.0639 26.0591 22.9022 26.3038L22.7448 26.5385C22.8993 26.2437 23.0538 25.9503 23.2069 25.6612C23.3975 25.3163 23.552 24.9556 23.7123 24.6136L23.8177 24.3817C24.2769 23.5488 24.5426 23.0679 24.5426 23.0679C24.5426 23.0679 24.3101 23.4829 23.9 24.2071L23.9448 24.1098C24.0199 23.9452 24.0921 23.7821 24.1527 23.6203C24.2769 23.2969 24.3939 22.992 24.5022 22.7072C24.5542 22.567 24.609 22.431 24.6524 22.3008C24.6913 22.1705 24.7289 22.046 24.7635 21.9287C24.8314 21.694 24.8921 21.4907 24.9426 21.3218C25.0422 20.9841 25.0942 20.7923 25.0942 20.7923C25.0942 20.7923 25.0148 20.9755 24.882 21.3004C24.817 21.4635 24.7375 21.6625 24.648 21.8886C24.6018 22.0017 24.5527 22.1233 24.5036 22.2493C24.4473 22.3738 24.3866 22.5054 24.326 22.6414C24.2018 22.9133 24.069 23.2082 23.9274 23.5216C23.861 23.6804 23.783 23.8364 23.6993 23.9967C23.6184 24.1585 23.5361 24.3245 23.4509 24.4905C23.2834 24.8254 23.1159 25.1746 22.9253 25.5181C22.739 25.8616 22.5498 26.2136 22.3606 26.5629L21.744 27.6119C21.6574 27.5332 21.5707 27.4531 21.4841 27.3715C21.9549 26.5271 22.2336 26.0305 22.2336 26.0305C22.2336 26.0305 21.9505 26.5228 21.4697 27.3586L21.4552 27.3457C21.3729 27.2727 21.292 27.194 21.2112 27.1167C21.305 26.9579 21.4018 26.7976 21.4957 26.6316C21.7166 26.2494 21.9419 25.8616 22.1657 25.4737C22.378 25.0773 22.5917 24.6823 22.8025 24.293C23.0177 23.908 23.1996 23.513 23.3874 23.1366L23.4422 23.0235C23.5116 22.9019 23.578 22.7859 23.6386 22.6772C24.0487 21.9516 24.2812 21.538 24.2812 21.538C24.2812 21.538 24.043 21.9487 23.6256 22.67L23.5592 22.7845C23.6834 22.5326 23.8047 22.285 23.9072 22.0389C24.0588 21.6839 24.2032 21.349 24.3375 21.0385C24.4011 20.8825 24.469 20.7351 24.5238 20.5919C24.5758 20.4488 24.6249 20.3129 24.6711 20.184C24.7635 19.925 24.8444 19.7017 24.9108 19.5185C25.0422 19.1479 25.1144 18.9375 25.1144 18.9375C25.113 18.9375 25.0163 19.1379 24.8502 19.4942C24.7693 19.6717 24.6726 19.8892 24.557 20.1383C24.5007 20.2613 24.4415 20.3944 24.3765 20.5347C24.3087 20.6707 24.2379 20.8152 24.1628 20.9655C24.0155 21.266 23.8552 21.5909 23.6848 21.9373C23.604 22.109 23.513 22.2836 23.4162 22.4611C23.3224 22.64 23.2256 22.8217 23.1274 23.0078C22.9339 23.3785 22.7361 23.762 22.5209 24.147C22.3087 24.532 22.0935 24.9227 21.8769 25.3149C21.5751 25.8487 21.2704 26.3797 20.9758 26.8963L20.7332 26.6673L20.7448 26.6473C20.8473 26.477 20.944 26.3181 21.0321 26.1693C21.3874 25.5796 21.6227 25.1861 21.6227 25.1861C21.6227 25.1861 21.37 25.5682 20.9888 26.1421C20.8935 26.2838 20.7895 26.4412 20.6812 26.6029L20.6769 26.6115L20.6682 26.6029L20.7707 26.4541C20.9383 26.1922 21.1043 25.9331 21.2689 25.677C21.4336 25.4193 21.5895 25.166 21.744 24.9184C21.8971 24.6708 22.0473 24.4332 22.1758 24.2043C22.3101 23.9753 22.4328 23.7549 22.5455 23.5516C22.9975 22.7444 23.2733 22.1891 23.2733 22.1891C23.2733 22.1891 22.9036 22.6858 22.3837 23.4543C22.2523 23.6461 22.1108 23.855 21.9664 24.0769C21.822 24.3001 21.6559 24.5248 21.4971 24.7667C21.3397 24.9986 21.1765 25.239 21.0148 25.4852C21.126 25.292 21.2357 25.0988 21.3383 24.9041C21.5289 24.5606 21.6964 24.2143 21.861 23.8794C21.9404 23.7119 22.0112 23.5402 22.0863 23.377C22.1599 23.2139 22.2321 23.0536 22.2899 22.8919L22.3202 22.8174C22.4415 22.5541 22.5628 22.2979 22.661 22.046C22.7881 21.7312 22.9065 21.4349 23.0162 21.1616C23.0697 21.0242 23.1245 20.8954 23.1708 20.768C23.2141 20.6406 23.2531 20.5204 23.2906 20.4059C23.3657 20.1812 23.4321 19.9823 23.487 19.8205C23.5939 19.4928 23.6516 19.3067 23.6516 19.3067C23.6516 19.3067 23.5679 19.4842 23.4278 19.7976C23.3585 19.9536 23.2733 20.1454 23.178 20.3629C23.1303 20.4732 23.0783 20.5876 23.0235 20.7107L22.9585 20.8496C22.9787 20.7622 22.996 20.6778 23.0119 20.6034C23.0841 20.2642 23.126 20.071 23.126 20.071C23.126 20.071 23.0812 20.2642 22.9989 20.6005C22.9787 20.685 22.9585 20.7794 22.9282 20.8796L22.9022 20.9669L22.843 21.0929C22.7188 21.3576 22.583 21.6439 22.4386 21.9487C22.3014 22.2535 22.1267 22.5627 21.9664 22.8933C21.8032 23.2196 21.6357 23.5588 21.4509 23.8966C21.2704 24.2372 21.087 24.5821 20.9022 24.927C20.7115 25.2676 20.5209 25.6097 20.3332 25.946L20.2076 26.1664L19.9808 25.9474C20.2379 25.5424 20.4819 25.1531 20.7101 24.791C20.9845 24.3531 21.2401 23.9524 21.4509 23.5874C21.6617 23.2253 21.848 22.9105 21.9996 22.65C22.3014 22.1276 22.4733 21.8285 22.4733 21.8285C22.4733 21.8285 22.2812 22.1147 21.9448 22.6156C21.7787 22.869 21.5765 23.1752 21.3455 23.5259C21.1144 23.8765 20.8386 24.2615 20.5498 24.6909C20.3173 25.0329 20.0675 25.3979 19.8076 25.7814L19.7686 25.7456C20.0675 25.2261 20.3447 24.7138 20.6061 24.2243C20.918 23.6346 21.2097 23.0779 21.4624 22.5541C21.7224 22.0346 21.939 21.5451 22.1253 21.1129C22.3087 20.6764 22.4603 20.2943 22.5686 19.9737C22.6379 19.7819 22.6856 19.6159 22.726 19.4727C22.7765 19.3225 22.8213 19.1851 22.8574 19.0677C22.9657 18.7343 23.022 18.5439 23.022 18.5439C23.022 18.5439 22.9397 18.7257 22.7996 19.0477C22.7303 19.2065 22.6466 19.4012 22.5498 19.6245C22.5022 19.7375 22.4502 19.8549 22.3967 19.9808C22.3361 20.101 22.2726 20.2298 22.2047 20.3629C22.0733 20.632 21.9318 20.9197 21.7801 21.2245C21.7079 21.3791 21.6242 21.5337 21.5346 21.6882C21.4494 21.8457 21.3599 22.006 21.2704 22.1691C21.0928 22.4969 20.9123 22.836 20.7058 23.1709C20.5079 23.5058 20.3058 23.8508 20.1036 24.1928C19.8595 24.5864 19.6184 24.98 19.3787 25.3664L19.253 25.2419L19.3382 25.1073C19.4336 24.9456 19.526 24.791 19.6112 24.6494C19.9505 24.084 20.1758 23.7062 20.1758 23.7062C20.1758 23.7062 19.9317 24.0712 19.5678 24.6222C19.4754 24.7596 19.3772 24.9084 19.2718 25.0673L19.1924 25.1818L18.9873 24.98C19.2227 24.5721 19.4494 24.1713 19.6545 23.7778C19.8263 23.4586 19.9982 23.148 20.1556 22.8475C20.3072 22.5412 20.4545 22.2464 20.596 21.963C20.7346 21.6768 20.8819 21.412 20.9931 21.1458C21.1101 20.8825 21.2213 20.632 21.3253 20.3973C21.4292 20.1612 21.526 19.9422 21.617 19.7375C21.6978 19.53 21.7715 19.3411 21.8393 19.1693C22.1036 18.4824 22.2538 18.0888 22.2538 18.0888C22.2538 18.0888 22.0819 18.4723 21.7816 19.1464C21.7065 19.3139 21.6227 19.4999 21.5346 19.7032C21.435 19.9021 21.3281 20.1182 21.2155 20.3472C21.1318 20.5175 21.0422 20.6978 20.9513 20.8825C21.0119 20.7265 21.0697 20.5762 21.1188 20.4302C21.1679 20.2943 21.2155 20.164 21.2603 20.0409C21.2993 19.9164 21.3383 19.7962 21.3729 19.686C21.4451 19.4613 21.5058 19.2667 21.5462 19.1035C21.6343 18.7801 21.6834 18.5926 21.6834 18.5926C21.6834 18.5926 21.6285 18.7772 21.5318 19.0992C21.4884 19.2609 21.422 19.4556 21.344 19.6745C21.305 19.7847 21.2646 19.9035 21.2213 20.0266C21.1736 20.1497 21.1231 20.2785 21.0711 20.4116C20.97 20.6807 20.8458 20.9683 20.7115 21.2675C20.5975 21.5322 20.4617 21.8027 20.3274 22.0804C20.2119 22.2965 20.0935 22.5183 19.9707 22.7473C19.8061 23.045 19.6285 23.3498 19.448 23.6633C19.3411 23.855 19.2271 24.0497 19.1115 24.2443C19.0003 24.4189 18.8891 24.595 18.7765 24.771L18.5859 24.5778C18.6581 24.4733 18.7274 24.3717 18.791 24.2787C19.1635 23.6847 19.3787 23.3455 19.3787 23.3455C19.3787 23.3455 19.1606 23.6819 18.7808 24.2701C18.7159 24.3617 18.6465 24.4619 18.5729 24.5635C18.4314 24.4232 18.2913 24.2801 18.1512 24.137C18.2364 23.9996 18.3202 23.8608 18.3967 23.7248C18.5989 23.3813 18.7909 23.0522 18.9671 22.7287C19.0552 22.5684 19.1419 22.4095 19.2271 22.2564C19.3065 22.099 19.3845 21.9458 19.461 21.797C19.5375 21.6467 19.6126 21.5022 19.6819 21.3605C19.7484 21.2174 19.8133 21.0757 19.8783 20.9412C19.9419 20.8052 20.0025 20.6749 20.0617 20.5476C20.1151 20.4188 20.1657 20.2943 20.2148 20.1755C20.313 19.935 20.4083 19.7175 20.4747 19.5157C20.5469 19.3139 20.6119 19.1336 20.6668 18.9761C20.7144 18.8158 20.7534 18.6813 20.7852 18.5711C20.8502 18.3507 20.8834 18.2333 20.8834 18.2333C20.8834 18.2333 20.8473 18.3507 20.7809 18.5697C20.7476 18.6799 20.7086 18.8158 20.6595 18.9733C20.6032 19.1307 20.5368 19.3096 20.4617 19.51C20.3938 19.7132 20.2971 19.9293 20.1931 20.1669C20.144 20.2871 20.0906 20.4087 20.0357 20.5376C19.9765 20.6635 19.9144 20.7952 19.8494 20.9283C19.7845 21.0642 19.718 21.2016 19.6487 21.3447C19.578 21.4864 19.5014 21.6296 19.4249 21.777C19.3469 21.9258 19.2675 22.0775 19.1852 22.2349C19.0985 22.3867 19.0119 22.5441 18.9195 22.7029C18.7447 23.025 18.5483 23.3541 18.3419 23.6933C18.2639 23.825 18.1816 23.9581 18.1007 24.0898C17.9462 23.9309 17.7917 23.7735 17.6386 23.6132C18.3837 22.4711 19.087 21.3147 19.7267 20.1569C21.5679 16.8293 22.8834 13.5061 23.2256 10.4548L23.23 10.4391V10.4076C23.2848 9.91384 23.3152 9.42867 23.3152 8.94922C23.3152 8.40251 23.2762 7.86867 23.1996 7.34486C23.1794 7.16882 23.1549 6.99565 23.1274 6.82677L23.1318 6.82391ZM11.162 6.38453C11.3267 6.23855 11.4956 6.094 11.6689 5.95374C11.8378 5.86072 11.936 5.81206 11.936 5.81206C11.936 5.81492 11.8667 5.83925 11.744 5.8965C12.2436 5.50578 12.7707 5.16087 13.3108 4.8918C14.0675 4.51683 14.8487 4.29213 15.6112 4.29213C16.2162 4.29213 16.9108 4.56978 17.6227 5.0292C17.9577 5.24387 18.2971 5.50006 18.6335 5.78057C18.3693 5.65319 18.2148 5.59022 18.2148 5.59022C18.2148 5.59022 18.3881 5.67609 18.6769 5.84211L18.7808 5.90079C19.4682 6.48901 20.1426 7.17455 20.7505 7.85007C21.6704 8.87337 22.4401 9.87091 22.8949 10.4663C22.5527 13.4403 21.2603 16.7091 19.4408 19.9966C18.8198 21.1229 18.1354 22.2478 17.409 23.3656C15.4306 21.2975 13.5996 19.1693 12.0877 17.054C10.3606 14.6396 9.05227 12.2467 8.40967 10.0054C8.83278 8.97785 9.8595 7.54666 11.1635 6.38167L11.162 6.38453ZM8.27538 9.51168L8.2696 9.48306C8.3548 9.30988 8.44433 9.13957 8.54397 8.97498C8.78224 8.56566 9.05949 8.18354 9.35408 7.84005C8.90065 8.41968 8.53386 8.99359 8.27682 9.51311L8.27538 9.51168ZM20.9469 7.58101C21.0437 7.67976 21.1433 7.77994 21.2415 7.88728C21.487 8.15062 21.7267 8.44115 21.952 8.74885C21.6458 8.37531 21.3079 7.98031 20.9469 7.58101ZM23.0596 6.25859L23.0668 6.28292L23.0899 6.3602L23.0509 6.37308V6.36879L23.061 6.25859H23.0596ZM23.0206 6.18273L23.0032 6.16699L23.0004 6.14695L23.0191 6.18273H23.0206ZM10.336 1.67592C10.6061 1.55141 10.9584 1.3997 11.3758 1.25372C11.8624 1.07768 12.4357 0.921685 13.0494 0.810053C13.6631 0.696989 14.3202 0.63831 14.9685 0.646897C15.6184 0.64976 16.261 0.717025 16.8501 0.832952C17.4393 0.95174 17.9794 1.10488 18.4299 1.27519C18.8805 1.44264 19.2487 1.60722 19.5 1.73603C19.7541 1.86055 19.8942 1.94355 19.8942 1.94069C19.8942 1.94212 19.7585 1.85196 19.513 1.70884C19.2646 1.57001 18.9079 1.3768 18.4588 1.19504C18.0097 1.01328 17.474 0.830089 16.8761 0.705576C16.2812 0.579631 15.6328 0.506641 14.9743 0.496622C14.3173 0.495191 13.653 0.561026 13.0335 0.681246C12.4126 0.801466 11.8393 0.984658 11.3526 1.17214C11.022 1.29952 10.7346 1.43405 10.4963 1.55427C10.7461 1.39112 11.0061 1.24513 11.2776 1.11633C12.4314 0.569613 13.7527 0.323449 15.0032 0.323449C16.7852 0.323449 18.778 0.800034 20.3173 2.10671C20.8487 2.5561 21.3253 3.1114 21.7253 3.77548C21.5476 3.58656 21.3469 3.38476 21.1115 3.1801C20.6133 2.74073 19.991 2.27988 19.2646 1.90491C18.5426 1.52708 17.7238 1.2208 16.8733 1.03904C16.0198 0.860144 15.1418 0.804328 14.3115 0.857282C13.4812 0.907373 12.7043 1.07768 12.0472 1.28521C11.3873 1.48987 10.853 1.74176 10.4804 1.93067C10.1108 2.12531 9.90138 2.25412 9.90138 2.25269C9.90282 2.25269 10.1137 2.13247 10.492 1.95643C10.866 1.77754 11.409 1.55427 12.0646 1.36535C12.7202 1.17214 13.4913 1.03046 14.3101 0.986089C15.1317 0.940291 15.9996 1.00183 16.8371 1.18502C17.6776 1.3582 18.4877 1.65302 19.2054 2.02084C19.9245 2.38722 20.5556 2.81801 21.0581 3.24594C21.3628 3.50355 21.6256 3.75401 21.8437 3.98013C21.9765 4.22057 22.1007 4.47533 22.2148 4.74582L22.2928 4.94762C21.9765 4.69144 21.692 4.49393 21.4754 4.34652C21.1736 4.14615 20.9931 4.04311 20.9931 4.04025C20.9931 4.04168 21.1664 4.15617 21.4523 4.37514C21.692 4.5569 22.0097 4.81166 22.365 5.13654C22.4314 5.32116 22.4935 5.51294 22.5484 5.71187C22.1744 5.35837 21.783 5.0292 21.3859 4.73867L21.3671 4.72865C21.3455 4.70145 21.2256 4.55834 21.0191 4.33936C20.7866 4.09749 20.4444 3.76259 19.991 3.42483C19.5375 3.08707 18.9801 2.73643 18.3419 2.45592C17.7036 2.17541 16.9873 1.95357 16.2494 1.83192C15.513 1.71456 14.7548 1.69596 14.0415 1.76466C13.3296 1.83049 12.6653 1.99365 12.1021 2.1797C11.5389 2.36575 11.0812 2.58759 10.7635 2.75218C10.4458 2.92106 10.2682 3.03269 10.2682 3.03126C10.2682 3.03126 10.4501 2.92821 10.7736 2.77794C11.0942 2.6248 11.5606 2.43159 12.1194 2.25985C12.6812 2.0881 13.3425 1.955 14.0458 1.89346C14.7476 1.83335 15.4942 1.85768 16.2205 1.98076C16.9483 2.09526 17.6545 2.30421 18.2884 2.57614C18.9209 2.84663 19.4855 3.17008 19.9404 3.49496C20.3967 3.81984 20.7563 4.12898 20.996 4.36083C21.2083 4.56263 21.3325 4.69716 21.3614 4.72578C20.5253 4.11467 19.6516 3.66814 18.8689 3.34612C18.079 3.02267 17.3758 2.84377 16.8776 2.735C16.3779 2.62909 16.0819 2.59331 16.0819 2.58902C16.0819 2.59331 16.3751 2.64197 16.866 2.76792C17.3585 2.89243 18.0473 3.10711 18.8213 3.44344C19.5982 3.77834 20.4502 4.25635 21.2776 4.87177C21.7469 5.21954 22.2047 5.61455 22.6336 6.04963C22.6653 6.17987 22.6928 6.3144 22.7217 6.44894C22.4271 6.14552 22.131 5.87646 21.8552 5.64318C21.3946 5.25676 20.9729 4.97624 20.6754 4.78733C20.3736 4.6027 20.1946 4.50681 20.196 4.50538C20.1931 4.50681 20.3664 4.61558 20.6523 4.81881C20.9411 5.02061 21.3368 5.32831 21.7816 5.72618C22.1022 6.01099 22.4386 6.35305 22.7765 6.73517C22.804 6.88545 22.8271 7.03858 22.8487 7.19745C22.5484 6.85539 22.2711 6.59492 22.0718 6.41316C21.8624 6.22424 21.7383 6.12549 21.7383 6.12549C21.7383 6.12549 21.8538 6.23712 22.0444 6.44035C22.2408 6.64215 22.505 6.94126 22.8054 7.3148L22.8704 7.39638C22.8863 7.53664 22.9022 7.67689 22.9137 7.82288C22.4155 7.17741 21.8509 6.59635 21.2632 6.10545C20.5801 5.53011 19.861 5.09217 19.2155 4.76443C18.57 4.43668 17.9924 4.23632 17.5823 4.10465C17.1693 3.9787 16.9267 3.92432 16.9267 3.92432C16.9252 3.92432 17.1649 3.99302 17.5664 4.139C17.9693 4.28498 18.531 4.51969 19.1606 4.86032C19.7931 5.19808 20.4848 5.66178 21.1534 6.23283C21.7975 6.77954 22.4112 7.44218 22.9368 8.17495C22.944 8.29946 22.9498 8.42827 22.9527 8.55851C22.7347 8.25223 22.5137 7.97601 22.3087 7.73844C22.0097 7.39495 21.731 7.13591 21.5375 6.95844C21.3397 6.77954 21.2213 6.68794 21.2227 6.68651C21.2227 6.68794 21.3296 6.79099 21.5101 6.9842C21.6949 7.17312 21.9433 7.45649 22.2249 7.80856C22.4632 8.10482 22.713 8.46119 22.9599 8.85333V8.96067C22.9599 9.05513 22.957 9.15245 22.9556 9.24691L22.9224 9.19252C22.6278 8.72309 22.3058 8.31807 22.017 7.9846C21.7281 7.65256 21.4581 7.40068 21.2689 7.2275C21.0783 7.05719 20.9628 6.96559 20.9628 6.96559C20.9628 6.96559 21.0682 7.06578 21.2429 7.25326C21.4206 7.43789 21.6632 7.71267 21.9346 8.05473C22.2076 8.39392 22.4993 8.81326 22.7809 9.28555C22.8372 9.38287 22.8949 9.48019 22.9513 9.58181C22.9455 9.70489 22.9383 9.83226 22.9282 9.95964C22.8588 9.82081 22.7852 9.68342 22.7072 9.55032C22.3173 8.8934 21.8509 8.28944 21.3628 7.77565C20.9224 7.30765 20.4545 6.92409 20.0242 6.61352L19.9866 6.57488C19.2877 5.87932 18.544 5.23529 17.8003 4.75584C17.0566 4.28068 16.3144 3.96869 15.6083 3.96725C14.7808 3.96725 13.9519 4.21056 13.1606 4.60127C12.0934 5.12938 11.0956 5.93228 10.2566 6.80101C9.99668 7.00567 9.7252 7.23895 9.46527 7.51231C9.0826 7.91304 8.7187 8.3839 8.414 8.89484C8.3418 9.01363 8.27682 9.13671 8.21617 9.26122L8.16418 9.02794C8.22628 8.91201 8.28837 8.79752 8.3548 8.69018C8.57429 8.32379 8.80245 7.99605 9.01617 7.73128C9.22989 7.46508 9.41906 7.2504 9.55769 7.10728C9.69343 6.9613 9.77719 6.88259 9.77719 6.88259C9.77719 6.88259 9.68766 6.95558 9.53603 7.08581C9.38729 7.22035 9.17646 7.41499 8.94975 7.67546C8.72448 7.93308 8.47321 8.2508 8.24072 8.61719L8.12086 8.81326C8.10642 8.72882 8.09198 8.64867 8.07899 8.56853L8.10209 8.52702C8.33025 8.14919 8.56563 7.81286 8.78657 7.53807C9.00751 7.26471 9.20246 7.04288 9.34542 6.89547C9.48838 6.74519 9.57358 6.66361 9.57213 6.66361C9.57358 6.66361 9.47971 6.73804 9.3252 6.87543C9.17358 7.01569 8.95408 7.21462 8.72159 7.48512C8.50787 7.72842 8.27249 8.0261 8.05155 8.36386L8.02122 8.12056L8.17863 7.88871C8.60029 7.2919 9.10137 6.75378 9.62556 6.31011C10.1498 5.86501 10.6913 5.50435 11.1851 5.23958C11.679 4.97624 12.118 4.79162 12.4342 4.67999C12.7476 4.56549 12.9368 4.51397 12.9353 4.51397C12.9353 4.51397 12.7447 4.5569 12.4241 4.65422C12.1036 4.75584 11.6487 4.91327 11.1433 5.16802C10.6378 5.4242 10.0747 5.7634 9.54036 6.21136C9.00462 6.65646 8.49054 7.19745 8.05732 7.80141L7.99812 7.88871C7.9909 7.80141 7.98223 7.71554 7.9779 7.6268C8.09776 7.45506 8.21617 7.29477 8.33169 7.15451C8.56707 6.86255 8.77357 6.62926 8.92664 6.47327C9.07682 6.3144 9.1678 6.2271 9.1678 6.2271C9.1678 6.2271 9.0696 6.30439 8.90787 6.4518C8.74614 6.59921 8.51509 6.81389 8.26816 7.09869C8.17285 7.2089 8.07176 7.33055 7.97068 7.46079C7.96779 7.36346 7.96491 7.26901 7.96346 7.17455L8.04288 7.07293C8.40678 6.62068 8.78513 6.22853 9.13459 5.92083C9.4826 5.61026 9.79452 5.36982 10.0183 5.21239C10.2407 5.05353 10.3779 4.96909 10.3779 4.96909C10.3779 4.96909 10.2364 5.04494 10.001 5.18949C9.76852 5.33547 9.43784 5.55444 9.07538 5.85642C8.72159 6.15268 8.33025 6.52049 7.96202 6.96273C7.96346 6.87829 7.9649 6.79385 7.96779 6.70941C8.44 6.15411 8.97285 5.66178 9.52737 5.25532C10.1743 4.77731 10.8429 4.40377 11.4508 4.14472C12.0573 3.88138 12.596 3.71393 12.983 3.61804C13.3671 3.51929 13.5981 3.48065 13.5953 3.47922C13.5981 3.47922 13.3657 3.50784 12.9729 3.58942C12.583 3.67672 12.0314 3.81412 11.4133 4.06887C10.7952 4.31933 10.1064 4.6714 9.4465 5.15371C8.93097 5.52439 8.43567 5.97092 7.98512 6.46897C7.99379 6.35161 8.00678 6.23426 8.02122 6.1169C8.18585 5.93657 8.34902 5.76912 8.50642 5.62171C8.85588 5.29397 9.16636 5.04065 9.39452 4.87033C9.61834 4.70145 9.75264 4.60986 9.75264 4.60986C9.75264 4.60986 9.61112 4.69144 9.37574 4.84743C9.14036 5.0063 8.80823 5.23958 8.44577 5.56017C8.31437 5.67609 8.17863 5.80347 8.04144 5.94086C8.27104 4.37657 8.99307 2.94252 10.3317 1.67592H10.336ZM2.72878 42.9242L2.50206 42.9571C2.68113 42.7453 2.88907 42.5034 3.12012 42.2329C3.8999 41.3155 4.9555 40.1048 6.00822 38.8868C6.52952 38.2757 7.05227 37.6646 7.5418 37.0921C7.7844 36.803 8.02411 36.5311 8.24361 36.2663C8.46455 35.9972 8.67105 35.7468 8.8631 35.5135C9.62845 34.5832 10.1396 33.9621 10.1396 33.9621C10.1396 33.9621 9.61257 34.5689 8.82411 35.4806C8.62628 35.7082 8.41256 35.9557 8.18729 36.2162C7.96057 36.4767 7.71364 36.7429 7.46382 37.0263C6.9584 37.5844 6.42122 38.1841 5.88403 38.7795C4.80244 39.9674 3.71507 41.1524 2.91073 42.0512C2.56127 42.4376 2.26379 42.7696 2.03708 43.0201L0.812524 43.1947C2.18004 41.9109 7.01905 37.2667 11.8638 31.396C12.3505 30.8063 12.8357 30.2038 13.3194 29.5913C13.4768 29.793 13.6357 29.9948 13.7945 30.1966C13.4509 30.6403 13.0985 31.0854 12.7476 31.5276C10.297 34.5918 7.69776 37.5386 5.71219 39.714C4.72012 40.8018 3.88258 41.6962 3.29485 42.3231C3.06669 42.565 2.87752 42.7653 2.73022 42.9213L2.72878 42.9242ZM3.45802 42.8183L3.23564 42.8512C3.32517 42.7553 3.41903 42.6523 3.52589 42.5378C4.10929 41.9038 4.93818 40.9964 5.92013 39.8987C7.88404 37.7004 10.4544 34.7249 12.8761 31.6307C13.2155 31.1928 13.5548 30.7548 13.887 30.3154L14.0169 30.4786C13.2198 31.4604 12.3779 32.4737 11.5332 33.4869C10.5021 34.7149 9.46383 35.9371 8.48476 37.0792C7.50425 38.2213 6.58584 39.2833 5.79161 40.1863C4.72879 41.4043 3.89413 42.336 3.45802 42.8169V42.8183ZM5.97645 42.4591L5.3815 42.5464C5.49125 42.4176 5.6111 42.2802 5.73674 42.1313C5.89991 41.9395 6.07898 41.7349 6.26526 41.5131C6.45443 41.2969 6.6436 41.0565 6.84432 40.8161C7.24288 40.3323 7.66743 39.8114 8.09343 39.2947C8.92809 38.2442 9.76708 37.1995 10.3851 36.4066C11.0046 35.6151 11.4176 35.0884 11.4176 35.0884C11.4176 35.0884 10.9887 35.6022 10.3433 36.3751C9.70354 37.1494 8.83278 38.1669 7.96635 39.1902C7.52591 39.6969 7.08548 40.2007 6.67248 40.6729C6.46454 40.9077 6.26815 41.1409 6.0732 41.3528C5.88114 41.5646 5.6963 41.7664 5.52735 41.9524C5.2963 42.2057 5.09269 42.4276 4.92518 42.6136L4.48041 42.678C5.15623 41.8623 6.39233 40.3724 7.62844 38.8825C9.41762 36.6298 11.2068 34.38 11.2068 34.38C11.2068 34.38 9.35408 36.5797 7.50136 38.7809C6.06454 40.4139 4.62915 42.0469 4.01687 42.7453L3.94756 42.7539C4.41254 42.2229 5.13168 41.3957 6.00244 40.3738C6.78512 39.4564 7.69198 38.3845 8.6566 37.2309C9.62267 36.0774 10.6465 34.8409 11.6602 33.5971C12.4862 32.581 13.3093 31.5634 14.0891 30.5788C14.2653 30.7992 14.44 31.021 14.6234 31.2457C14.4819 31.4547 14.3404 31.6636 14.2003 31.8697C13.9635 32.2103 13.731 32.5481 13.4999 32.8816C13.2631 33.2122 13.0306 33.5385 12.801 33.8605C12.5743 34.1825 12.3389 34.4916 12.1151 34.7993C11.8898 35.1056 11.6747 35.409 11.4537 35.6938C11.0205 36.2549 10.6205 36.793 10.2277 37.2724L10.3202 37.1393C10.7808 36.4724 11.0898 36.0302 11.0898 36.0302C11.0898 36.0302 10.7649 36.4595 10.2783 37.1093C9.96925 37.5229 9.58802 38.0238 9.18368 38.5534L9.11004 38.6421C8.77935 39.0371 8.49343 39.3806 8.24505 39.6539C7.75841 40.2107 7.47826 40.527 7.47826 40.527C7.47826 40.527 7.77429 40.225 8.2927 39.6969L8.35047 39.6396C8.05588 40.006 7.76563 40.3681 7.48981 40.7102C7.32952 40.9048 7.18367 41.1023 7.02772 41.274C6.87465 41.4472 6.73024 41.6118 6.59739 41.7635C6.34468 42.0497 6.13385 42.2902 5.97934 42.4648L5.97645 42.4591ZM9.05516 47.3509L9.01617 47.2206C9.48838 46.3848 10.7548 44.1536 12.0212 41.9209C13.5967 39.0843 15.1707 36.2491 15.1707 36.2491C15.1707 36.2491 13.5245 39.0457 11.8783 41.8408C10.6739 43.8402 9.47249 45.841 8.89199 46.807L8.82411 46.5752C9.32376 45.7565 10.5743 43.7128 11.8234 41.6662C13.3931 38.9999 14.9599 36.3321 14.9599 36.3321C14.9599 36.3321 13.3209 38.9569 11.6819 41.5832C10.4905 43.4237 9.29921 45.2613 8.70426 46.1759L8.61328 45.8667C9.07249 45.0595 10.1555 43.1546 11.24 41.2511C12.6841 38.748 14.1296 36.2463 14.1296 36.2463C14.1296 36.2463 12.6133 38.7079 11.097 41.1681C10.0674 42.8641 9.03639 44.5615 8.49198 45.4574L7.59523 42.4362C7.96924 41.9052 8.63639 40.9535 9.30787 39.9974C10.2754 38.5405 11.24 37.0821 11.24 37.0821C11.24 37.0821 10.2075 38.4932 9.17213 39.9058C8.45444 40.8332 7.73675 41.7578 7.34252 42.2673L6.43277 42.3975C6.54396 42.2616 6.66959 42.107 6.80967 41.9367C6.93674 41.7778 7.07681 41.6075 7.22411 41.4272C7.37429 41.2483 7.51147 41.0465 7.66599 40.8433C7.96779 40.4368 8.28982 40.0017 8.61328 39.5681C8.82411 39.2661 9.03783 38.9655 9.24433 38.6707C9.40607 38.4947 9.57791 38.3101 9.75264 38.1097C9.94037 37.8921 10.1382 37.6603 10.3433 37.417C10.7591 36.939 11.1837 36.398 11.6429 35.8355C11.8711 35.5522 12.0949 35.2559 12.3288 34.9568C12.5642 34.6548 12.7981 34.3428 13.0306 34.0208C13.2631 33.7016 13.4999 33.3767 13.7397 33.0476C13.9765 32.7127 14.2148 32.3778 14.4545 32.0357C14.5815 31.8597 14.7043 31.6779 14.8285 31.4962C15.0046 31.7123 15.1837 31.9341 15.3671 32.1588C15.2617 32.3076 15.1548 32.4579 15.0494 32.6068C14.6537 33.1592 14.2812 33.7131 13.9 34.2326C13.5231 34.7578 13.1592 35.2659 12.814 35.7454C12.4718 36.2305 12.1368 36.6785 11.8292 37.095C11.5245 37.5114 11.2443 37.8936 10.996 38.2313C10.7433 38.5677 10.5122 38.851 10.3259 39.0886C9.95481 39.5652 9.74109 39.8386 9.74109 39.8386C9.74109 39.8386 9.80751 39.767 9.9317 39.6339C10.0559 39.5008 10.2436 39.309 10.466 39.0543C10.6927 38.8009 10.9628 38.4875 11.2689 38.1283C11.4205 37.9465 11.5837 37.7547 11.7526 37.5501C11.9202 37.3426 12.0934 37.1265 12.2768 36.9003C12.6364 36.4438 13.0234 35.9443 13.4234 35.4105C13.8249 34.8781 14.2465 34.3142 14.6624 33.7174C14.8935 33.3911 15.1274 33.0562 15.3628 32.7184C15.435 32.6168 15.5072 32.5137 15.5794 32.4136C15.8321 32.7198 16.0935 33.0376 16.3693 33.3667C16.5844 33.6243 16.8068 33.8905 17.0393 34.1668C16.9296 34.36 16.8213 34.5518 16.7115 34.7435C16.235 35.5665 15.7556 36.388 15.2877 37.198C14.8213 38.0109 14.3462 38.7995 13.8898 39.5666C13.4306 40.3323 13.0018 41.0794 12.57 41.7721C12.1397 42.4677 11.7353 43.126 11.3628 43.7328C11.175 44.0362 10.9945 44.3282 10.8241 44.603C10.6494 44.8763 10.4819 45.1382 10.3259 45.3801C10.0126 45.8682 9.73964 46.2918 9.51437 46.6424C9.32664 46.933 9.17358 47.172 9.05805 47.3523L9.05516 47.3509ZM9.21545 47.8919L9.21256 47.8818C9.67033 47.1333 11.4017 44.3039 13.136 41.4744C15.1115 38.1498 17.087 34.8251 17.087 34.8251C17.087 34.8251 15.874 36.7715 14.3808 39.1645C14.7361 38.5548 15.0971 37.9322 15.4552 37.2939C15.9158 36.4781 16.3866 35.6495 16.853 34.8208C16.9512 34.6462 17.0494 34.4702 17.1462 34.2956L17.3397 34.5246C16.8256 35.4162 16.2985 36.3307 15.7714 37.2481C15.1823 38.2714 14.5945 39.2947 14.0256 40.2837L9.21545 47.8904V47.8919ZM13.2501 42.2931C12.9238 42.7997 12.5974 43.3049 12.2812 43.7987C12.3606 43.6613 12.4386 43.5239 12.518 43.3822C12.6913 43.0816 12.8689 42.7711 13.0508 42.4562C13.2299 42.1371 13.4119 41.8107 13.5967 41.4801C14.3361 40.1563 15.1259 38.7423 15.9158 37.3297C16.4227 36.4194 16.931 35.5121 17.4249 34.6262C17.539 34.7593 17.653 34.8952 17.7729 35.0355C17.5563 35.4148 17.3411 35.7969 17.126 36.1762C16.8964 36.5855 16.6639 36.9962 16.4328 37.4041C16.3173 37.6059 16.2018 37.8106 16.0877 38.0138C15.9765 38.2113 15.8494 38.4131 15.731 38.6092C15.2516 39.4035 14.7808 40.1835 14.3245 40.9406C13.8653 41.6934 13.422 42.4233 13.0018 43.1146C12.5844 43.8072 12.1729 44.4499 11.8003 45.0509C11.4234 45.6478 11.0898 46.2016 10.7721 46.6796C10.6508 46.8643 10.5368 47.0374 10.427 47.2035C11.1895 45.9626 12.2898 44.1708 13.3916 42.3775C15.3108 39.1087 17.227 35.8413 17.227 35.8413C17.227 35.8413 15.24 39.0686 13.2501 42.2945V42.2931ZM13.9389 42.8941C12.6754 44.8949 11.562 46.6095 10.7649 47.8232C10.3649 48.4286 10.0458 48.9094 9.82484 49.24C9.77141 49.323 9.72231 49.3946 9.68044 49.4576L9.57646 49.1026C9.67177 48.9552 9.89416 48.6046 10.2234 48.0894C10.4472 47.7416 10.7158 47.3194 11.0248 46.8356C11.3382 46.3533 11.666 45.7937 12.0371 45.1941C12.4025 44.5887 12.8097 43.9389 13.2198 43.2419C13.6314 42.5449 14.0675 41.8122 14.518 41.0522C14.9671 40.2922 15.4292 39.5065 15.9 38.7079C16.0169 38.5047 16.1382 38.3115 16.2523 38.1011C16.3664 37.8979 16.479 37.6932 16.5917 37.4871C16.8184 37.0764 17.0451 36.6656 17.2733 36.252C17.474 35.8871 17.6761 35.5207 17.8769 35.1543C18.0242 35.3289 18.1772 35.5092 18.3317 35.691C16.8328 38.2485 15.3007 40.7388 13.9404 42.8927L13.9389 42.8941ZM29.3585 47.9105L29.2964 47.8389L29.3614 47.806L29.3773 47.7831L29.36 47.9105H29.3585ZM29.3989 47.6156L29.3744 47.5741L29.3701 47.5698C29.3701 47.5698 29.3051 47.4968 29.1867 47.3623L29.4119 47.3595L29.4163 47.3523L29.4322 47.3423L29.3975 47.6128L29.3989 47.6156ZM30.6278 40.4597L30.5802 40.3595L30.5744 40.3567C30.5744 40.3567 29.1202 38.977 27.6646 37.5945C26.2451 36.1761 24.8271 34.7578 24.8271 34.7578C24.8271 34.7578 26.1859 36.2334 27.5448 37.709C28.908 39.1129 30.2668 40.5112 30.3405 40.5856L30.3347 40.6014L29.8509 44.2309C29.2733 43.5468 27.5188 41.4687 25.7643 39.3877C23.6069 36.8646 21.4494 34.3385 21.4494 34.3385C21.4494 34.3385 23.5433 36.9146 25.6357 39.4922C27.7137 42.0812 29.7903 44.6688 29.7903 44.6688L29.7397 45.0552C29.1332 44.3769 27.1607 42.1743 25.1895 39.9688C22.8646 37.2796 20.5382 34.5918 20.5382 34.5918C20.5382 34.5918 22.7996 37.3311 25.0625 40.0733C27.3701 42.7739 29.6762 45.4746 29.682 45.4832L29.6358 45.8181C29.0495 45.1139 27.0365 42.7067 25.0206 40.3008C22.6538 37.4184 20.287 34.536 20.287 34.536C20.287 34.536 22.5888 37.4685 24.8935 40.4024C27.2213 43.3135 29.5491 46.2245 29.5491 46.2245L29.552 46.2302H29.5535L29.578 46.2503L29.5535 46.4363C29.4711 46.3447 29.126 45.9555 28.5729 45.3372C28.2553 44.9794 27.8697 44.5443 27.4278 44.0477C27.2054 43.8001 26.9715 43.5339 26.7217 43.2534C26.4791 42.9714 26.2235 42.6737 25.9563 42.3632C25.422 41.7392 24.8444 41.0651 24.235 40.3509C23.6199 39.6411 22.9975 38.8696 22.339 38.0825C21.6848 37.2953 21.0047 36.4839 20.3303 35.6452C19.6516 34.8108 18.9613 33.9607 18.2725 33.1134C15.5404 29.6972 12.8068 26.2823 10.7591 23.7219C9.73531 22.441 8.86599 21.3848 8.26671 20.6406C7.6631 19.8978 7.31797 19.4727 7.31797 19.4727C7.31797 19.4727 7.65877 19.8992 8.25372 20.6478C8.84722 21.3977 9.70787 22.4596 10.7187 23.7534C12.7433 26.3339 15.4436 29.7744 18.144 33.2136C18.8256 34.068 19.5072 34.9239 20.1772 35.764C20.8444 36.6098 21.5188 37.427 22.1643 38.2228L22.1715 38.2299C21.2617 37.1751 20.404 36.1833 19.6993 35.3675C18.6061 34.1081 17.8783 33.2694 17.8783 33.2694C17.8783 33.2694 18.5917 34.121 19.6603 35.4004C20.726 36.6814 22.1455 38.3888 23.5664 40.0962C24.2827 40.9477 24.996 41.7979 25.6661 42.5936C26.0025 42.9929 26.3217 43.3822 26.6365 43.7414C26.9498 44.1021 27.2459 44.4413 27.5188 44.7561C28.6134 46.0156 29.3412 46.8557 29.3412 46.8557H29.3441L29.4914 46.9072L29.4683 47.0761L22.1931 38.7594C21.4119 37.7905 20.6061 36.7901 19.8003 35.7897C15.1317 29.9977 10.4617 24.2057 10.4617 24.2057C10.4617 24.2057 15.0667 30.0478 19.6718 35.8928C20.8213 37.354 21.9736 38.8153 23.0523 40.1849C23.3238 40.527 23.5881 40.8647 23.8495 41.1939C24.1123 41.5202 24.3708 41.8394 24.6206 42.1514C24.9036 42.502 25.1794 42.8398 25.448 43.1632C24.8459 42.4891 24.2134 41.7778 23.5809 41.0694C20.7505 37.7605 17.9187 34.4516 17.9187 34.4516C17.9187 34.4516 20.2307 37.261 22.7419 40.3094C21.2632 38.6049 20.0444 37.1909 19.0061 35.9786C18.7 35.5922 18.3909 35.2029 18.0834 34.818C12.7014 28.0384 7.31508 21.2589 7.31508 21.2589C7.31508 21.2589 11.4205 26.5285 16.0241 32.4422C13.9332 29.9061 12.557 28.0899 10.0068 24.7424C9.55047 24.147 8.88621 23.357 8.14108 22.4138C7.02483 21.0013 5.73096 19.2495 4.72157 17.3245C3.70929 15.3953 2.98149 13.2957 2.98149 11.189C2.98293 9.50309 3.44503 7.81 4.61182 6.17558C4.67825 6.08255 4.74901 5.98666 4.82265 5.89077C3.87969 7.89444 3.60965 10.0527 4.03853 12.1537L4.11362 12.1808C3.66019 9.95821 3.99377 7.67117 5.07103 5.57734C5.20533 5.41562 5.3454 5.25532 5.49558 5.09646C4.20027 7.35774 3.8147 9.87091 4.38077 12.2882L4.45875 12.3211C3.86525 9.79362 4.31579 7.16167 5.75262 4.82883C5.89703 4.68142 6.04576 4.5383 6.20172 4.39375C4.67536 6.88831 4.39955 9.65337 5.28042 12.1808C4.40965 9.57036 4.762 6.73517 6.40966 4.20769C6.51508 4.11467 6.62338 4.02164 6.73457 3.93004C6.60028 4.14186 6.47176 4.35511 6.35623 4.57122C4.95839 6.96559 4.72157 9.59039 5.5519 12.0019C4.91507 10.0684 4.95839 8.01036 5.71652 6.04963C5.18944 7.64255 5.1519 9.27124 5.56201 10.8069C5.0407 8.70019 5.34684 6.43892 6.58439 4.34079C6.72158 4.12469 6.86887 3.90858 7.02483 3.69676L7.12302 3.61948C6.89775 3.95151 6.69703 4.28927 6.5223 4.62989C5.48114 6.59921 5.25876 8.68302 5.75406 10.6166C5.19666 8.25796 5.68908 5.70329 7.39017 3.41625L7.614 3.25023C7.4696 3.45918 7.3353 3.66814 7.21111 3.87852C6.42988 5.11221 5.99522 6.40027 5.88114 7.67403C5.97789 6.78383 6.23205 5.89077 6.64649 5.01345C5.53312 7.72269 6.04432 10.5049 7.7122 12.666C7.73386 12.7419 7.75696 12.8249 7.78151 12.915C7.83783 13.0896 7.91581 13.2843 7.99812 13.5033C8.18729 13.9326 8.427 14.4507 8.74902 15.0218C9.05949 15.5985 9.44794 16.2297 9.88405 16.9066C10.3274 17.5779 10.8155 18.3035 11.3613 19.0505C11.8985 19.7991 12.4819 20.5791 13.1057 21.3705C13.7296 22.1634 14.3866 22.9706 15.0653 23.7821C15.744 24.5921 16.4444 25.4093 17.1577 26.2136C17.874 27.0151 18.6032 27.8051 19.3296 28.5751C20.0559 29.3451 20.7809 30.0936 21.4913 30.8092C22.2018 31.5248 22.9022 32.2017 23.578 32.8343C24.2523 33.4655 24.8964 34.0566 25.5015 34.5918C26.1022 35.13 26.6682 35.6065 27.1751 36.0259L27.2906 36.1203C27.5982 36.4366 27.9173 36.7644 28.2365 37.0921C28.6784 37.5258 29.1231 37.958 29.539 38.3644C29.7498 38.5662 29.9419 38.7709 30.1441 38.9455C30.3434 39.1244 30.5311 39.2904 30.7058 39.4478C31.282 39.9645 31.6993 40.3366 31.8235 40.4482L30.6264 40.4626L30.6278 40.4597ZM35.0784 40.4082L35.0264 40.2293C35.0264 40.2293 33.5954 39.0786 31.4827 37.3025C30.4257 36.418 29.1982 35.3775 27.8856 34.2584C26.5744 33.1392 25.1823 31.937 23.8004 30.7262C23.1101 30.1179 22.417 29.514 21.744 28.9086C21.0653 28.3089 20.4025 27.715 19.7657 27.1325C19.1245 26.5571 18.5166 25.989 17.9361 25.4537C17.3556 24.917 16.8169 24.3989 16.3173 23.9252C15.8249 23.4414 15.3729 23.0006 14.9743 22.6085C14.5859 22.2049 14.2465 21.8557 13.9649 21.5666C13.4292 20.9669 13.1231 20.6249 13.1231 20.6249C13.1231 20.6249 13.4249 20.9726 13.9548 21.5766C14.2306 21.8671 14.5671 22.2221 14.9512 22.6285C15.3469 23.0278 15.7931 23.4744 16.2797 23.961C16.7765 24.4404 17.3079 24.9642 17.8812 25.5066C18.4574 26.0491 19.0595 26.6244 19.6935 27.2083C20.326 27.7951 20.9801 28.3976 21.6502 29.0073C22.3188 29.6184 23.0047 30.231 23.6892 30.845C25.0567 32.0715 26.4372 33.2909 27.7354 34.4229C29.035 35.5579 30.2509 36.6127 31.2993 37.51C33.1029 39.0586 34.4055 40.1377 34.7347 40.411L34.4141 40.4139L34.3665 40.2293H34.3636C34.3636 40.2293 33.7282 39.704 32.7722 38.9226C32.5325 38.7251 32.274 38.5147 32.0011 38.2914C31.7282 38.0682 31.4466 37.8206 31.152 37.5716C30.5643 37.0706 29.9376 36.5368 29.3109 36.003C26.8285 33.8376 24.3462 31.6708 24.3462 31.6708C24.3462 31.6708 26.7737 33.8963 29.2011 36.1246C29.8148 36.6742 30.4286 37.2252 31.0033 37.7404C31.2921 37.9966 31.5665 38.2499 31.8365 38.4818C32.1051 38.7122 32.3578 38.9312 32.5917 39.133C33.3441 39.7827 33.8957 40.2565 34.0834 40.4196L33.5621 40.4253C33.4076 40.3023 32.869 39.8672 32.1152 39.2604C31.8914 39.08 31.6488 38.884 31.3917 38.6764C31.1332 38.4718 30.8704 38.2414 30.5946 38.0124C30.043 37.5487 29.4567 37.0563 28.869 36.5611C28.2885 36.0574 27.708 35.5536 27.165 35.0842C26.6191 34.6133 26.1166 34.1682 25.6848 33.7875C24.8199 33.0247 24.2451 32.518 24.2451 32.518C24.2451 32.518 24.8054 33.0418 25.6502 33.8247C26.0719 34.2183 26.5628 34.6763 27.0971 35.16C27.6271 35.6452 28.1932 36.1647 28.7607 36.6828C29.3354 37.1937 29.9087 37.7032 30.4473 38.1812C30.7188 38.4203 30.973 38.655 31.2271 38.8668C31.4784 39.0815 31.7166 39.2818 31.9376 39.4693C32.417 39.8758 32.8083 40.2092 33.0654 40.4296L32.1109 40.4411L32.0777 40.2336L32.0719 40.2278C32.0719 40.2278 31.5968 39.83 30.8863 39.236C30.7087 39.0872 30.5166 38.9269 30.313 38.7566C30.1065 38.5877 29.9087 38.3916 29.6892 38.197C29.2632 37.8063 28.8069 37.3869 28.3491 36.9705L28.3376 36.9604L28.4964 37.085C28.8632 37.3783 29.165 37.5916 29.3672 37.7462C29.5693 37.8979 29.6762 37.978 29.6762 37.978C29.6762 37.978 29.5722 37.8921 29.3787 37.7319C29.1838 37.5701 28.8935 37.3411 28.5368 37.0349C28.3578 36.8846 28.1585 36.7157 27.9419 36.5339C27.7744 36.388 27.5939 36.2277 27.4047 36.0617C26.8488 35.5278 26.326 35.024 25.8986 34.6047C25.2343 33.9549 24.791 33.5242 24.791 33.5242C24.791 33.5242 25.2199 33.9707 25.861 34.6405C25.9376 34.7192 26.0155 34.8008 26.0978 34.8852C25.9433 34.745 25.7859 34.599 25.6256 34.4501C25.0336 33.9063 24.404 33.3038 23.7455 32.6569C23.0841 32.0143 22.404 31.3201 21.6964 30.606C20.9917 29.8861 20.2725 29.1361 19.5549 28.3633C18.8357 27.589 18.1151 26.7947 17.4061 25.9932C16.6884 25.1946 15.9852 24.386 15.3021 23.5803C14.6191 22.7759 13.9592 21.9759 13.331 21.1916C12.7072 20.403 12.1064 19.6402 11.5548 18.9046C10.9974 18.1718 10.4963 17.4605 10.0386 16.8007C9.59379 16.1338 9.18657 15.5212 8.85588 14.9588C8.51653 14.402 8.26094 13.8954 8.05877 13.4746C7.96924 13.2585 7.88548 13.0682 7.8205 12.8979L7.76274 12.7247L7.85083 12.8363L7.82483 12.7705L7.74108 12.6574L7.67898 12.4614C7.62844 12.2152 7.601 12.085 7.601 12.085C7.601 12.085 7.62411 12.2166 7.66165 12.4642L7.69631 12.6002C5.72952 9.94819 5.48114 6.41602 7.74252 3.23592L7.74541 3.22876L7.87104 3.0699C8.37646 2.71926 8.9252 2.37434 9.52448 2.03801C8.39523 3.32608 7.80462 4.77874 7.66599 6.3373L7.63999 6.36593L7.65877 6.42747C7.64144 6.64501 7.63133 6.86398 7.63133 7.08581C7.63422 9.73924 8.82267 12.6474 10.7144 15.6171C10.7534 15.6987 10.7967 15.7874 10.8429 15.8876C10.9353 16.0536 11.0407 16.2469 11.1606 16.463C11.2747 16.6805 11.4191 16.9124 11.5736 17.1628C11.6516 17.2902 11.7339 17.419 11.8176 17.5564C11.9072 17.6895 11.9981 17.8255 12.0949 17.9671C12.1902 18.1103 12.2898 18.2577 12.3924 18.4079C12.4949 18.5568 12.609 18.7056 12.7216 18.8616C12.8357 19.0176 12.9512 19.1765 13.0696 19.3411C13.1938 19.4999 13.3194 19.6617 13.448 19.8291C13.5794 19.9951 13.7122 20.164 13.8465 20.3358C13.9866 20.5075 14.1296 20.6792 14.2725 20.8538C14.5584 21.2088 14.8675 21.5623 15.1837 21.9272C15.4971 22.2965 15.8364 22.6614 16.1743 23.0421C16.5195 23.4128 16.8733 23.7935 17.2343 24.1799C17.9635 24.9413 18.7231 25.7242 19.5159 26.4999C20.3043 27.2813 21.1216 28.0542 21.9419 28.827C25.2372 31.9012 28.6798 34.8165 31.2964 36.959C32.6047 38.0295 33.7051 38.9097 34.4777 39.5223C35.0365 39.9645 35.4206 40.2679 35.5925 40.4039L35.077 40.4082H35.0784ZM35.9564 40.401L35.8986 40.2278C35.8986 40.2278 35.4538 39.8829 34.6741 39.279C33.8972 38.6721 32.7896 37.8048 31.4726 36.7458C28.8401 34.6319 25.3758 31.7523 22.0559 28.7096C21.2285 27.9482 20.4054 27.1811 19.6112 26.4097C18.8126 25.6412 18.0444 24.8683 17.3094 24.1127C16.9469 23.7277 16.5902 23.3541 16.2408 22.9849C15.9 22.6099 15.5592 22.2493 15.2415 21.8829C14.9238 21.5208 14.6104 21.1687 14.3231 20.8195C14.1772 20.6449 14.0328 20.4732 13.8927 20.3057C13.757 20.134 13.6227 19.9651 13.4898 19.8005C13.3599 19.6359 13.2314 19.4742 13.1057 19.3153C12.9859 19.1522 12.8689 18.9933 12.7534 18.8402C12.6393 18.687 12.5267 18.5382 12.4212 18.3893C12.3187 18.2405 12.2176 18.0931 12.1194 17.9528C12.0227 17.8111 11.9288 17.6737 11.8378 17.5449C11.7526 17.409 11.6703 17.2787 11.5924 17.1542C11.435 16.9038 11.2862 16.6748 11.1707 16.4572C11.0508 16.244 10.944 16.0522 10.8501 15.8876C10.8097 15.806 10.7736 15.7288 10.7389 15.6586C11.227 16.4215 11.7599 17.1886 12.3317 17.9543C16.5483 23.6032 22.8574 29.2807 28.1137 33.5499C29.152 34.3929 30.1484 35.18 31.0813 35.9042C32.4618 37.0706 33.8437 38.227 34.8719 39.1115C35.5564 39.6954 36.0921 40.1534 36.3809 40.3982L35.9535 40.4039L35.9564 40.401ZM36.869 40.3896L36.8387 40.3509C36.8387 40.3509 36.1253 39.7699 35.0538 38.8968L34.9167 38.7852C35.9376 39.5294 36.7145 40.079 37.1578 40.3896H36.869Z" fill="#434341"/>
<path d="M8.34547 3.00837V2.92822L8.2415 2.99406C6.51297 5.42994 6.35412 7.98318 7.27254 10.1343C7.26243 10.0455 7.25232 9.95536 7.24366 9.86949C6.45954 7.7728 6.68481 5.33119 8.34691 3.00837H8.34547Z" fill="#434341"/>
<path d="M8.39635 3.33611L8.38047 3.26312L8.36747 3.26598C8.43823 3.16007 8.51043 3.05416 8.58697 2.94969V2.87097L8.483 2.93538C6.96097 5.04352 6.64183 7.24182 7.18913 9.18108C7.18335 9.05943 7.18046 8.93492 7.17902 8.81327C6.84111 7.2547 7.06061 5.55302 7.99491 3.87853C7.46927 4.96766 7.26133 6.05537 7.31187 7.08725C7.33209 6.96846 7.35086 6.84968 7.37252 6.72946C7.39851 5.62887 7.71765 4.47533 8.39491 3.33611H8.39635Z" fill="#434341"/>
<path d="M7.98912 3.17005V3.08704L7.88659 3.15144C5.71041 6.18699 5.86492 9.52739 7.60067 12.0892L7.57901 12.0019C5.92413 9.43865 5.83316 6.14835 7.98768 3.17005H7.98912Z" fill="#434341"/>
<path d="M22.8025 33.5399C22.326 33.0547 21.8263 32.5423 21.2992 32.0185C20.7736 31.499 20.2465 30.9394 19.7021 30.3841C19.4985 30.1737 19.2906 29.9619 19.0841 29.7487C18.4054 29.0145 17.7223 28.2588 17.0465 27.4945C15.8566 26.1736 14.6942 24.8282 13.6328 23.5459C13.1043 22.9047 12.5931 22.2822 12.1165 21.6882C11.6414 21.0885 11.1967 20.5232 10.801 19.988C10.4039 19.4541 10.0458 18.9589 9.73673 18.5167C9.43203 18.0702 9.17211 17.6752 8.97716 17.3417C8.77644 17.0082 8.63492 16.7406 8.5425 16.5545C8.45586 16.3642 8.4082 16.2626 8.4082 16.2626C8.4082 16.2626 8.45008 16.3656 8.52517 16.5603C8.56127 16.6547 8.62192 16.7721 8.68402 16.908C8.74467 17.0469 8.82842 17.2014 8.92084 17.3717C9.10424 17.7152 9.34684 18.1203 9.63276 18.5811C9.92446 19.0376 10.2624 19.55 10.6494 20.0924C11.0335 20.6391 11.4653 21.2202 11.9259 21.8313C12.3894 22.4396 12.8819 23.0779 13.4118 23.7234C13.5996 23.9538 13.7902 24.1885 13.9837 24.4203C13.7757 24.2042 13.5707 23.9896 13.3714 23.782C12.9079 23.2854 12.4718 22.816 12.066 22.3823C11.6645 21.9458 11.2848 21.5565 10.9613 21.1987C10.6378 20.8424 10.3548 20.5304 10.1223 20.2742C9.65297 19.7633 9.38583 19.4713 9.38583 19.4713C9.38583 19.4713 9.63709 19.7776 10.0732 20.3143C10.2941 20.5805 10.5613 20.9053 10.8674 21.2775C11.1736 21.6481 11.5346 22.056 11.9274 22.5011C12.3201 22.9477 12.7447 23.4314 13.1952 23.9409C13.6515 24.4447 14.131 24.9785 14.6364 25.5209C15.1389 26.0676 15.6602 26.6315 16.1989 27.1954C16.7332 27.7607 17.279 28.3346 17.8234 28.9086C18.2754 29.3794 18.7375 29.8431 19.1924 30.3025C19.588 30.7219 19.9823 31.1312 20.3693 31.5305C20.9483 32.133 21.5245 32.6998 22.0733 33.2336C22.622 33.7674 23.1476 34.2641 23.6372 34.7206C23.8826 34.9453 24.1195 35.16 24.3433 35.3675C24.5729 35.5693 24.7895 35.7597 24.9931 35.94C25.4047 36.2949 25.7642 36.6026 26.0675 36.8502C26.365 37.1007 26.609 37.2867 26.7736 37.417C26.9383 37.5458 27.0263 37.6145 27.0263 37.6145C27.0263 37.6145 26.7361 37.344 26.2278 36.8731C25.9751 36.6355 25.6588 36.3593 25.3123 36.023C24.9715 35.6838 24.5845 35.3002 24.1599 34.8852C23.7339 34.4716 23.2718 34.0265 22.8011 33.5356L22.8025 33.5399Z" fill="#434341"/>
<path d="M11.5946 1.83189C12.0668 1.66587 12.6257 1.51703 13.2221 1.41541C13.8184 1.31094 14.4553 1.26228 15.0849 1.28231C15.7145 1.29376 16.3354 1.37105 16.9073 1.49699C17.4777 1.62437 17.9975 1.78895 18.4322 1.96499C18.8654 2.13816 19.2192 2.3099 19.4603 2.44301C19.7029 2.57181 19.8372 2.65625 19.8372 2.65339C19.8372 2.65339 19.7073 2.56323 19.4733 2.41724C19.238 2.27413 18.8957 2.07519 18.464 1.88627C18.0307 1.69593 17.5123 1.50558 16.9376 1.37248C16.3629 1.23651 15.7333 1.15064 15.0935 1.13204C14.4553 1.11916 13.8098 1.1764 13.2062 1.28661C12.6026 1.39681 12.0437 1.57284 11.5701 1.75174C11.0979 1.9335 10.7108 2.12958 10.4451 2.27413C10.1765 2.42154 10.0264 2.516 10.0264 2.516C10.0264 2.516 10.1809 2.42869 10.4538 2.29846C10.7253 2.16679 11.1195 1.99647 11.5932 1.83189H11.5946Z" fill="#434341"/>
<path d="M16.9815 1.70884C16.6147 1.61295 16.1815 1.52279 15.7064 1.4727C15.2313 1.41974 14.7186 1.41115 14.2031 1.44693C13.6876 1.48414 13.1692 1.57002 12.6869 1.6931C12.5425 1.72888 12.4038 1.76752 12.2695 1.81046L12.3316 1.91493C12.4544 1.88488 12.5786 1.85053 12.7085 1.82191C13.1879 1.7117 13.6991 1.63156 14.2074 1.59578C14.7158 1.55714 15.2226 1.56572 15.6919 1.60293C16.1612 1.64158 16.5945 1.70884 16.9613 1.79185C17.328 1.872 17.6298 1.95501 17.8392 2.02227C18.0501 2.08811 18.167 2.13104 18.167 2.12961C18.167 2.13247 18.053 2.07809 17.8508 1.99508C17.6443 1.91493 17.3497 1.80473 16.9815 1.70884Z" fill="#434341"/>
<path d="M14.2188 2.18543C14.6982 2.14965 15.1747 2.1568 15.6166 2.19115C16.0585 2.22979 16.4672 2.29133 16.8123 2.36719C17.1589 2.44447 17.4419 2.52175 17.6397 2.58473C17.8376 2.64627 17.9488 2.68491 17.9488 2.68491C17.9488 2.68491 17.8405 2.63482 17.6484 2.55753C17.4549 2.48168 17.1776 2.3772 16.8325 2.28561C16.4874 2.19687 16.0787 2.10957 15.6325 2.06377C15.1848 2.01368 14.7011 2.0051 14.2144 2.03801C13.7278 2.07379 13.2397 2.15251 12.7863 2.26843C12.6621 2.29849 12.5422 2.33284 12.4267 2.36862L12.4065 2.49886C12.5365 2.46164 12.6708 2.4273 12.8065 2.39581C13.257 2.2942 13.7379 2.21977 14.2173 2.18543H14.2188Z" fill="#434341"/>
<path d="M11.6681 3.03698C12.0132 2.90675 12.4204 2.78366 12.8565 2.68348C13.2926 2.58473 13.7591 2.51031 14.2226 2.47882C14.6861 2.44447 15.1482 2.45163 15.5771 2.48455C16.006 2.52033 16.4031 2.579 16.7381 2.65343C17.0732 2.72642 17.3504 2.80227 17.541 2.86381C17.7345 2.91963 17.8399 2.9597 17.8414 2.9597C17.8399 2.9597 17.736 2.91104 17.5511 2.83519C17.3634 2.76363 17.0948 2.66058 16.7598 2.57328C16.4248 2.48455 16.0291 2.39867 15.5959 2.35145C15.1612 2.30565 14.6919 2.29706 14.2212 2.32855C13.7504 2.36433 13.2753 2.44161 12.8349 2.55467C12.3944 2.66488 11.9872 2.81372 11.6435 2.9597C11.2984 3.10568 11.0183 3.25739 10.8233 3.36473C10.6284 3.47779 10.5201 3.54792 10.5215 3.54792C10.5215 3.54792 10.6341 3.48638 10.8349 3.39192C11.0356 3.29317 11.3244 3.16865 11.6695 3.03698H11.6681Z" fill="#434341"/>
<path d="M13.6428 2.69784C13.0739 2.78228 12.5468 2.93685 12.0992 3.09857C11.6515 3.25887 11.2876 3.44349 11.0349 3.57945C10.7836 3.71685 10.6436 3.80701 10.6436 3.80558C10.6436 3.80701 10.788 3.72543 11.0464 3.60521C11.3035 3.48213 11.6732 3.32613 12.1208 3.17872C12.5685 3.02845 13.0927 2.90393 13.6558 2.82665C14.2161 2.74793 14.8154 2.72933 15.4017 2.77799C15.9909 2.81949 16.5699 2.92826 17.0956 3.08569C17.6212 3.24169 18.0992 3.43347 18.492 3.63527C18.8847 3.83707 19.2024 4.02885 19.4176 4.17626C19.6357 4.32081 19.7555 4.4124 19.7555 4.4124C19.7555 4.4124 19.6414 4.31222 19.4349 4.1505C19.2255 3.9945 18.9208 3.77409 18.5295 3.56085C18.1367 3.34474 17.666 3.12433 17.1331 2.96118C16.6017 2.79516 16.014 2.6778 15.4176 2.62914C14.8197 2.58621 14.2104 2.61483 13.6414 2.69927L13.6428 2.69784Z" fill="#434341"/>
</g>
<defs>
<clipPath id="clip0_79_578">
<rect width="38" height="50" fill="white"/>
</clipPath>
</defs>
</svg>
