<svg width="29" height="29" viewBox="0 0 29 29" fill="none" xmlns="http://www.w3.org/2000/svg">
<g clip-path="url(#clip0_80_1179)">
<path d="M14.5711 28.8571C22.5398 28.8571 28.9997 22.3973 28.9997 14.4286C28.9997 6.45989 22.5398 0 14.5711 0C6.60247 0 0.142578 6.45989 0.142578 14.4286C0.142578 22.3973 6.60247 28.8571 14.5711 28.8571Z" fill="url(#paint0_linear_80_1179)"/>
<path fill-rule="evenodd" clip-rule="evenodd" d="M6.67389 14.277C10.8801 12.4444 13.6849 11.2362 15.0883 10.6525C19.0953 8.98592 19.9279 8.69639 20.4705 8.68681C20.5899 8.68472 20.8568 8.71431 21.0296 8.8546C21.2861 9.06268 21.2875 9.51436 21.2591 9.81331C21.0419 12.0948 20.1024 17.6314 19.6244 20.1867C19.4221 21.268 19.0238 21.6305 18.6383 21.666C17.8005 21.7431 17.1642 21.1122 16.3526 20.5803C15.0828 19.7478 14.3653 19.2296 13.1326 18.4174C11.7081 17.4786 12.6316 16.9627 13.4434 16.1194C13.6559 15.8988 17.3476 12.5408 17.4191 12.2362C17.4281 12.1981 17.4364 12.056 17.352 11.9811C17.2676 11.9061 17.1431 11.9317 17.0533 11.9521C16.9259 11.981 14.8972 13.3219 10.9672 15.9748C10.3914 16.3702 9.86981 16.5628 9.40252 16.5527C8.88732 16.5416 7.89637 16.2615 7.15967 16.022C6.25608 15.7283 5.53792 15.573 5.60048 15.0742C5.63306 14.8143 5.99084 14.5486 6.67389 14.277Z" fill="#E9DACE"/>
</g>
<defs>
<linearGradient id="paint0_linear_80_1179" x1="14.5711" y1="0" x2="14.5711" y2="28.6317" gradientUnits="userSpaceOnUse">
<stop stop-color="#2AABEE"/>
<stop offset="1" stop-color="#229ED9"/>
</linearGradient>
<clipPath id="clip0_80_1179">
<rect width="28.8571" height="28.8571" fill="white" transform="translate(0.142578)"/>
</clipPath>
</defs>
</svg>
