<svg width="29" height="29" viewBox="0 0 29 29" fill="none" xmlns="http://www.w3.org/2000/svg">
<g clip-path="url(#clip0_80_1183)">
<path d="M14.4999 28.8571C22.4685 28.8571 28.9284 22.3973 28.9284 14.4286C28.9284 6.45989 22.4685 0 14.4999 0C6.53118 0 0.0712891 6.45989 0.0712891 14.4286C0.0712891 22.3973 6.53118 28.8571 14.4999 28.8571Z" fill="#665CAC"/>
<path d="M16.0194 6.83386H12.9818C11.572 6.83386 10.2199 7.39392 9.22298 8.39082C8.22607 9.38773 7.66602 10.7398 7.66602 12.1497V14.4278C7.66559 15.4342 7.95082 16.4199 8.48855 17.2705C9.02627 18.1212 9.79439 18.8017 10.7036 19.2329V21.7712C10.7045 21.8207 10.7199 21.8689 10.7477 21.9099C10.7756 21.9508 10.8149 21.9827 10.8606 22.0016C10.9064 22.0206 10.9567 22.0257 11.0054 22.0165C11.054 22.0073 11.0989 21.9841 11.1346 21.9497L13.3406 19.7436H16.0194C17.4292 19.7436 18.7813 19.1836 19.7782 18.1867C20.7751 17.1898 21.3352 15.8377 21.3352 14.4278V12.1497C21.3352 10.7398 20.7751 9.38773 19.7782 8.39082C18.7813 7.39392 17.4292 6.83386 16.0194 6.83386ZM18.009 16.7972L17.2496 17.5566C16.4409 18.3482 14.3297 17.4446 12.4692 15.5442C10.6087 13.6438 9.79233 11.5118 10.5707 10.7201L11.3301 9.96069C11.4789 9.82708 11.6725 9.75414 11.8725 9.75625C12.0724 9.75836 12.2644 9.83537 12.4104 9.97208L13.5191 11.1112C13.6071 11.202 13.6706 11.3138 13.7036 11.436C13.7366 11.5581 13.7379 11.6867 13.7076 11.8095C13.6772 11.9323 13.6161 12.0454 13.53 12.1381C13.4439 12.2309 13.3356 12.3001 13.2153 12.3395C13.0371 12.3942 12.8867 12.5154 12.7955 12.6781C12.7043 12.8407 12.6792 13.0322 12.7255 13.2128C12.9154 14.0557 13.9861 15.1113 14.7835 15.3182C14.9632 15.3611 15.1525 15.3369 15.3157 15.2502C15.4789 15.1635 15.6049 15.0203 15.6701 14.8474C15.7122 14.7268 15.7846 14.6191 15.8805 14.5346C15.9763 14.4501 16.0922 14.3917 16.2171 14.365C16.342 14.3383 16.4717 14.3442 16.5937 14.3821C16.7157 14.4201 16.8259 14.4888 16.9136 14.5816L18.0204 15.7207C18.1533 15.8691 18.2259 16.0619 18.2238 16.2612C18.2217 16.4604 18.1451 16.6516 18.009 16.7972ZM15.1917 10.441C15.1161 10.4406 15.0407 10.4451 14.9657 10.4543C14.9327 10.4579 14.8993 10.455 14.8674 10.4457C14.8355 10.4364 14.8057 10.4209 14.7798 10.4001C14.7539 10.3793 14.7323 10.3536 14.7163 10.3244C14.7004 10.2953 14.6903 10.2633 14.6867 10.2303C14.683 10.1972 14.686 10.1638 14.6953 10.1319C14.7046 10.1 14.7201 10.0703 14.7409 10.0443C14.7617 10.0184 14.7874 9.99686 14.8165 9.98088C14.8456 9.96489 14.8776 9.95481 14.9107 9.95119C15.0039 9.94045 15.0978 9.93538 15.1917 9.93601C15.8635 9.9355 16.5081 10.2018 16.9837 10.6763C17.4593 11.1509 17.727 11.7948 17.728 12.4667C17.7287 12.5606 17.7236 12.6544 17.7129 12.7477C17.7092 12.7807 17.6992 12.8127 17.6832 12.8418C17.6672 12.871 17.6456 12.8967 17.6197 12.9175C17.5938 12.9383 17.564 12.9538 17.5321 12.9631C17.5002 12.9724 17.4668 12.9753 17.4338 12.9717C17.4007 12.9681 17.3687 12.958 17.3396 12.942C17.3105 12.926 17.2848 12.9045 17.264 12.8786C17.2432 12.8526 17.2277 12.8229 17.2184 12.791C17.2091 12.7591 17.2061 12.7257 17.2098 12.6926C17.218 12.6176 17.2225 12.5422 17.223 12.4667C17.222 11.9288 17.0075 11.4133 16.6266 11.0334C16.2457 10.6536 15.7296 10.4405 15.1917 10.441ZM16.7105 12.4667C16.705 12.5301 16.6759 12.5892 16.629 12.6322C16.582 12.6753 16.5207 12.6991 16.457 12.6991C16.3933 12.6991 16.332 12.6753 16.2851 12.6322C16.2381 12.5892 16.209 12.5301 16.2036 12.4667C16.2036 12.1983 16.0969 11.9409 15.9072 11.7512C15.7174 11.5614 15.46 11.4548 15.1917 11.4548C15.1565 11.4578 15.1212 11.4536 15.0878 11.4422C15.0544 11.4308 15.0237 11.4127 14.9978 11.3888C14.9718 11.365 14.951 11.336 14.9368 11.3038C14.9226 11.2715 14.9153 11.2366 14.9153 11.2014C14.9153 11.1661 14.9226 11.1312 14.9368 11.0989C14.951 11.0667 14.9718 11.0377 14.9978 11.0139C15.0237 10.99 15.0544 10.9719 15.0878 10.9605C15.1212 10.9492 15.1565 10.9449 15.1917 10.9479C15.5945 10.9479 15.9808 11.1079 16.2656 11.3927C16.5504 11.6776 16.7105 12.0639 16.7105 12.4667ZM18.6412 13.2887C18.6356 13.3233 18.6229 13.3562 18.604 13.3856C18.5851 13.415 18.5603 13.4402 18.5312 13.4596C18.5021 13.479 18.4693 13.4922 18.4349 13.4983C18.4005 13.5045 18.3651 13.5035 18.3311 13.4954C18.2971 13.4872 18.2651 13.4722 18.2372 13.4512C18.2092 13.4302 18.1859 13.4036 18.1687 13.3732C18.1515 13.3427 18.1407 13.3091 18.1371 13.2743C18.1335 13.2395 18.1371 13.2044 18.1476 13.171C18.2024 12.9416 18.2298 12.7064 18.2292 12.4705C18.2292 11.6649 17.9092 10.8923 17.3396 10.3226C16.7699 9.75294 15.9973 9.4329 15.1917 9.4329C15.1138 9.4329 15.0341 9.4329 14.9562 9.4329C14.9231 9.4354 14.8898 9.43133 14.8582 9.42095C14.8266 9.41056 14.7973 9.39406 14.7721 9.37237C14.7212 9.32858 14.6898 9.26636 14.6848 9.19939C14.6797 9.13242 14.7015 9.0662 14.7453 9.01528C14.7891 8.96437 14.8513 8.93294 14.9183 8.9279C15.0094 8.92031 15.1005 8.91651 15.1917 8.91651C16.1322 8.91802 17.0338 9.29272 17.6983 9.95835C18.3629 10.624 18.7361 11.5261 18.7361 12.4667C18.7362 12.7435 18.7044 13.0193 18.6412 13.2887Z" fill="#E9DACE"/>
</g>
<defs>
<clipPath id="clip0_80_1183">
<rect width="28.8571" height="28.8571" fill="white" transform="translate(0.0712891)"/>
</clipPath>
</defs>
</svg>
