<svg width="29" height="29" viewBox="0 0 29 29" fill="none" xmlns="http://www.w3.org/2000/svg">
<g clip-path="url(#clip0_80_1189)">
<path d="M14.4322 0H14.425C6.46941 0 0 6.47121 0 14.4286C0 17.5848 1.01721 20.5102 2.74684 22.8855L0.948679 28.2457L6.49466 26.4728C8.77618 27.9842 11.4978 28.8571 14.4322 28.8571C22.3877 28.8571 28.8571 22.3841 28.8571 14.4286C28.8571 6.47302 22.3877 0 14.4322 0Z" fill="#4CAF50"/>
<path d="M22.8281 20.3742C22.48 21.3571 21.0985 22.1724 19.9965 22.4104C19.2426 22.5709 18.2579 22.699 14.9429 21.3247C10.7027 19.568 7.97211 15.2593 7.75929 14.9797C7.55549 14.7002 6.0459 12.6982 6.0459 10.6277C6.0459 8.55719 7.09738 7.54899 7.52122 7.11614C7.86931 6.76083 8.44465 6.59851 8.99654 6.59851C9.17509 6.59851 9.33561 6.60753 9.4799 6.61474C9.90374 6.63278 10.1166 6.65803 10.3961 7.32715C10.7442 8.16581 11.5919 10.2363 11.6929 10.4491C11.7957 10.662 11.8985 10.9505 11.7542 11.2301C11.6189 11.5187 11.4999 11.6467 11.2871 11.892C11.0743 12.1373 10.8723 12.3249 10.6594 12.5882C10.4646 12.8172 10.2446 13.0625 10.4899 13.4864C10.7352 13.9012 11.5829 15.2845 12.8309 16.3955C14.4415 17.8293 15.7473 18.2875 16.2144 18.4822C16.5625 18.6265 16.9773 18.5923 17.2316 18.3217C17.5545 17.9736 17.9531 17.3965 18.3589 16.8284C18.6475 16.4208 19.0118 16.3703 19.3941 16.5145C19.7837 16.6498 21.8452 17.6688 22.269 17.8798C22.6929 18.0927 22.9724 18.1937 23.0752 18.3722C23.1762 18.5508 23.1762 19.3894 22.8281 20.3742Z" fill="#FAFAFA"/>
</g>
<defs>
<clipPath id="clip0_80_1189">
<rect width="28.8571" height="28.8571" fill="white"/>
</clipPath>
</defs>
</svg>
