<svg width="45" height="45" viewBox="0 0 45 45" fill="none" xmlns="http://www.w3.org/2000/svg">
<g clip-path="url(#clip0_80_1269)">
<path fill-rule="evenodd" clip-rule="evenodd" d="M22.6093 0.332642C26.7647 0.38006 30.5186 1.40133 33.8712 3.39645C37.1838 5.35173 39.9394 8.12417 41.8745 11.4486C43.8574 14.8214 44.8726 18.5981 44.9198 22.7788C44.8021 28.499 42.9979 33.3846 39.5073 37.4356C36.0166 41.4866 31.546 43.9928 26.918 44.9535V28.9159H31.2934L32.2829 22.6135H25.6575V18.4856C25.6207 17.6299 25.8914 16.7892 26.4205 16.1156C26.9503 15.4402 27.8833 15.0852 29.2196 15.0506H33.2204V9.52989C33.163 9.51142 32.6183 9.43838 31.5863 9.31078C30.4159 9.17384 29.2389 9.1007 28.0605 9.09167C25.3935 9.10398 23.2843 9.85629 21.7328 11.3486C20.1813 12.8405 19.3887 14.9989 19.3551 17.8239V22.6135H14.3132V28.9159H19.3551V44.9535C13.6726 43.9928 9.20198 41.4866 5.71135 37.4356C2.22072 33.3846 0.416611 28.499 0.298828 22.7788C0.345952 18.5979 1.36105 14.8212 3.34411 11.4486C5.2792 8.12417 8.0348 5.35174 11.3474 3.39645C14.6999 1.40171 18.4539 0.380444 22.6093 0.332642Z" fill="#434341"/>
</g>
<defs>
<clipPath id="clip0_80_1269">
<rect width="45" height="45" fill="white"/>
</clipPath>
</defs>
</svg>
