<svg width="33" height="40" viewBox="0 0 33 40" fill="none" xmlns="http://www.w3.org/2000/svg">
<g clip-path="url(#clip0_123_414)">
<path d="M8.13018 36.445C7.70368 36.445 7.34719 36.1128 7.32457 35.684L6.89053 27.6234C6.82375 26.5966 7.1921 25.5967 7.92878 24.8154C8.73978 23.9537 9.91589 23.4607 11.1534 23.4607H20.5278C20.9737 23.4607 21.3356 23.8208 21.3356 24.2645C21.3356 24.7082 20.9737 25.0683 20.5278 25.0683H11.1534C10.3596 25.0683 9.61432 25.377 9.10704 25.915C8.67946 26.3684 8.46514 26.9417 8.50283 27.5291L8.93795 35.5983C8.96165 36.042 8.62023 36.4203 8.17434 36.4439C8.15926 36.4439 8.14526 36.445 8.13018 36.445Z" fill="#434341"/>
<path d="M16.6081 21.4972C13.7465 21.4972 11.418 18.7771 11.418 15.4322C11.418 12.0872 13.7465 9.36713 16.6081 9.36713C19.4698 9.36713 21.7983 12.0872 21.7983 15.4322C21.7983 18.7771 19.4698 21.4972 16.6081 21.4972ZM16.6081 10.9748C14.6372 10.9748 13.0335 12.9747 13.0335 15.4322C13.0335 17.8897 14.6372 19.8896 16.6081 19.8896C18.5791 19.8896 20.1828 17.8897 20.1828 15.4322C20.1828 12.9747 18.5791 10.9748 16.6081 10.9748Z" fill="#434341"/>
<path d="M28.704 36.5318H4.29214C3.84625 36.5318 3.48438 36.1717 3.48438 35.728V4.27305C3.48438 3.82935 3.84625 3.46924 4.29214 3.46924H28.705C29.1509 3.46924 29.5128 3.82935 29.5128 4.27305V35.728C29.5128 36.1717 29.1509 36.5318 28.705 36.5318H28.704ZM5.09991 34.9241H27.8973V5.07687H5.09991V34.9241Z" fill="#434341"/>
<path d="M20.5926 36.5318H12.7766C12.4503 36.5318 12.1552 36.3357 12.0302 36.0356C11.9053 35.7355 11.9742 35.3893 12.2058 35.16L28.1339 19.3098C28.3644 19.0794 28.7122 19.0108 29.0138 19.1351C29.3154 19.2594 29.5125 19.5531 29.5125 19.8778V27.6545C29.5125 27.8677 29.4274 28.0724 29.2755 28.2225L21.1634 36.296C21.0115 36.4471 20.8069 36.5318 20.5926 36.5318ZM14.7271 34.9242H20.2587L27.898 27.3211V21.8177L14.7271 34.9242Z" fill="#434341"/>
<path d="M32.1922 40H0.807768C0.36188 40 0 39.641 0 39.1962V0.803815C0 0.360109 0.36188 0 0.807768 0H32.1922C32.6381 0 33 0.360109 33 0.803815V39.1962C33 39.6399 32.6381 40 32.1922 40ZM1.61554 38.3924H31.3845V1.60763H1.61554V38.3924Z" fill="#434341"/>
<path d="M32.1923 40C31.9855 40 31.7787 39.9218 31.6214 39.7642L28.1351 36.2949C27.8195 35.9809 27.8195 35.4718 28.1351 35.1578C28.4507 34.8438 28.9623 34.8438 29.2778 35.1578L32.7642 38.6271C33.0797 38.9411 33.0797 39.4502 32.7642 39.7642C32.6069 39.9207 32.4001 40 32.1933 40H32.1923Z" fill="#434341"/>
<path d="M0.807498 40C0.60071 40 0.393921 39.9218 0.236676 39.7642C-0.078892 39.4502 -0.078892 38.9411 0.236676 38.6271L3.723 35.1578C4.03857 34.8438 4.55016 34.8438 4.86572 35.1578C5.18129 35.4718 5.18129 35.9809 4.86572 36.2949L1.3794 39.7642C1.22215 39.9207 1.01536 40 0.808575 40H0.807498Z" fill="#434341"/>
<path d="M4.29382 5.07706C4.08704 5.07706 3.88025 4.99882 3.723 4.84127L0.236676 1.372C-0.078892 1.05798 -0.078892 0.549969 0.236676 0.235945C0.552244 -0.0780787 1.06383 -0.0780787 1.3794 0.235945L4.86572 3.70521C5.18129 4.01924 5.18129 4.52832 4.86572 4.84234C4.70848 4.99882 4.50169 5.07813 4.2949 5.07813L4.29382 5.07706Z" fill="#434341"/>
<path d="M28.7059 5.07687C28.4991 5.07687 28.2924 4.99864 28.1351 4.84109C27.8195 4.52706 27.8195 4.01798 28.1351 3.70396L31.6214 0.235762C31.937 -0.0782618 32.4486 -0.0782618 32.7642 0.235762C33.0797 0.549786 33.0797 1.05887 32.7642 1.37289L29.2778 4.84216C29.1206 4.99864 28.9138 5.07795 28.707 5.07795L28.7059 5.07687Z" fill="#434341"/>
</g>
<defs>
<clipPath id="clip0_123_414">
<rect width="33" height="40" fill="white"/>
</clipPath>
</defs>
</svg>
