<svg width="90" height="97" viewBox="0 0 90 97" fill="none" xmlns="http://www.w3.org/2000/svg">
<path d="M80.4983 66.7638C75.4915 76.3698 66.6627 83.8372 55.7742 86.9171L55.7173 86.9644L55.6415 86.9455C52.0594 87.9532 48.4394 88.4554 44.8858 88.4554C29.3981 88.4554 15.9226 79.6391 9.23534 66.7638H8.61621C15.3634 79.9519 29.0917 88.9987 44.8858 88.9987C48.4868 88.9987 52.1542 88.487 55.7837 87.4699V87.4604L55.9164 87.432V87.4414C55.9164 87.4414 55.9353 87.432 55.9448 87.432L56.0111 87.4225L56.0206 87.413C67.108 84.2384 76.0696 76.5814 81.1048 66.767H80.4951L80.4983 66.7638ZM44.8858 7.53912C41.2847 7.53912 37.6173 8.05084 33.9878 9.05851V9.06798L33.8552 9.09641H33.8457L33.7604 9.11537L33.7509 9.12484C22.6256 12.2995 13.645 20.0038 8.61937 29.8593H9.22902C14.2357 20.2155 23.0741 12.6975 34.0099 9.6113L34.0573 9.57339L34.1331 9.58287C37.7247 8.58468 41.3352 8.07296 44.8889 8.07296C60.4145 8.07296 73.9185 16.9398 80.6057 29.8593H81.2058C74.4681 16.6239 60.7209 7.53912 44.8889 7.53912H44.8858ZM76.2907 66.7638H64.4136L64.2904 66.8586C62.9416 72.1591 61.0115 77.2163 58.5603 81.9103L58.9014 82.2799C66.1604 79.2759 72.3927 73.8711 76.4613 67.067L76.2907 66.7638ZM59.3847 81.4934C61.6559 77.0173 63.4691 72.2096 64.7547 67.2029H75.7569C71.8715 73.5016 66.0941 78.5493 59.3847 81.4934ZM60.5819 66.7638H46.7463L46.5757 66.9249V84.6933L46.86 84.9681C49.1123 84.8449 51.2982 84.5322 53.3514 84.0457L53.522 83.9225C56.7061 78.6789 59.1478 72.9867 60.762 66.9912L60.5819 66.7638ZM53.124 83.5466C51.2129 83.992 49.2007 84.2889 47.119 84.4121V67.1934H60.1555C58.5603 72.9709 56.1943 78.4735 53.124 83.5466ZM52.6786 12.3847L52.508 12.2615C50.7991 11.9109 48.9543 11.674 46.8727 11.5666L46.5884 11.8319V29.6003L46.8348 29.8562L46.8537 29.8751H60.2029L60.2218 29.8562L60.4682 29.534C58.7214 23.4627 56.0964 17.6947 52.6754 12.3816L52.6786 12.3847ZM47.119 29.3381V12.1194C49.0206 12.2331 50.7106 12.4416 52.2869 12.767C55.5847 17.9064 58.1307 23.4848 59.8396 29.3381H47.1159H47.119ZM43.0221 66.7638H29.4928L29.3128 67.0007C31.0596 73.072 33.6751 78.84 37.0961 84.1436L37.2667 84.2668C38.9756 84.6269 40.8204 84.8544 42.9115 84.9712L43.1958 84.6964V66.9281L43.0252 66.767L43.0221 66.7638ZM42.6525 84.409C40.7509 84.2952 39.0609 84.0868 37.4941 83.7614C34.1963 78.622 31.6503 73.053 29.9319 67.1902H42.6556V84.409H42.6525ZM42.9083 11.5698C40.6751 11.6835 38.4892 11.9962 36.417 12.4921L36.2464 12.6059C33.0528 17.8495 30.6205 23.5512 29.0064 29.5371L29.2528 29.8593L29.2622 29.8783H42.9178L43.1926 29.6035V11.8351L42.9083 11.5698ZM42.6525 29.3381H29.616C31.2112 23.5606 33.5772 18.058 36.6476 12.9849C38.5776 12.5395 40.5898 12.2426 42.6525 12.1194V29.3381ZM25.7781 66.8586L25.6549 66.7638H13.4839L13.3134 67.067C17.5146 74.0986 24.0218 79.6012 31.625 82.5547L31.9567 82.1757C29.3254 77.4343 27.2532 72.2759 25.7812 66.8586H25.7781ZM14.0146 67.1934H25.3137C26.7194 72.3423 28.6779 77.2384 31.1196 81.7777C24.0786 78.8716 18.0358 73.7195 14.0178 67.1934H14.0146ZM30.8701 14.2579C23.6206 17.2525 17.3788 22.6572 13.3102 29.4708L13.5282 29.8593L13.5376 29.8688H25.2253L25.2348 29.8593L25.4811 29.6698C26.83 24.3693 28.76 19.3026 31.2112 14.6275L30.8701 14.2579ZM25.0168 29.3381H14.0146C17.9 23.03 23.6775 17.9916 30.3868 15.0476C28.1156 19.5142 26.3119 24.3219 25.0168 29.3381Z" fill="#434341"/>
<path d="M13.4026 17.5747L9.60256 14.2484L9.21402 14.6844L10.506 18.5887L6.45006 17.8274L6.06152 18.2728L9.85211 21.6085L10.307 21.0873L7.56196 18.6739L11.0493 19.312L11.2767 19.0656L10.1743 15.6731L12.9477 18.0959L13.4026 17.5747Z" fill="#434341"/>
<path d="M15.484 13.4587L14.9154 9.63973L14.3658 10.0946L14.8206 13.1744L11.8766 12.1573L11.2891 12.6501L14.928 13.9041L16.0494 15.2529L16.599 14.7981L15.4871 13.4587H15.484Z" fill="#434341"/>
<path d="M22.3358 10.8085L23.0497 10.3536L19.6287 9.23224L20.2383 6.15239L19.5434 6.59778L18.7347 10.4452L17.2248 8.06032L16.6152 8.43938L19.3128 12.7164L19.9225 12.3279L19.218 11.2255L19.5023 9.94297L22.3326 10.8085H22.3358Z" fill="#434341"/>
<path d="M26.3633 3.27155L25.7062 3.56532L26.5812 5.54274L23.931 6.72098L23.0465 4.73408L22.3895 5.02785L24.4332 9.64604L25.0997 9.35227L24.1868 7.29904L26.8371 6.1208L27.75 8.18351L28.407 7.88974L26.3633 3.27155Z" fill="#434341"/>
<path d="M31.3696 1.67634L30.6842 1.86587L29.8281 7.3401L30.542 7.15058L30.741 5.78281L33.3249 5.05944L34.1999 6.13344L34.9328 5.93443L31.3696 1.67634ZM30.8295 5.1542L31.218 2.485L32.9269 4.57614L30.8263 5.15736L30.8295 5.1542Z" fill="#434341"/>
<path d="M36.3704 0.602348L35.666 0.725542L36.4936 5.70384L37.2075 5.58065L36.3704 0.602348Z" fill="#434341"/>
<path d="M42.9442 4.37398L40.2181 4.57298L39.8865 0.163272L39.1631 0.220131L39.5421 5.25529L42.9821 4.99942L42.9442 4.37082V4.37398Z" fill="#434341"/>
<path d="M49.3408 1.39205C49.1323 0.99404 48.8291 0.668682 48.4374 0.422295C48.0393 0.175907 47.5908 0.0337599 47.0885 0.00533051C46.5768 -0.0230989 46.1093 0.0621892 45.6923 0.261195C45.2754 0.4602 44.9311 0.75397 44.6752 1.13619C44.4193 1.51525 44.2772 1.95432 44.2582 2.43762C44.2298 2.92092 44.3151 3.36947 44.5236 3.76748C44.7415 4.17497 45.0353 4.50981 45.4365 4.75619C45.8345 5.00258 46.283 5.13525 46.7948 5.16368C47.297 5.19211 47.7645 5.10682 48.1815 4.90782C48.5985 4.70881 48.9428 4.42452 49.1892 4.0423C49.445 3.66324 49.5872 3.22417 49.6156 2.74087C49.644 2.24809 49.5493 1.79954 49.3408 1.39205ZM48.5795 3.67272C48.39 3.95701 48.1436 4.17497 47.8372 4.32975C47.5339 4.48138 47.1991 4.54771 46.8295 4.52876C46.4599 4.50981 46.1251 4.39609 45.8313 4.21604C45.547 4.03598 45.3291 3.78959 45.1648 3.48319C45.0132 3.17994 44.9469 2.83563 44.9658 2.47553C44.9942 2.10594 45.089 1.78059 45.2785 1.49629C45.4681 1.212 45.7145 0.994041 46.0303 0.839259C46.3336 0.687635 46.6779 0.630777 47.0475 0.649729C47.4171 0.668682 47.7424 0.772923 48.0267 0.952976C48.3205 1.14251 48.5384 1.38889 48.6932 1.6953C48.8448 1.99854 48.9112 2.33338 48.8922 2.69348C48.8733 3.06307 48.769 3.38842 48.5795 3.67272Z" fill="#434341"/>
<path d="M57.6833 6.41774L59.0321 2.20703L58.3467 1.9796L56.7988 6.79679L60.0872 7.85184L60.2862 7.25166L57.6833 6.41458V6.41774Z" fill="#434341"/>
<path d="M66.1293 4.96468L63.5738 6.74309L63.1758 3.65377L62.4619 3.34104L62.9642 7.16005L62.2598 8.77421L62.9073 9.0585L63.6212 7.4633L66.7864 5.24897L66.1293 4.96468Z" fill="#434341"/>
<path d="M72.76 8.78369L69.1116 10.6948L69.2158 6.56304L68.7135 6.25032L66.0254 10.5274L66.6129 10.8969L68.5619 7.79814L68.4861 11.3518L68.7704 11.5224L71.945 9.89875L69.996 13.0165L70.5836 13.3861L73.2622 9.09957L72.76 8.78685V8.78369Z" fill="#434341"/>
<path d="M76.838 11.9583L71.8029 14.2864L72.362 14.7696L73.6065 14.1821L75.6408 15.9384L75.2333 17.2493L75.8114 17.7516L77.3782 12.429L76.838 11.9551V11.9583ZM75.8303 15.3319L74.1783 13.9073L76.6201 12.748L75.8303 15.3319Z" fill="#434341"/>
<path d="M81.9494 17.0029L80.648 15.5214L76.8574 18.8666L77.3312 19.4068L78.4905 18.3897L79.3181 19.3215C79.3655 19.3784 79.4413 19.4542 79.5361 19.5489L79.0907 21.3937L79.6119 21.9812L80.0857 19.9659C80.4174 20.146 80.7522 20.2218 81.0839 20.1839C81.4156 20.146 81.7315 20.0038 82.0253 19.7385C82.4327 19.3784 82.6349 18.9582 82.6254 18.4655C82.6065 17.9822 82.3885 17.4862 81.9494 17.0029ZM81.5514 19.1983C81.2766 19.4447 80.9828 19.5395 80.6764 19.4921C80.3637 19.4447 80.0573 19.2457 79.7635 18.9045L78.9454 17.9822L80.6448 16.4817L81.463 17.4041C81.7662 17.7453 81.9179 18.0706 81.9368 18.3739C81.9463 18.6866 81.8136 18.9614 81.5483 19.2015L81.5514 19.1983Z" fill="#434341"/>
<path d="M13.2506 79.1274L11.9018 77.8165L8.5282 81.2659L9.0115 81.7492L10.0476 80.6942L10.8942 81.5313C10.951 81.5881 11.0268 81.6545 11.1216 81.7397L10.8373 83.5276L11.368 84.0488L11.6807 82.0904C12.0124 82.242 12.3377 82.2894 12.6505 82.2325C12.9632 82.1757 13.2506 82.0051 13.516 81.7397C13.8761 81.3702 14.0372 80.95 13.9898 80.4857C13.9424 80.0214 13.696 79.5633 13.2475 79.1274H13.2506ZM13.0232 81.2659C12.7768 81.5123 12.502 81.626 12.2051 81.5976C11.9113 81.5692 11.6049 81.4081 11.2922 81.1048L10.4551 80.2772L11.9745 78.7294L12.8116 79.5475C13.1243 79.8508 13.2949 80.1572 13.3328 80.451C13.3612 80.7447 13.2569 81.0101 13.02 81.2691L13.0232 81.2659Z" fill="#434341"/>
<path d="M19.6346 85.0755L19.9852 84.5922L17.2118 82.6053L14.4099 86.5285L17.2592 88.5723L17.6003 88.089L15.3102 86.4464L16.2231 85.1829L18.191 86.5885L18.5322 86.1147L16.5642 84.709L17.4297 83.5024L19.6346 85.0786V85.0755Z" fill="#434341"/>
<path d="M25.6676 88.2595C25.4876 87.8331 25.118 87.4698 24.5557 87.1855L22.8752 86.339L20.6893 90.6444L21.3085 90.9572L21.975 89.6557L23.0395 90.1864C23.5986 90.4707 24.104 90.5655 24.5589 90.4612C25.0138 90.357 25.3581 90.0727 25.595 89.5957C25.8319 89.1314 25.8603 88.6828 25.6708 88.2564L25.6676 88.2595ZM24.9758 89.283C24.8242 89.5957 24.5968 89.7853 24.3093 89.8516C24.0156 89.9084 23.6807 89.8421 23.2827 89.6431L22.2372 89.1124L23.2164 87.1824L24.2714 87.7131C24.66 87.9121 24.9095 88.1395 25.0327 88.408C25.1559 88.6828 25.1369 88.9766 24.9758 89.283Z" fill="#434341"/>
<path d="M31.104 89.8737L30.4564 89.6652L26.8553 93.56L27.5313 93.778L28.4158 92.7988L30.8481 93.6169L30.9713 94.9278L31.6662 95.1552L31.1071 89.8737H31.104ZM28.8138 92.3534L30.5512 90.4328L30.7976 93.0072L28.8107 92.3502L28.8138 92.3534Z" fill="#434341"/>
<path d="M35.0844 91.014L34.9707 91.6142L36.6038 91.908L35.8425 96.0713L36.5185 96.1945L37.2798 92.0312L38.9034 92.325L39.0172 91.7374L35.0844 91.014Z" fill="#434341"/>
<path d="M45.4516 94.7951C45.6506 94.5393 45.7454 94.2266 45.7643 93.8538C45.7833 93.3326 45.6127 92.9125 45.2716 92.5998C44.9209 92.287 44.4345 92.1165 43.809 92.0975L41.9264 92.0312L41.7558 96.8579L42.4507 96.8863L42.4981 95.4143L43.6953 95.4617C43.7616 95.4617 43.8659 95.4617 43.9891 95.4522L44.9873 96.9716L45.7391 97L44.6461 95.3385C44.9967 95.2342 45.2652 95.0542 45.4548 94.7983L45.4516 94.7951ZM43.6953 94.871L42.5171 94.8331L42.5929 92.6566L43.7711 92.6945C44.1976 92.7135 44.5324 92.8177 44.7598 93.0073C44.9778 93.2063 45.082 93.4716 45.0726 93.8254C45.0631 94.176 44.9399 94.4445 44.703 94.6246C44.4661 94.8046 44.1344 94.8899 43.6953 94.871Z" fill="#434341"/>
<path d="M49.8142 91.8985L49.1288 91.9649L49.5647 96.7726L50.2502 96.7157L49.8142 91.8985Z" fill="#434341"/>
<path d="M55.5251 90.9667L54.8491 91.1183L53.7656 96.3051L54.4606 96.1534L54.7164 94.852L57.2245 94.3024L58.0048 95.3669L58.7092 95.2058L55.5251 90.9667ZM54.8301 94.2645L55.3324 91.7279L56.8613 93.8191L54.827 94.2645H54.8301Z" fill="#434341"/>
<path d="M63.4945 89.0366L63.286 88.4775L59.5428 89.8832L59.7608 90.4518L61.3086 89.8642L62.7996 93.8254L63.4377 93.579L61.9467 89.6273L63.4945 89.0398V89.0366Z" fill="#434341"/>
<path d="M66.5656 86.8697L65.9559 87.1824L68.1608 91.4784L68.7799 91.1657L66.5656 86.8697Z" fill="#434341"/>
<path d="M75.0213 84.3711C74.756 83.9825 74.4211 83.6951 74.0231 83.515C73.6346 83.335 73.2145 83.2686 72.7691 83.316C72.3237 83.3634 71.9036 83.5245 71.5055 83.7993C71.1075 84.0836 70.8106 84.4184 70.6116 84.8164C70.4126 85.2145 70.3273 85.6346 70.3557 86.0705C70.3936 86.5064 70.5453 86.9171 70.8011 87.2961C71.0665 87.6846 71.4013 87.9626 71.7993 88.1427C72.1973 88.3322 72.6269 88.3985 73.0628 88.3512C73.5082 88.3038 73.9284 88.1332 74.3264 87.8584C74.7244 87.5836 75.0213 87.2487 75.2203 86.8507C75.4193 86.4527 75.5046 86.0326 75.4762 85.5967C75.4383 85.1608 75.2867 84.7501 75.0213 84.3711ZM74.6328 86.6138C74.4906 86.9076 74.2727 87.154 73.9852 87.3561C73.6914 87.5551 73.3756 87.6783 73.0534 87.7068C72.7217 87.7352 72.4058 87.6878 72.112 87.5457C71.8183 87.413 71.5719 87.195 71.3697 86.9076C71.1707 86.6233 71.057 86.3074 71.0286 85.9852C71.0001 85.663 71.057 85.3471 71.2086 85.0534C71.3508 84.7596 71.5687 84.5132 71.8562 84.3016C72.1499 84.1026 72.4563 83.9888 72.7785 83.9604C73.1102 83.932 73.4166 83.9794 73.7104 84.1215C74.0042 84.2636 74.2506 84.4721 74.4527 84.7596C74.6549 85.047 74.7749 85.3598 74.7939 85.682C74.8223 86.0042 74.7654 86.32 74.6328 86.6138Z" fill="#434341"/>
<path d="M82.4066 80.8458L79.014 77.4059L78.5213 77.8892L81.0578 80.4541L76.4586 79.9234L76.0605 80.3214L79.4531 83.7614L79.9459 83.2781L77.4094 80.7131L82.0086 81.2438L82.4066 80.8458Z" fill="#434341"/>
<path d="M58.1501 13.9831L57.8184 14.3622C60.4497 19.1035 62.5314 24.2524 64.0034 29.6793L64.2308 29.8593H64.2403L64.2687 29.8783H76.2312L76.2406 29.8593L76.4586 29.4708C72.2574 22.4298 65.7502 16.9271 58.1469 13.9831H58.1501ZM58.6555 14.7602C65.6965 17.6663 71.7393 22.8088 75.7573 29.335H64.4677C63.0526 24.1956 61.0941 19.2899 58.6523 14.7602H58.6555Z" fill="#434341"/>
<path d="M76.2543 29.8593L76.2443 29.8793H76.2343L76.2443 29.8593H76.2543Z" fill="white"/>
<path d="M71.1613 56.5229V64.1325H48.9169V45.3091H54.1984V37.7753H48.9169V31.8462H59.0819V56.5229H71.1613Z" fill="#434341"/>
<path d="M35.6372 37.7785V45.3123H41.0261V64.1325H31.4296V46.0325C31.4391 44.4752 31.477 42.7726 31.5718 40.9405L31.6476 39.459H31.3633C30.8705 41.986 30.4883 43.7455 30.2135 44.7216L29.8723 46.0325L29.7397 46.5726L28.8647 49.9652L28.7225 50.4959L27.5632 55.0193L27.1842 56.4818L25.2162 64.1293H15.6292L15.3923 63.2638L15.2502 62.7331L11.9239 50.4959L11.7818 49.9652L10.8499 46.5726L10.7078 46.0325L10.414 44.949C10.2813 44.532 9.9781 43.0758 9.50111 40.5867C9.43478 40.236 9.36844 39.8538 9.29263 39.4558H9.01781C9.02729 39.6832 9.03677 39.9107 9.04624 40.1318C9.08415 40.9784 9.12206 41.7649 9.15049 42.4977C9.20734 43.8845 9.25473 45.0627 9.29263 46.0325C9.29263 46.222 9.30211 46.4021 9.31159 46.5726C9.34001 47.6371 9.35897 48.4174 9.35897 48.9102V64.1325H0.384766V31.8462H15.6734L16.0525 33.2614L16.1946 33.8015L19.4451 46.0293L19.5872 46.5695L20.3295 49.3619C20.3769 49.504 20.4243 49.703 20.4812 49.962C20.5096 50.1137 20.5475 50.2937 20.5854 50.4927C20.6423 50.796 20.7086 51.1592 20.7749 51.5667C20.9455 52.6691 21.0592 53.5252 21.1066 54.1222H21.2582C21.3814 53.0577 21.5804 51.851 21.8458 50.4927C21.8742 50.3221 21.9026 50.1421 21.9405 49.962C21.9879 49.7441 22.0258 49.5166 22.0732 49.2861L22.7587 46.5695L23.3273 44.2509L26.4355 31.8399H41.0198V37.7722H35.6309L35.6372 37.7785Z" fill="#434341"/>
<path d="M52.3034 39.5916V43.5054H47.0218V64.1325H42.9248V43.5054H37.5391V39.5916H42.9248V31.7325H47.0218V39.5916H52.3034Z" fill="#434341"/>
<path d="M86.6011 55.8374C86.2031 54.8393 85.764 53.9737 85.2997 53.244C85.1481 52.9977 84.987 52.7607 84.8259 52.5491C84.57 52.208 84.3141 51.8921 84.0362 51.6267C83.0854 50.6854 81.8976 50.0126 80.4635 49.5925V49.4977C82.3272 49.0144 83.8656 48.3195 85.0628 47.4066C85.2523 47.2739 85.4229 47.1317 85.5934 46.9706C85.8588 46.7432 86.0957 46.4968 86.3263 46.2378C87.6372 44.7468 88.2848 42.8926 88.2848 40.6688C88.2848 37.7248 87.1634 35.5104 84.9111 34.0448C84.2541 33.6088 83.4865 33.2361 82.6115 32.9234C82.403 32.8476 82.1756 32.7812 81.945 32.7149C79.9486 32.1147 77.4405 31.8209 74.4397 31.8209H60.9199V55.0161H71.1166V52.7165H71.5051C72.418 52.7165 73.2646 53.1051 74.0416 53.8758C74.8124 54.6655 75.4473 55.7206 75.9338 57.0883L77.9965 62.7331L78.1955 63.2638L78.4703 64.0251H89.9305L86.6043 55.8343L86.6011 55.8374ZM76.2244 44.8163C75.3968 45.5397 74.3038 45.9093 72.9361 45.9093H71.1103V38.5461H73.1919C74.6734 38.5461 75.7474 38.8683 76.4329 39.4874C77.1278 40.116 77.469 40.9689 77.469 42.0524C77.469 43.1358 77.0615 44.0772 76.2244 44.8163Z" fill="#434341"/>
</svg>
