<svg width="487" height="343" viewBox="0 0 487 343" fill="none" xmlns="http://www.w3.org/2000/svg">
<g opacity="0.05" clip-path="url(#clip0_123_15)">
<path d="M486.986 320.188L486.903 319.772L486.861 319.619L486.543 319.134V319.106L486.127 318.829L481.762 316.666V309.704L481.276 308.553L480.14 308.095H469.843V177.907H472.255C477.507 177.907 481.762 173.649 481.762 168.421C481.762 163.179 477.507 158.922 472.255 158.922H467.861C469.095 157.411 469.843 155.469 469.843 153.347C469.843 148.508 465.907 144.569 461.071 144.569H447.739C448.584 143.363 449.097 141.879 449.097 140.27C449.097 136.11 445.73 132.754 441.572 132.754H427.991C424.124 119.802 416.876 108.236 407.217 99.0005C392.444 84.8833 372.044 76.1467 349.538 76.1467H283.974C285.179 75.6475 286.343 75.0096 287.452 74.2469C291.928 71.196 295.601 66.2453 298.179 60.102C300.756 53.9587 302.239 46.6227 302.239 38.7182C302.239 28.2066 299.606 18.6519 295.241 11.621C293.051 8.09866 290.432 5.21421 287.452 3.18955C284.473 1.13715 281.119 -0.013855 277.571 -0.013855L275.451 0.124821L274.716 -0.013855L131.863 8.30668C131.004 8.36215 130.339 9.05552 130.339 9.91531V70.9325L129.978 71.0851L130.339 71.1822V73.5674L129.978 73.7199L130.339 73.817V76.1467C127.636 76.1467 124.92 76.1606 121.747 76.1606H117.173C116.453 75.6475 115.483 75.5227 114.637 75.9665L114.36 76.1606H90.7036C66.2018 76.1606 45.4696 91.7893 38.8453 113.27H30.35L28.7286 113.548C25.7213 113.894 23.3931 116.404 23.3931 119.511L23.6148 121.036H17.5587C15.8264 121.036 14.2742 121.743 13.124 122.867L11.9183 122.742H11.752C8.42594 122.742 5.7374 125.446 5.7374 128.76C5.7374 129.786 6.01457 130.743 6.45804 131.589C4.64258 132.81 3.4369 134.89 3.4369 137.219C3.4369 140.991 6.48576 144.015 10.2137 144.015H11.2392V228.274H5.05834L3.92194 228.745L3.45076 229.882V235.208H1.60758L0.471188 235.679L0 236.816V250.67L0.98395 252.154L213.06 342.875H213.101L213.628 343H485.392L486.529 342.542L487 341.405V320.188H486.986ZM478.519 311.327V319.481H339.504C337.855 319.481 336.192 319.453 334.502 319.439C324.316 319.411 313.437 319.37 302.572 319.342C291.707 319.37 280.828 319.411 270.642 319.453C268.993 319.453 267.371 319.481 265.764 319.495H220.557V311.34H478.519V311.327ZM214.002 318.676L169.406 300.829C176.404 303.63 182.987 306.237 189.002 308.636C199.742 312.838 208.597 316.305 214.612 318.662H214.002V318.676ZM6.66592 235.346C11.1699 237.204 22.8665 241.975 38.6928 248.451C48.9342 252.57 60.8802 257.382 73.6854 262.54C86.5045 267.644 100.183 273.08 113.875 278.516C124.574 282.829 135.259 287.128 145.541 291.288L6.66592 235.748V235.346ZM9.02185 136.803C9.21587 135.819 9.93651 135.028 10.865 134.709L11.5164 134.779L229.662 169.434L229.912 169.461L231.713 169.156L232.462 170.987L232.711 172.027C232.711 173.539 231.506 174.773 229.995 174.814L12.0291 140.187L11.7797 140.159C10.6156 140.159 9.61777 139.438 9.20201 138.426L144.322 158.326L9.02185 136.803ZM393.469 208.915L393.428 209.012L393.594 209.164C399.276 209.358 404.972 209.58 410.668 209.719L409.919 239.077L409.476 267.131L380.47 266.687C375.315 266.618 370.159 266.631 365.004 266.59L349.538 266.507L318.62 266.34C309.265 266.312 299.897 266.215 290.543 266.271L290.265 211.549L305.51 211.466L307.048 210.912C308.087 210.052 308.24 208.512 307.367 207.472L307.145 207.195L306.341 206.335L306.078 205.975L305.953 205.878L305.815 205.101V204.976L306.119 204.214C306.812 203.049 308.586 201.773 310.429 200.858C314.185 198.958 318.509 197.765 322.833 196.794C327.17 195.838 331.619 195.2 336.081 194.742C340.558 194.271 345.006 194.049 349.538 193.952C358.518 193.855 367.582 194.201 376.451 195.754C380.872 196.545 385.293 197.557 389.353 199.402C391.349 200.317 393.372 201.426 394.62 203.173L395.257 204.56L395.229 206.141C394.952 207.181 394.259 208.055 393.469 208.887V208.915ZM282.851 234.75C284.001 234.819 285.553 234.916 287.397 235.013V238.286C286.08 238.3 284.777 238.314 283.502 238.314C279.373 238.383 275.506 238.508 272.208 238.591C268.909 238.661 266.152 238.813 264.225 238.882C262.285 238.98 261.19 239.035 261.19 239.035C261.19 239.035 262.285 239.104 264.225 239.188C266.152 239.271 268.909 239.423 272.208 239.493C275.506 239.562 279.373 239.701 283.502 239.756C284.777 239.77 286.08 239.77 287.397 239.798V242.474H287.314C285.221 242.53 283.447 242.641 282.075 242.724C281.285 242.641 280.26 242.53 279.054 242.446C276.199 242.252 272.402 242.127 268.591 242.114C264.78 242.114 260.969 242.252 258.128 242.446C256.7 242.53 255.508 242.682 254.677 242.751C253.845 242.849 253.374 242.918 253.374 242.918C253.374 242.918 253.845 242.987 254.677 243.07C255.508 243.154 256.7 243.292 258.128 243.376C260.982 243.584 264.794 243.722 268.591 243.722C272.388 243.722 276.199 243.584 279.054 243.376C280.26 243.292 281.285 243.181 282.075 243.112C283.447 243.168 285.221 243.292 287.314 243.376H287.383V249.949H286.718C284.736 249.99 282.837 250.032 281.049 250.087C280.01 250.018 278.707 249.907 277.225 249.852C275.257 249.782 272.956 249.658 270.489 249.574H270.365C271.695 249.505 272.831 249.408 273.677 249.38C274.869 249.283 275.534 249.214 275.534 249.214C275.534 249.214 274.855 249.158 273.677 249.061C272.485 248.992 270.794 248.825 268.757 248.77C266.734 248.701 264.35 248.548 261.8 248.507C259.25 248.451 256.534 248.437 253.818 248.409C251.101 248.423 248.385 248.437 245.835 248.507C243.285 248.562 240.915 248.687 238.878 248.756C236.855 248.812 235.136 248.978 233.958 249.047L232.434 249.172V226.124L287.369 225.902V234.167C285.526 234.237 283.96 234.362 282.81 234.431C281.41 234.528 280.62 234.597 280.62 234.597C280.62 234.597 281.41 234.639 282.81 234.736L282.851 234.75ZM262.119 255.024C258.363 255.052 254.608 255.052 251.101 255.135C247.581 255.177 244.297 255.302 241.497 255.385C238.684 255.454 236.342 255.607 234.693 255.69C233.612 255.745 232.864 255.787 232.462 255.815V249.269L233.986 249.394C235.164 249.45 236.869 249.588 238.906 249.685C240.943 249.741 243.313 249.893 245.863 249.949H246.611C245.406 250.046 244.352 250.129 243.562 250.171C242.412 250.24 241.761 250.323 241.761 250.323C241.761 250.323 242.412 250.406 243.562 250.476C244.713 250.531 246.362 250.698 248.33 250.767C250.298 250.836 252.598 250.989 255.065 251.03C257.532 251.086 260.165 251.1 262.784 251.127C265.403 251.1 268.036 251.086 270.503 251.03L271.917 250.989C273.192 251.044 274.633 251.114 276.199 251.141C279.289 251.197 282.879 251.335 286.745 251.391H287.397V255.565C286.066 255.496 284.514 255.413 282.768 255.371C279.941 255.302 276.67 255.177 273.164 255.121C269.644 255.052 265.888 255.038 262.147 255.01L262.119 255.024ZM313.852 288.403H267.87C268.05 287.003 268.66 285.741 269.63 284.77C270.767 283.633 272.332 282.926 274.065 282.926H425.011C426.743 282.926 428.309 283.619 429.446 284.77C430.582 285.907 431.275 287.474 431.275 289.194C431.275 290.913 430.582 292.494 429.446 293.645C428.309 294.783 426.743 295.49 425.011 295.49H274.065C272.332 295.49 270.767 294.783 269.63 293.645C268.674 292.675 268.05 291.413 267.87 290.012H313.852L314.656 289.194L313.852 288.403ZM264.613 288.334C261.01 288.362 257.518 288.487 254.802 288.653C253.18 288.736 251.85 288.889 250.907 288.958C249.965 289.027 249.424 289.111 249.424 289.111C249.424 289.111 249.965 289.166 250.907 289.277C251.85 289.333 253.18 289.499 254.802 289.582L256.866 289.707H256.645C253.582 289.707 250.505 289.735 247.637 289.804C246.32 289.832 245.031 289.86 243.798 289.901C244.657 288.556 245.281 287.072 245.655 285.477C247.263 285.505 248.926 285.533 250.575 285.533C255.19 285.533 259.804 285.408 263.283 285.186C264.101 285.158 264.863 285.089 265.542 285.034C265.043 286.032 264.71 287.155 264.599 288.334H264.613ZM247.637 291.205C250.519 291.26 253.582 291.274 256.645 291.302C259.403 291.288 262.147 291.274 264.78 291.205C265.071 292.578 265.653 293.784 266.443 294.866C264.807 294.935 263.255 295.018 261.966 295.129C260.747 295.226 259.735 295.365 259.028 295.434L257.92 295.587C255.591 295.531 253.097 295.49 250.589 295.49C245.974 295.49 241.359 295.642 237.894 295.836L236.093 295.961C238.85 295.046 241.234 293.326 242.994 291.08C244.463 291.135 246.015 291.191 247.651 291.232L247.637 291.205ZM239.543 290.123C237.479 292.175 234.651 293.437 231.519 293.437C228.387 293.437 225.56 292.175 223.495 290.123C221.444 288.043 220.169 285.228 220.169 282.094C220.169 278.96 221.43 276.131 223.495 274.064C225.546 271.998 228.373 270.736 231.519 270.736C234.665 270.736 237.479 271.998 239.543 274.064C241.594 276.117 242.856 278.946 242.856 282.094C242.856 285.242 241.594 288.043 239.543 290.123ZM178.358 282.108C177.264 282.108 176.377 281.22 176.377 280.125V260.072C176.377 258.977 177.264 258.089 178.358 258.089C179.453 258.089 180.34 258.977 180.34 260.072V280.125C180.34 281.22 179.453 282.108 178.358 282.108ZM178.358 254.872C177.042 254.872 175.864 255.371 174.935 256.175C171.9 255.205 169.032 254.317 166.482 253.485L164.32 252.805C164.098 250.157 161.894 248.063 159.178 248.063C157.515 248.063 156.06 248.853 155.118 250.06L154.286 249.824L155.062 250.115L154.369 251.308C151.376 250.393 148.313 249.463 145.195 248.507V246.44C145.195 244.915 144.53 243.556 143.49 242.599C144.461 242.904 145.417 243.223 146.415 243.528C149.366 244.513 152.554 245.331 155.811 246.246C162.366 248.035 169.35 249.949 176.335 251.862C183.32 253.721 190.304 255.579 196.859 257.34C200.116 258.269 203.331 258.949 206.297 259.892C209.277 260.779 212.104 261.597 214.709 262.374C219.92 263.927 224.285 265.134 227.32 266.035L229.247 266.576V267.713C226.004 268.226 223.121 269.779 220.973 272.068L219.629 271.568C216.026 270.279 211.84 268.698 207.336 267.117C202.818 265.564 197.996 263.872 193.173 262.194C189.902 261.098 186.618 260.03 183.444 258.963C182.932 256.619 180.853 254.872 178.372 254.872H178.358ZM164.375 257.742C167.438 258.671 170.362 259.587 173.161 260.446V272.983L164.375 270.057V257.756V257.742ZM173.161 276.353V279.182C170.029 278.128 166.884 277.074 163.724 275.992L163.627 275.964C164.07 275.215 164.347 274.356 164.361 273.427L173.161 276.353ZM164.375 254.359V253.679L166.204 254.345C168.574 255.205 171.221 256.175 174.021 257.188L173.965 257.285C170.916 256.342 167.715 255.371 164.375 254.345V254.359ZM161.146 253.277V273.329C161.146 274.425 160.259 275.312 159.178 275.312C158.097 275.312 157.196 274.425 157.196 273.329V253.277C157.196 252.168 158.083 251.294 159.178 251.294C160.273 251.294 161.146 252.168 161.146 253.277ZM153.981 269.973V272.775C150.669 271.679 147.399 270.611 144.183 269.544C144.71 268.822 145.029 267.963 145.14 267.02L153.981 269.973ZM145.195 263.65V251.89C148.188 252.805 151.113 253.693 153.981 254.567V266.576L145.195 263.65ZM120.804 234.459C117.949 234.459 115.635 236.747 115.607 239.59C112.669 238.716 109.745 237.829 106.807 236.969V232.808C106.807 229.952 104.479 227.622 101.61 227.622C98.7415 227.622 96.4133 229.952 96.4133 232.808V233.89C93.4614 233.016 90.5234 232.157 87.627 231.311V225.209C87.627 222.325 85.2988 220.009 82.4301 220.009C79.5614 220.009 77.2332 222.338 77.2332 225.209V228.274C74.2397 227.414 71.2879 226.582 68.4469 225.75V218.664C68.4469 215.793 66.1187 213.463 63.25 213.463C61.1712 213.463 59.3835 214.697 58.552 216.459L49.2668 214.018V213.172C49.2668 211.48 48.4492 209.969 47.188 209.039L50.0983 209.691L46.9247 208.831C46.1071 208.291 45.137 207.972 44.0837 207.972L43.8343 207.999L14.4959 200.081V195.227C16.4777 195.699 25.361 197.751 37.9167 200.663C44.7628 202.217 52.6621 204.13 61.1435 206.155V208.637L61.3652 208.942L168.256 233.432V233.668L168.463 233.488L170.223 233.89H170.279L170.501 233.668V231.879L170.722 231.699L170.501 231.644V223.892C172.635 224.363 174.741 224.835 176.806 225.278C184.678 226.998 192.05 228.496 198.342 229.841C204.662 231.13 209.928 232.198 213.6 232.933C217.287 233.668 219.407 234.07 219.407 234.07C219.407 234.07 217.314 233.557 213.67 232.642C210.011 231.755 204.8 230.493 198.55 228.953C192.272 227.497 184.969 225.694 177.125 223.933C174.949 223.42 172.732 222.921 170.487 222.408V221.742C177.998 223.365 185.024 224.793 191.08 226.097C197.386 227.372 202.652 228.454 206.339 229.189C210.025 229.91 212.131 230.326 212.131 230.326C212.131 230.326 210.053 229.799 206.408 228.884C202.749 227.996 197.525 226.721 191.274 225.209C185.177 223.767 178.095 222.033 170.487 220.328V218.719C172.274 219.107 174.048 219.496 175.795 219.87C183.652 221.603 191.025 223.087 197.331 224.432C203.65 225.722 208.902 226.776 212.589 227.525C216.275 228.246 218.382 228.662 218.382 228.662C218.382 228.662 216.303 228.135 212.644 227.234C208.999 226.346 203.789 225.084 197.525 223.545C191.247 222.075 183.943 220.286 176.099 218.497C174.256 218.081 172.385 217.651 170.487 217.235L170.459 190.277L170.293 190.096L150.78 187.753C150.018 186.421 148.881 185.257 147.703 184.217C146.47 183.232 145.167 182.317 143.781 181.54C141.051 179.959 138.113 178.711 135.134 177.671C129.175 175.591 122.952 174.274 116.702 173.483C110.438 172.72 104.077 172.457 97.7853 173.012L95.8867 173.22C90.7729 172.36 85.4651 171.445 80.1573 170.543C73.3667 169.448 66.5622 168.352 60.1873 167.34C53.8124 166.327 47.8394 165.454 42.7256 164.691C37.6257 163.928 33.3573 163.36 30.3639 162.958C27.3704 162.555 25.6659 162.334 25.6659 162.334C25.6659 162.334 27.3427 162.68 30.3084 163.249C33.2742 163.817 37.4871 164.677 42.5732 165.592C47.6592 166.508 53.5768 167.631 59.9378 168.713C66.2989 169.794 73.0895 170.959 79.8801 172.124C83.7466 172.748 87.5854 173.358 91.3827 173.968C90.3848 174.176 89.4148 174.398 88.4447 174.69C86.9064 175.106 85.4235 175.688 83.9961 176.368C82.638 177.103 81.2937 177.948 80.2405 179.141L63.9706 177.144V177.116L63.9291 177.144L61.4761 176.867H61.4484L61.1851 177.116V178.559C58.6906 178.073 56.2376 177.602 53.8401 177.13C47.0217 175.813 40.6191 174.703 35.1589 173.705C29.6848 172.693 25.1115 171.958 21.9241 171.389C18.7228 170.848 16.8935 170.557 16.8935 170.557C16.8935 170.557 18.7089 170.959 21.8686 171.694C25.0422 172.401 29.5601 173.441 34.9926 174.579C40.4251 175.716 46.7584 177.116 53.5768 178.489C56.0575 178.988 58.6213 179.502 61.1989 180.029V185.992C51.3872 183.995 42.1851 182.15 34.5214 180.583C28.1465 179.335 22.8249 178.281 19.1108 177.546C17.0598 177.158 15.5215 176.853 14.5237 176.673V143.793L222.539 176.839C223.842 177.491 225.311 177.879 226.863 177.879H229.163L229.288 177.907V266.312L227.459 265.688C224.452 264.676 220.183 263.165 215.014 261.487C212.436 260.627 209.637 259.712 206.685 258.727C203.747 257.715 200.56 256.896 197.289 255.981C190.748 254.151 183.763 252.209 176.778 250.268C169.78 248.409 162.781 246.593 156.213 244.859C152.942 243.958 149.727 243.251 146.747 242.363C143.754 241.503 140.927 240.699 138.321 239.95C133.11 238.466 128.731 237.302 125.668 236.456L124.74 236.206C123.784 235.097 122.398 234.403 120.832 234.403L120.804 234.459ZM122.786 239.645V259.698C122.786 260.793 121.899 261.681 120.804 261.681C119.709 261.681 118.822 260.793 118.822 259.698V239.645C118.822 238.55 119.709 237.662 120.804 237.662C121.899 237.662 122.786 238.536 122.786 239.645ZM115.607 257.201V259.698L115.677 260.336C111.353 258.977 107.666 257.812 104.839 256.924C105.698 256.245 106.336 255.302 106.627 254.206L115.607 257.201ZM106.821 250.878V240.325C109.745 241.184 112.683 242.058 115.607 242.946V253.804L106.821 250.878ZM103.606 232.808V252.889C103.606 253.97 102.719 254.844 101.624 254.872C100.529 254.844 99.6423 253.956 99.6423 252.889V232.808C99.6423 231.727 100.529 230.853 101.624 230.839C102.719 230.839 103.606 231.727 103.606 232.808ZM96.4133 237.246V247.425L87.627 244.499V234.667C90.5234 235.513 93.4614 236.372 96.4133 237.246ZM84.4118 225.195V245.248C84.4118 246.343 83.5249 247.231 82.4301 247.231C81.3353 247.231 80.4483 246.343 80.4483 245.248V225.195C80.4483 224.1 81.3353 223.212 82.4301 223.212C83.5249 223.212 84.398 224.1 84.4118 225.195ZM77.2332 231.644V241.046L68.4469 238.12V229.106C71.3018 229.91 74.2397 230.756 77.2332 231.63V231.644ZM65.2318 218.664V238.716C65.2318 239.798 64.3448 240.699 63.25 240.699C62.1552 240.699 61.2682 239.812 61.2682 238.716V218.664C61.2682 217.568 62.1552 216.68 63.25 216.68C64.3448 216.68 65.2318 217.568 65.2318 218.664ZM49.2668 220.411V214.559L58.455 216.694L58.0531 218.65V222.81C54.9765 221.95 52.0385 221.146 49.2668 220.397V220.411ZM58.0531 226.18V234.667L49.2668 231.755V223.767C52.0385 224.516 54.9765 225.32 58.0531 226.194V226.18ZM36.4477 217.083C33.5375 216.375 31.0568 215.821 29.0889 215.432C27.1071 215.058 25.6797 214.822 24.6126 214.822L23.6287 214.933L22.9773 215.224L22.2705 216.14L21.8686 218.358L14.4821 216.098V212.576L25.1947 214.337L14.4821 210.981V209.358L25.7213 211.272L14.4821 207.805V206.516L38.97 212.187L38.873 213.172V217.679C38.0276 217.471 37.2238 217.263 36.4477 217.083ZM38.873 221.007V228.288L30.6272 225.556C28.9087 224.973 27.4952 223.961 26.5389 222.754C25.5688 221.534 25.0561 220.147 25.0561 218.816L25.1115 218.081C25.8322 218.137 26.9963 218.317 28.4653 218.608C31.0429 219.107 34.5768 219.939 38.8591 221.021L38.873 221.007ZM14.4821 192.745L39.2749 198.278L14.69 191.15H14.6345L14.4821 191.123V184.674L15.5076 184.952C16.9905 185.298 19.097 185.881 21.633 186.463C24.1691 187.032 27.121 187.753 30.3223 188.418C33.4959 189.14 36.9051 189.805 40.3142 190.499C43.7373 191.15 47.1465 191.816 50.3616 192.385C53.5629 192.967 56.5702 193.425 59.1479 193.854L61.1435 194.173V205.018C52.773 202.924 44.9707 200.955 38.2078 199.332C24.4047 195.99 15.078 193.73 14.4821 193.577V192.731V192.745ZM59.3142 192.953C56.7781 192.385 53.8262 191.663 50.6388 190.984C47.4514 190.291 44.0422 189.611 40.633 188.932C37.2238 188.266 33.8008 187.614 30.5995 187.046C27.3843 186.463 24.377 186.005 21.8132 185.562C19.2355 185.132 17.0736 184.882 15.5769 184.646L14.4821 184.494V176.784C15.466 177.033 16.9905 177.408 19.0138 177.907C22.7001 178.78 27.9664 180.029 34.2997 181.526C40.633 182.968 48.0057 184.757 55.9743 186.408C57.6789 186.768 59.4112 187.129 61.1574 187.503V193.397L59.328 192.967L59.3142 192.953ZM14.4821 217.734L21.9241 219.801C22.1042 221.257 22.6309 222.699 23.4762 223.975L14.4821 220.563V217.748V217.734ZM14.4821 204.879V201.745L42.9612 208.096C41.2289 208.485 39.8153 209.733 39.2056 211.369L14.4821 204.879ZM42.102 213.186C42.102 212.09 42.9889 211.203 44.0699 211.203C45.1508 211.203 46.0516 212.09 46.0516 213.186V233.238C46.0516 234.334 45.1647 235.208 44.0699 235.208C42.9751 235.208 42.102 234.334 42.102 233.238V213.186ZM63.9706 179.987L70.5811 180.722L80.0464 181.665L80.1434 181.693L82.0698 180.874C82.7627 180.015 83.8714 179.252 85.0771 178.586C86.3243 177.935 87.6547 177.366 89.0822 176.936C91.9093 176.049 94.9166 175.522 97.9654 175.161C99.476 174.967 101.014 174.884 102.553 174.787C104.091 174.717 105.629 174.69 107.181 174.69C108.733 174.717 110.272 174.731 111.81 174.856C113.321 174.898 114.914 175.092 116.48 175.203C117.991 175.369 119.571 175.494 121.095 175.73C122.633 175.924 124.172 176.201 125.696 176.478C127.221 176.784 128.745 177.089 130.256 177.463C131.766 177.837 133.277 178.24 134.76 178.725C137.725 179.64 140.649 180.764 143.393 182.22C144.793 182.913 146.096 183.745 147.343 184.66C148.549 185.631 149.685 186.643 150.531 188.002L150.628 188.072L160.384 189.68L169.323 191.067L168.99 201.135C168.893 204.741 168.727 208.36 168.671 211.966L168.297 231.103L157.169 228.301C152.637 227.164 148.147 226.027 143.601 224.973L116.425 218.539L89.2623 212.104C84.7306 211.009 80.185 210.052 75.6395 209.026L64.1369 206.46L63.9568 179.987H63.9706ZM303.195 205.046L232.462 204.491V201.079L305.995 200.705C305.205 201.315 304.484 202.009 303.902 202.868L303.237 204.533L303.195 205.059V205.046ZM125.904 260.641L134.787 263.608V266.465C131.253 265.3 127.844 264.218 124.629 263.192C125.267 262.485 125.724 261.611 125.904 260.641ZM126.001 257.285V246.08C128.953 246.967 131.891 247.855 134.787 248.728V260.197L126.001 257.285ZM126.001 242.71V239.645C126.001 238.508 125.627 237.482 125.017 236.622L125.558 236.816C128.565 237.787 132.861 239.243 138.044 240.879L139.374 241.282C137.143 241.559 135.342 243.223 134.898 245.386C131.96 244.485 128.981 243.584 126.001 242.696V242.71ZM138.016 246.44C138.016 245.345 138.903 244.457 139.998 244.457C141.093 244.457 141.98 245.345 141.98 246.44V266.493C141.98 267.574 141.093 268.462 139.998 268.476C138.903 268.462 138.016 267.574 138.016 266.493V246.44ZM183.555 263.636C185.703 264.302 187.74 264.94 189.598 265.508C193.852 266.826 197.275 267.879 199.617 268.614C201.848 269.308 203.096 269.696 203.22 269.738C204.939 270.306 206.352 271.333 207.309 272.525C208.265 273.745 208.778 275.132 208.778 276.464L208.514 278.114C208.112 279.306 207.309 280.291 206.2 281.012C205.091 281.705 203.65 282.121 202.126 282.121C201.183 282.121 200.213 281.969 199.257 281.65L183.555 276.422V263.622V263.636ZM217.162 278.946L217.301 278.987L217.12 280C215.416 279.39 213.628 278.779 211.799 278.169L211.937 277.226C213.711 277.823 215.471 278.391 217.162 278.932V278.946ZM217.605 277.601C215.79 276.921 213.864 276.242 211.91 275.576L211.605 273.995C212.672 274.328 213.739 274.661 214.751 274.98C215.97 275.382 217.148 275.742 218.271 276.103L217.675 277.628H217.605V277.601ZM211.341 279.667C213.198 280.263 215.056 280.86 216.816 281.4L216.982 281.47L216.954 282.108C216.954 283.758 217.231 285.353 217.758 286.823C215.028 285.796 211.896 284.632 208.431 283.356C209.692 282.413 210.704 281.178 211.341 279.667ZM207.475 283.938L207.766 284.063C211.605 285.311 215.042 286.476 217.994 287.46C218.368 288.376 218.811 289.263 219.352 290.068C217.73 289.444 215.929 288.778 213.988 288.057C211.341 287.1 208.431 286.004 205.341 284.867L207.489 283.938H207.475ZM218.603 275.396C217.467 274.994 216.275 274.564 215.028 274.12C213.781 273.69 212.492 273.232 211.161 272.761L209.831 270.542L208.182 268.892C212.242 270.223 216.067 271.388 219.352 272.442L220.363 272.761C219.698 273.579 219.102 274.453 218.617 275.396H218.603ZM232.462 224.543V221.132L287.397 220.716V224.793L232.462 224.557V224.543ZM232.462 219.537V216.112L287.41 215.793V219.967L232.462 219.551V219.537ZM232.462 214.503V211.092L287.424 210.676V214.822L232.462 214.503ZM232.462 209.525V206.086L303.209 205.545L303.334 206.294C303.639 207.306 304.235 208.069 304.914 208.762H287.688L287.41 209.026V209.927L232.448 209.525H232.462ZM309.335 198.653L307.2 199.859L232.462 199.471V196.059L318.883 195.394C315.612 196.17 312.397 197.183 309.335 198.653ZM14.4821 222.047L23.6564 224.211L24.0028 224.738C25.361 226.457 27.2873 227.816 29.6017 228.593L38.8591 231.671V233.224C38.8591 236.095 41.1873 238.411 44.056 238.411C46.2872 238.411 48.1858 236.996 48.9203 235L58.0392 238.037V238.702C58.0392 241.559 60.3813 243.902 63.2361 243.902C65.1625 243.902 66.8393 242.835 67.7263 241.268L77.2193 244.429V245.248C77.2193 248.104 79.5475 250.448 82.4162 250.448C84.398 250.448 86.1026 249.325 86.9895 247.674L96.3994 250.809V252.875C96.3994 255.732 98.7276 258.075 101.596 258.075C102.663 258.075 103.675 257.742 104.493 257.174C107.417 258.214 111.283 259.601 115.843 261.209C116.494 263.331 118.462 264.898 120.79 264.898C121.871 264.898 122.883 264.551 123.714 263.983C127.248 265.217 131.032 266.548 135.009 267.921C135.633 270.084 137.601 271.693 139.984 271.693C141.135 271.693 142.188 271.291 143.047 270.653C146.664 271.873 150.35 273.135 154.092 274.397C154.605 276.741 156.67 278.502 159.164 278.502C160.439 278.502 161.59 278.031 162.504 277.268L163.197 277.504C166.551 278.599 169.891 279.708 173.217 280.818C173.355 281.858 173.799 282.787 174.464 283.536C173.078 283.162 172.274 282.94 172.274 282.94C172.274 282.94 173.134 283.3 174.672 283.924L174.991 284.049C175.836 284.77 176.903 285.228 178.081 285.283C178.982 285.63 179.966 286.004 181.019 286.407C183.666 287.391 186.743 288.584 190.055 289.762C193.367 290.983 196.915 292.203 200.476 293.437C204.038 294.644 207.6 295.85 210.953 296.932C214.293 298.028 217.467 298.957 220.142 299.803C222.83 300.649 225.117 301.259 226.683 301.73C228.276 302.16 229.177 302.41 229.177 302.41C229.177 302.41 228.304 302.063 226.78 301.425C225.255 300.829 223.066 299.914 220.419 298.943C217.786 297.972 214.709 296.766 211.383 295.573C208.071 294.38 204.523 293.146 200.961 291.912C197.4 290.719 193.838 289.513 190.471 288.431C187.117 287.336 183.957 286.407 181.282 285.533L179.744 285.089C180.617 284.826 181.407 284.368 182.031 283.73C183.722 284.271 185.412 284.84 187.061 285.38C194.684 287.904 201.835 290.137 207.96 292.12C214.085 294.034 219.199 295.656 222.775 296.779C226.364 297.875 228.415 298.499 228.415 298.499C228.415 298.499 226.406 297.75 222.886 296.488C219.352 295.226 214.293 293.424 208.251 291.274C202.181 289.166 195.113 286.642 187.519 284.077C186.008 283.564 184.456 283.037 182.904 282.51C183.292 281.789 183.528 280.984 183.528 280.125V279.819L198.204 284.701C199.492 285.131 200.809 285.339 202.098 285.339L202.666 285.311C206.63 286.642 210.344 287.835 213.642 288.93C215.942 289.693 218.077 290.373 219.934 290.941C222.165 293.853 225.449 295.892 229.219 296.488V305.377C228.872 305.239 228.082 304.934 226.932 304.462C225.338 303.866 223.093 302.964 220.349 301.966C217.605 300.995 214.418 299.803 210.995 298.61C207.558 297.404 203.886 296.169 200.199 294.949C196.499 293.756 192.827 292.55 189.348 291.454C185.883 290.359 182.613 289.43 179.827 288.584C177.042 287.738 174.686 287.142 173.051 286.67C171.401 286.226 170.473 285.977 170.473 285.977C170.473 285.977 171.374 286.337 172.954 286.961C174.547 287.558 176.806 288.473 179.536 289.457C182.28 290.428 185.454 291.635 188.905 292.813C192.342 294.02 196.014 295.254 199.7 296.488C203.387 297.695 207.087 298.887 210.551 299.969C214.03 301.065 217.287 301.994 220.072 302.84C222.858 303.686 225.214 304.296 226.849 304.767C228.055 305.086 228.872 305.308 229.233 305.405V308.123H219.227L14.4821 228.801V222.047ZM466.614 308.109H232.462V302.049C232.919 302.077 233.778 302.118 235.012 302.202C236.869 302.271 239.502 302.424 242.675 302.493C243.84 302.521 245.087 302.562 246.376 302.59C247.955 302.645 249.646 302.729 251.42 302.743C254.192 302.812 257.158 302.826 260.123 302.84H265.902C270.129 302.826 274.342 302.812 278.306 302.743C282.269 302.687 285.955 302.562 289.129 302.493C292.289 302.424 294.936 302.271 296.779 302.202C298.622 302.105 299.689 302.049 299.689 302.049C299.689 302.049 298.622 301.98 296.779 301.897C294.936 301.827 292.289 301.661 289.129 301.605C285.955 301.536 282.269 301.397 278.306 301.356C274.342 301.286 270.129 301.273 265.902 301.259C264.71 301.259 263.532 301.259 262.354 301.259H260.123C257.158 301.259 254.206 301.273 251.42 301.342C249.632 301.356 247.942 301.439 246.376 301.494C245.087 301.536 243.84 301.564 242.675 301.591C239.502 301.647 236.869 301.813 235.012 301.883C233.778 301.952 232.905 302.008 232.462 302.035V296.627L233.958 296.433C234.956 296.516 236.287 296.641 237.88 296.71C241.345 296.932 245.96 297.057 250.575 297.057C255.19 297.057 259.804 296.918 263.283 296.71C265.001 296.641 266.457 296.502 267.468 296.419L267.856 296.391C269.519 297.833 271.695 298.721 274.065 298.721H425.011C430.263 298.721 434.504 294.464 434.504 289.194C434.504 283.924 430.25 279.708 425.011 279.708H274.065C271.764 279.708 269.658 280.513 268.023 281.872C265.777 281.927 263.671 282.024 261.953 282.163C260.733 282.26 259.721 282.399 259.015 282.482L257.906 282.635L259.015 282.787C259.721 282.87 260.733 283.009 261.953 283.106C263.283 283.217 264.877 283.3 266.581 283.37L265.861 284.437C265.098 284.368 264.239 284.299 263.283 284.257C259.818 284.063 255.19 283.91 250.575 283.91C249.023 283.91 247.457 283.938 245.932 283.966L246.071 282.108C246.071 281.276 245.988 280.485 245.849 279.708C247.387 279.736 248.967 279.75 250.575 279.75C255.19 279.75 259.804 279.625 263.283 279.417C265.001 279.32 266.457 279.182 267.468 279.112C268.48 279.029 269.048 278.96 269.048 278.96C269.048 278.96 268.48 278.89 267.468 278.793C266.457 278.738 265.015 278.585 263.283 278.488C259.818 278.294 255.19 278.141 250.575 278.141C248.87 278.141 247.179 278.155 245.516 278.197C245.073 276.561 244.338 275.035 243.382 273.704C245.378 273.759 247.54 273.843 249.813 273.87C253.097 273.94 256.589 273.94 260.095 273.967C263.588 273.953 267.094 273.953 270.365 273.87C273.649 273.829 276.712 273.676 279.331 273.607C281.964 273.551 284.154 273.385 285.678 273.329C287.216 273.232 288.076 273.163 288.076 273.163C288.076 273.163 287.203 273.121 285.678 273.024C284.14 272.955 281.964 272.775 279.331 272.719C276.712 272.65 273.649 272.511 270.365 272.47C267.08 272.4 263.588 272.386 260.095 272.373C256.589 272.386 253.097 272.4 249.813 272.47C247.221 272.497 244.782 272.594 242.578 272.664C240.098 269.752 236.508 267.852 232.448 267.588V267.436L233.695 267.547C234.693 267.616 236.148 267.769 237.88 267.852C241.345 268.06 245.96 268.198 250.575 268.212C255.19 268.198 259.804 268.06 263.283 267.866C265.001 267.769 266.457 267.63 267.468 267.547C268.48 267.477 269.048 267.394 269.048 267.394C269.048 267.394 268.48 267.339 267.468 267.255C266.457 267.172 265.015 267.034 263.283 266.95C259.818 266.742 255.19 266.618 250.575 266.604C245.96 266.618 241.345 266.756 237.88 266.964C236.148 267.047 234.707 267.186 233.695 267.269L232.448 267.394V261.681L234.028 261.805C235.261 261.875 237.007 262.027 239.114 262.111C241.206 262.18 243.646 262.319 246.279 262.36C248.898 262.416 251.697 262.43 254.497 262.457C257.296 262.43 260.095 262.43 262.715 262.36C265.334 262.319 267.787 262.18 269.88 262.111C271.986 262.041 273.732 261.875 274.952 261.805C276.171 261.708 276.878 261.653 276.878 261.653C276.878 261.653 276.185 261.597 274.952 261.487C273.732 261.431 271.986 261.265 269.88 261.209C267.787 261.14 265.334 260.987 262.715 260.946C260.095 260.876 257.296 260.876 254.497 260.849C251.697 260.876 248.898 260.876 246.279 260.946C243.659 260.987 241.206 261.14 239.114 261.209C237.007 261.279 235.261 261.431 234.028 261.487L232.448 261.625V255.898C232.85 255.94 233.598 255.967 234.679 256.023C236.328 256.092 238.67 256.245 241.484 256.328C244.297 256.397 247.581 256.522 251.087 256.577C252.127 256.605 253.194 256.605 254.261 256.619L253.762 256.661C252.903 256.73 252.418 256.813 252.418 256.813C252.418 256.813 252.903 256.883 253.762 256.98C254.621 257.049 255.841 257.201 257.324 257.271C260.262 257.479 264.184 257.617 268.106 257.617C272.028 257.617 275.95 257.479 278.901 257.271C280.37 257.201 281.604 257.049 282.463 256.98C283.322 256.883 283.807 256.813 283.807 256.813C283.807 256.813 283.322 256.744 282.463 256.661C281.756 256.605 280.786 256.494 279.664 256.397C280.731 256.369 281.77 256.342 282.754 256.328C284.5 256.286 286.039 256.203 287.383 256.134V261.778C285.844 261.833 284.403 261.875 283.073 261.93C280.37 262 278.125 262.152 276.545 262.222C274.966 262.332 274.065 262.388 274.065 262.388C274.065 262.388 274.966 262.443 276.545 262.54C278.125 262.61 280.37 262.776 283.073 262.846C284.403 262.859 285.845 262.915 287.369 262.97V269.183L287.438 269.363C284.791 269.377 282.172 269.391 279.622 269.419L277.682 269.294C273.996 269.1 269.09 268.947 264.184 268.947C259.278 268.947 254.372 269.1 250.699 269.294C248.856 269.391 247.332 269.53 246.251 269.599C245.184 269.682 244.56 269.752 244.56 269.752C244.56 269.752 245.184 269.821 246.251 269.904C247.318 269.974 248.856 270.126 250.699 270.223C254.275 270.417 259.015 270.556 263.768 270.57H264.71C268.438 270.639 272.776 270.792 277.432 270.833C282.089 270.861 287.05 270.903 292.012 270.93C296.973 270.889 301.934 270.861 306.591 270.833C311.247 270.792 315.585 270.653 319.313 270.57C323.041 270.5 326.131 270.348 328.307 270.292C330.483 270.195 331.716 270.126 331.716 270.126C331.716 270.126 330.483 270.071 328.307 269.973C326.131 269.904 323.041 269.738 319.313 269.682C316.596 269.627 313.52 269.53 310.263 269.488L411.402 269.419L411.624 269.197L411.596 232.254C413.37 232.212 415.088 232.157 416.682 232.129C420.396 232.06 423.514 231.907 425.676 231.838C427.852 231.741 429.085 231.685 429.085 231.685C429.085 231.685 427.852 231.616 425.676 231.533C423.514 231.449 420.41 231.311 416.682 231.228C415.102 231.2 413.37 231.158 411.596 231.13V228.579C412.871 228.579 414.132 228.551 415.352 228.523C417.902 228.468 420.272 228.329 422.309 228.274C424.346 228.191 426.037 228.024 427.228 227.969C428.42 227.858 429.099 227.816 429.099 227.816C429.099 227.816 428.42 227.761 427.228 227.65C426.037 227.58 424.346 227.428 422.309 227.359C420.272 227.289 417.902 227.137 415.352 227.095C414.132 227.081 412.871 227.053 411.596 227.04V225.445L422.309 225.403L411.596 225.348V224.613C414.687 224.557 417.583 224.446 420.091 224.377C422.794 224.308 425.039 224.155 426.619 224.072C428.199 223.975 429.099 223.919 429.099 223.919C429.099 223.919 428.199 223.878 426.619 223.767C425.039 223.711 422.794 223.545 420.091 223.476C417.597 223.42 414.687 223.295 411.596 223.24V220.841C412.871 220.813 414.132 220.799 415.352 220.771C417.902 220.716 420.272 220.577 422.309 220.508C424.346 220.439 426.037 220.286 427.228 220.217C428.42 220.12 429.099 220.05 429.099 220.05C429.099 220.05 428.42 220.009 427.228 219.912C426.037 219.842 424.346 219.676 422.309 219.607C420.272 219.537 417.902 219.412 415.352 219.343C414.132 219.315 412.871 219.301 411.596 219.288V216.958C412.871 216.944 414.132 216.916 415.352 216.888C417.902 216.833 420.272 216.708 422.309 216.639C424.346 216.57 426.037 216.417 427.228 216.348C428.42 216.251 429.099 216.195 429.099 216.195C429.099 216.195 428.42 216.14 427.228 216.043C426.037 215.973 424.346 215.807 422.309 215.751C420.272 215.682 417.902 215.543 415.352 215.488C414.132 215.46 412.871 215.432 411.582 215.419V212.964C414.188 212.909 416.627 212.825 418.803 212.77C421.893 212.701 424.457 212.548 426.258 212.479C428.06 212.382 429.085 212.326 429.085 212.326C429.085 212.326 428.06 212.257 426.258 212.16C424.457 212.104 421.879 211.952 418.803 211.882C416.627 211.813 414.188 211.73 411.582 211.674V209.22C412.871 209.206 414.132 209.192 415.352 209.15C417.902 209.095 420.272 208.956 422.309 208.901C424.346 208.831 426.037 208.665 427.228 208.596C428.42 208.499 429.099 208.443 429.099 208.443C429.099 208.443 428.42 208.388 427.228 208.305C426.037 208.221 424.346 208.069 422.309 207.999C420.272 207.93 417.902 207.791 415.352 207.75C412.802 207.68 410.099 207.68 407.383 207.653C404.667 207.68 401.964 207.68 399.415 207.75C397.821 207.778 396.296 207.833 394.883 207.916L395.659 206.405L395.784 205.309C398.07 205.337 400.412 205.365 402.782 205.378C406.067 205.351 409.365 205.337 412.441 205.281C415.532 205.226 418.401 205.101 420.867 205.032C423.334 204.962 425.385 204.796 426.827 204.727C428.268 204.643 429.085 204.574 429.085 204.574C429.085 204.574 428.268 204.519 426.827 204.422C425.385 204.352 423.334 204.186 420.867 204.116C418.401 204.047 415.518 203.908 412.441 203.867C409.365 203.798 406.067 203.798 402.782 203.784C400.315 203.784 397.876 203.798 395.52 203.839L395.105 203.035L393.774 201.509H393.83C398.237 201.482 402.644 201.468 406.773 201.412C410.917 201.357 414.77 201.218 418.068 201.149C421.38 201.079 424.138 200.913 426.064 200.858C427.991 200.774 429.085 200.705 429.085 200.705C429.085 200.705 427.977 200.65 426.064 200.553C424.138 200.483 421.38 200.331 418.068 200.261C414.77 200.192 410.917 200.053 406.773 199.984C402.644 199.928 398.237 199.915 393.83 199.901H391.64L389.714 198.833C387.857 197.945 385.944 197.252 383.99 196.628L386.013 196.711C388.411 196.781 391.21 196.933 394.19 196.975C397.183 197.044 400.371 197.044 403.572 197.072C406.76 197.058 409.961 197.044 412.954 196.975C415.948 196.933 418.733 196.781 421.131 196.711C423.528 196.642 425.524 196.489 426.91 196.42C428.296 196.323 429.099 196.254 429.099 196.254C429.099 196.254 428.296 196.212 426.91 196.101C425.524 196.046 423.514 195.879 421.131 195.81C418.733 195.74 415.948 195.602 412.954 195.56C409.961 195.477 406.773 195.477 403.572 195.463C400.385 195.491 397.183 195.491 394.19 195.56C391.21 195.602 388.411 195.74 386.013 195.81C384.42 195.865 383.034 195.949 381.856 196.018C380.151 195.546 378.433 195.13 376.701 194.77C367.762 192.981 358.643 192.315 349.552 192.287C340.461 192.301 331.342 192.953 322.403 194.728C321.599 194.895 320.796 195.075 320.006 195.255L232.489 194.589V191.164L357.895 190.36L232.489 189.569V186.158L400.925 185.368L232.489 184.549V180.417L354.125 179.626L232.489 178.836V178.073H466.642V308.262L466.614 308.109ZM472.241 162.153C473.987 162.153 475.539 162.861 476.675 164.012C477.812 165.135 478.519 166.716 478.519 168.449C478.519 170.183 477.826 171.736 476.675 172.887C475.525 174.038 473.973 174.731 472.241 174.731H235.261C235.677 173.913 235.926 173.012 235.926 172.027L235.635 170.363C235.358 169.475 234.929 168.449 234.416 167.381C235.344 166.327 235.926 164.955 235.926 163.415L235.996 162.653L236.065 162.153H472.227H472.241ZM237.77 149.534L238.809 149.659H237.77V149.534ZM461.057 147.814C464.12 147.814 466.614 150.31 466.614 153.361C466.614 156.44 464.12 158.922 461.057 158.936H238.019L236.605 158.728C236.744 157.91 236.869 157.064 237.007 156.204L237.104 155.538L316.846 154.72L237.326 153.93C237.465 153.001 237.562 152.072 237.631 151.198L289.586 150.407L243.84 149.714L244.394 149.645C246.334 149.381 248.69 148.938 250.672 148.3L251.933 147.8H461.029L461.057 147.814ZM117.825 102.675L117.88 102.606L117.908 102.551L118.129 102.148L176.848 106.239L231.963 110.095C231.644 110.927 231.339 111.772 231.034 112.591C230.369 114.823 229.884 116.959 229.413 118.9C229.122 120.897 228.9 122.714 228.706 124.323C228.457 125.931 228.595 127.373 228.54 128.524C228.54 129.315 228.54 129.994 228.54 130.535L88.1952 118.526L86.6985 118.387L87.4884 118.138C91.0501 116.945 94.584 115.655 98.0763 114.227C99.8086 113.492 101.569 112.785 103.273 111.953C104.132 111.578 104.992 111.162 105.823 110.732C106.669 110.303 107.528 109.886 108.345 109.415C110.022 108.514 111.658 107.557 113.251 106.475C114.041 105.934 114.831 105.38 115.58 104.769C116.356 104.145 117.049 103.563 117.811 102.675H117.825ZM229.482 128.635L229.926 126.791L230.508 124.655C230.993 123.144 231.547 121.466 232.074 119.608C232.822 117.833 233.57 115.877 234.388 113.866C234.887 112.882 235.386 111.883 235.899 110.857L236.661 109.318L237.548 107.792C238.158 106.766 238.781 105.74 239.405 104.7C240.084 103.702 240.86 102.731 241.553 101.718L242.634 100.207L243.853 98.8063L245.71 96.6846L246.348 95.9912L248.995 93.3425C249.896 92.4688 250.907 91.7477 251.836 90.9434L253.263 89.7785L254.746 88.7246C255.758 88.0451 256.672 87.2546 257.712 86.6999C258.724 86.0759 259.735 85.5212 260.705 84.911C261.689 84.3563 262.715 83.8848 263.671 83.3856L265.112 82.6645L266.554 82.0959C267.51 81.7076 268.424 81.3055 269.311 80.931L269.561 80.8617C270.614 80.8617 271.695 80.8894 272.762 80.9033C269.45 83.6352 266.401 86.5613 263.726 89.5567C262.16 91.2901 260.761 93.0513 259.472 94.7847C257.878 96.9203 256.465 99.0282 255.245 100.97C253.042 104.534 251.573 107.695 250.561 109.914C249.577 112.161 249.106 113.464 249.106 113.464C249.106 113.464 249.674 112.188 250.783 110.025C251.877 107.848 253.582 104.825 255.855 101.358C257.268 99.2223 258.973 96.9065 260.885 94.5629C262.05 93.1484 263.255 91.72 264.572 90.2778C267.551 87.0189 271.016 83.8432 274.772 80.9033C275.672 80.9033 276.587 80.931 277.488 80.9588C273.192 84.1344 269.103 87.8093 265.459 91.8864L263.477 94.2023C259.389 99.1807 255.938 104.589 253.277 110.053C251.101 114.477 249.494 118.928 248.302 123.144L249.161 123.269C250.436 119.178 252.113 114.893 254.275 110.58C257.144 104.811 260.913 99.1114 265.389 93.9388L266.457 92.7323C270.365 88.3086 274.785 84.3702 279.442 81.0004C280.232 81.0004 281.008 81.0142 281.798 81.0281C280.606 81.8324 279.414 82.6506 278.278 83.5104C274.273 86.6306 270.614 90.0975 267.468 93.6615L266.706 94.5074C263.394 98.3487 260.775 102.329 258.737 105.837C256.7 109.36 255.342 112.48 254.441 114.685C253.554 116.89 253.125 118.179 253.125 118.179C253.125 118.179 253.637 116.917 254.663 114.782C255.661 112.632 257.241 109.637 259.361 106.212C261.467 102.786 264.253 99.0143 267.551 95.2424L269.242 93.398C272.166 90.2639 275.492 87.2269 279.095 84.4811C280.648 83.2747 282.269 82.1236 283.918 81.042L286.246 81.0836L286.066 81.1945C282.311 83.5659 278.791 86.2146 275.756 88.9742C274.245 90.3333 272.859 91.7061 271.612 93.0652C270.323 94.4519 269.159 95.7971 268.12 97.0867C266.068 99.5968 264.586 101.885 263.56 103.48C262.562 105.088 262.05 106.045 262.036 106.045C262.036 106.045 262.645 105.13 263.768 103.646C264.877 102.107 266.554 99.9989 268.674 97.5721C269.99 96.0605 271.529 94.4796 273.219 92.8433C274.259 91.8587 275.367 90.8186 276.532 89.8201C279.594 87.1714 283.073 84.5643 286.787 82.2485L288.727 81.1252C289.586 81.1252 290.459 81.1529 291.346 81.1529C290.487 81.6244 289.628 82.0959 288.769 82.609C284.181 85.327 279.719 88.6969 275.659 92.5104L273.802 94.2439C269.298 98.8479 265.459 104.007 262.465 109.207C259.458 114.421 257.393 119.705 255.98 124.364L255.799 125.002L256.465 125.252L256.659 124.628C258.169 120.051 260.428 114.92 263.435 109.817C266.429 104.686 270.268 99.6384 274.73 95.173C275.714 94.1468 276.753 93.1622 277.793 92.2192C281.424 88.9188 285.359 85.9788 289.378 83.552C290.778 82.7061 292.164 81.9434 293.564 81.2084C294.575 81.2223 295.615 81.2361 296.626 81.25C294.021 82.4703 291.429 83.8571 288.949 85.3825C285.789 87.3656 282.837 89.5844 280.204 91.9003L279.234 92.7462C276.365 95.3394 273.982 98.0297 272.041 100.401C270.115 102.772 268.715 104.908 267.759 106.433C266.817 107.945 266.332 108.833 266.318 108.833C266.318 108.833 266.886 107.987 267.967 106.572C269.006 105.13 270.586 103.147 272.596 100.859C274.605 98.5567 277.128 96.0605 280.01 93.5783C280.786 92.9126 281.59 92.2608 282.408 91.5952C284.667 89.7924 287.106 88.0451 289.669 86.4642C292.801 84.4811 296.1 82.7616 299.37 81.3055C305.801 81.4025 312.508 81.5135 319.479 81.6244C314.629 83.4688 310 85.7292 305.662 88.3779C300.645 91.4426 295.989 95.0066 291.804 99.0005C282.144 108.236 274.896 119.816 271.044 132.754H257.449L255.508 133.031L254.58 132.768L228.928 130.549L229.413 128.622L229.482 128.635ZM133.568 71.5704L135.383 71.5288C136.714 71.4318 138.044 71.2099 139.028 70.9603C139.998 70.6829 140.636 70.3917 140.649 70.3917V72.9988C140.649 72.9988 139.957 72.763 138.959 72.6521C137.947 72.5273 136.589 72.4857 135.272 72.555L133.568 72.7631V71.5843V71.5704ZM133.568 16.5163C134.136 16.5024 136.048 16.4885 139.028 16.4469C140.054 16.4053 141.232 16.3915 142.507 16.3776H142.188C141.329 16.4331 140.649 17.1403 140.649 18.014V33.4347L139.984 33.4069C138.917 33.3653 137.531 33.4347 136.159 33.6288C135.259 33.7814 134.372 33.9616 133.568 34.1835V16.5163ZM273.206 75.5782H159.289V27.1527L273.206 23.561V75.592V75.5782ZM273.206 20.3437L157.64 23.9909C156.767 24.0047 156.088 24.7259 156.088 25.5995V75.592H143.878V72.4441C145.043 72.5134 146.415 72.5134 147.787 72.4164C149.463 72.2916 151.14 72.0419 152.388 71.7646C153.649 71.4872 154.466 71.1544 154.466 71.1544C154.466 71.1544 153.607 70.9325 152.332 70.8493C151.057 70.7245 149.366 70.6968 147.676 70.8077C146.318 70.9048 145.001 71.0851 143.865 71.2931V69.1159C145.029 69.1852 146.401 69.1852 147.773 69.0882C149.45 68.9633 151.126 68.7415 152.374 68.4364C153.635 68.159 154.452 67.8123 154.452 67.8123C154.452 67.8123 153.593 67.6182 152.318 67.5072C151.043 67.3824 149.353 67.3686 147.662 67.4934C146.304 67.5905 144.987 67.7569 143.851 67.9787V63.5966H144.086C145.278 63.7353 146.83 63.7353 148.396 63.6105C149.935 63.4857 151.487 63.236 152.637 62.9448C153.773 62.6536 154.536 62.3208 154.536 62.3208C154.536 62.3208 153.746 62.1128 152.554 62.0157C151.376 61.8909 149.81 61.8909 148.258 62.0157C146.706 62.1544 145.167 62.3901 144.017 62.7091L143.851 62.7507V58.0634L144.114 58.0912C145.403 58.1189 147.08 58.0357 148.757 57.8277C150.42 57.6058 152.083 57.2591 153.316 56.8986C154.549 56.538 155.353 56.1497 155.353 56.1497C155.353 56.1497 154.48 55.9833 153.205 55.9694C151.93 55.9278 150.24 56.0111 148.563 56.2191C146.886 56.4548 145.223 56.8015 144.003 57.1621L143.851 57.2037V33.3931H144.003C145.375 33.4069 147.191 33.296 148.978 33.0464C150.78 32.7968 152.554 32.4085 153.857 32.0063C155.173 31.6319 156.032 31.2436 156.032 31.2436C156.032 31.2436 155.09 31.0911 153.732 31.0911C152.36 31.0633 150.544 31.1881 148.757 31.4516C146.955 31.7012 145.195 32.0895 143.865 32.4917H143.837V30.2867H144.1C145.389 30.3145 147.066 30.2313 148.757 30.0094C150.434 29.7736 152.083 29.3992 153.302 29.0387C154.536 28.6642 155.339 28.2759 155.339 28.2759C155.339 28.2759 154.466 28.1234 153.191 28.1095C151.903 28.0818 150.226 28.1789 148.535 28.4146C146.858 28.6365 145.209 29.0248 143.975 29.3854L143.837 29.427V28.1789H144.183C145.514 28.1927 147.26 28.0818 148.992 27.8183C150.725 27.541 152.429 27.1665 153.718 26.7644C154.993 26.3761 155.824 25.9878 155.824 25.9878C155.824 25.9878 154.924 25.8491 153.593 25.863C152.263 25.863 150.517 25.9878 148.784 26.2374C147.052 26.5009 145.334 26.8892 144.072 27.3052L143.851 27.3607V19.5255L273.178 13.2297V20.3298L273.206 20.3437ZM133.568 62.7645C134.385 62.7645 135.286 62.7091 136.173 62.5981C137.504 62.4179 138.82 62.1128 139.79 61.7661L140.649 61.4471V65.9679L139.153 65.649C138.21 65.5242 136.963 65.4965 135.744 65.5935L133.568 65.9125V62.7645ZM133.568 37.1234C134.385 37.1234 135.286 37.068 136.187 36.957C137.517 36.7629 138.82 36.4439 139.79 36.1111L140.649 35.7644V59.2422L139.804 59.1312C138.779 59.0619 137.42 59.0758 136.076 59.2283C135.203 59.3254 134.344 59.4779 133.568 59.6721V37.1373V37.1234ZM133.568 35.4455C134.427 35.4455 135.411 35.3623 136.381 35.2236C137.753 35.0017 139.125 34.6689 140.123 34.3083L140.663 34.1003V35.2791L139.679 35.182C138.654 35.1127 137.31 35.182 135.979 35.3484C135.134 35.4732 134.33 35.6396 133.582 35.8199V35.4316L133.568 35.4455ZM133.568 60.9479C134.399 60.9479 135.328 60.9202 136.256 60.8092C137.601 60.6428 138.931 60.3655 139.915 60.0465L140.663 59.783V60.9618L139.679 60.8647C138.668 60.7954 137.31 60.837 135.979 61.0034C135.148 61.1282 134.316 61.2946 133.582 61.4749V60.9479H133.568ZM133.568 67.2299C134.288 67.2576 135.078 67.2576 135.868 67.216C137.102 67.1051 138.335 66.8693 139.236 66.592L140.663 66.0373V70.364C140.663 70.364 139.97 70.1421 138.973 70.0173C137.961 69.8786 136.603 69.837 135.286 69.9202L133.582 70.1143V67.216L133.568 67.2299ZM135.383 74.1637C136.714 74.0666 138.044 73.8447 139.028 73.5812C139.998 73.3178 140.636 73.0127 140.649 73.0127V75.592H133.568V74.2053L135.383 74.1775V74.1637ZM441.558 135.971C443.928 135.971 445.854 137.913 445.868 140.284C445.868 142.656 443.942 144.583 441.558 144.583H257.518C256.672 144.583 255.91 144.333 255.245 143.931L255.716 142.42L322.583 141.782L256.063 141.158C256.257 140.409 256.465 139.632 256.617 138.828C256.811 137.857 256.95 136.914 256.963 136.027L257.518 135.971H441.558ZM313.7 132.768C315.432 126.833 318.744 121.494 323.193 117.236C329.928 110.802 339.241 106.808 349.552 106.808C359.863 106.808 369.175 110.802 375.911 117.236C380.359 121.494 383.671 126.833 385.417 132.768H313.714H313.7ZM361.733 80.2793C363.923 80.7508 366.515 81.3887 369.356 82.2207C373.624 83.4688 378.405 85.2716 383.242 87.5736C388.078 89.9033 392.929 92.8017 397.391 96.1576C401.881 99.4581 405.997 103.175 409.49 106.988C412.899 110.705 415.781 114.435 418.026 117.819C420.757 122.506 422.988 127.498 424.637 132.754H423.404C422.641 130.771 421.768 128.76 420.798 126.763C417.708 120.44 413.578 114.172 408.603 108.583C403.614 103.022 397.793 98.1823 391.765 94.3548C385.736 90.4997 379.486 87.7677 373.873 85.8679C368.261 83.9819 363.258 83.025 359.71 82.4703C356.148 81.9434 354.042 81.8047 354.056 81.8047C354.056 81.8047 356.135 82.0266 359.655 82.7061C363.175 83.3579 368.067 84.5366 373.596 86.5197C379.126 88.5027 385.21 91.4149 391.113 95.2562C397.045 99.0698 402.741 103.91 407.633 109.443C412.58 114.907 416.71 121.078 419.8 127.29C420.715 129.121 421.533 130.951 422.281 132.754H420.174L419.662 131.395C418.747 129.204 417.403 126.07 415.366 122.548C413.342 119.039 410.723 115.073 407.397 111.204C404.085 107.349 400.163 103.563 395.825 100.193C391.46 96.8787 386.693 94.0081 381.939 91.72C377.186 89.418 372.418 87.8371 368.205 86.6999C363.992 85.5628 360.32 84.9942 357.728 84.6475C355.123 84.3286 353.598 84.2315 353.598 84.2315C353.598 84.2315 355.109 84.4118 357.659 84.8694C360.237 85.3271 363.826 86.1314 367.956 87.3656C372.086 88.5859 376.714 90.4026 381.385 92.6907C386.041 94.9789 390.711 97.8772 394.98 101.192C399.304 104.464 403.212 108.153 406.524 111.939C409.836 115.697 412.608 119.497 414.728 122.908C416.848 126.333 418.414 129.329 419.426 131.478L420.008 132.726H415.005C414.021 130.48 412.913 128.192 411.596 125.917C408.603 120.703 404.764 115.544 400.274 110.954C395.742 106.392 390.587 102.426 385.307 99.2917C380.013 96.1437 374.566 93.9388 369.716 92.3856C364.852 90.8325 360.542 90.0698 357.507 89.6121C354.444 89.1822 352.642 89.0713 352.642 89.0713C352.642 89.0713 354.43 89.2654 357.437 89.834C360.458 90.3887 364.671 91.3872 369.439 93.0374C374.206 94.646 379.486 97.059 384.669 100.221C389.852 103.327 394.897 107.293 399.318 111.828C403.78 116.321 407.633 121.355 410.626 126.472C411.859 128.566 412.927 130.66 413.897 132.699H406.344C404.847 129.689 402.99 126.458 400.62 123.283C397.779 119.427 394.315 115.642 390.407 112.272C386.471 108.93 382.119 106.045 377.74 103.771C373.361 101.483 368.912 99.888 364.976 98.7508C361.04 97.6276 357.576 97.0729 355.151 96.7401C352.698 96.4211 351.256 96.3379 351.27 96.3379C351.27 96.3379 352.684 96.5043 355.095 96.9758C357.507 97.4196 360.874 98.1823 364.741 99.4165C368.593 100.637 372.876 102.426 377.172 104.728C381.468 107.03 385.722 109.914 389.547 113.229C393.428 116.501 396.878 120.19 399.733 123.962C401.978 126.93 403.905 129.897 405.443 132.699H388.757C386.942 125.82 383.2 119.691 378.142 114.837C370.811 107.848 360.708 103.521 349.552 103.521C338.396 103.521 328.307 107.848 320.976 114.837C315.917 119.691 312.176 125.82 310.346 132.699H286.787C287.757 130.646 288.838 128.566 290.057 126.472C293.051 121.355 296.89 116.321 301.366 111.828C305.773 107.293 310.831 103.341 316.014 100.221C321.184 97.059 326.464 94.646 331.245 93.0374C336.012 91.3872 340.225 90.3887 343.246 89.834C346.254 89.2654 348.041 89.0713 348.041 89.0713C348.041 89.0713 346.24 89.1684 343.191 89.6121C340.142 90.0698 335.846 90.8186 330.982 92.3856C326.131 93.9388 320.685 96.1576 315.405 99.2917C310.111 102.412 304.955 106.378 300.424 110.954C295.933 115.544 292.095 120.689 289.101 125.917C287.785 128.192 286.676 130.48 285.692 132.726H280.689L281.285 131.478C282.297 129.329 283.863 126.333 285.983 122.908C288.09 119.497 290.889 115.697 294.187 111.939C297.499 108.153 301.408 104.45 305.718 101.192C309.986 97.8772 314.656 94.9789 319.327 92.6907C323.997 90.4026 328.626 88.5859 332.755 87.3656C336.885 86.1452 340.488 85.3409 343.052 84.8694C345.616 84.3979 347.127 84.2315 347.127 84.2315C347.127 84.2315 345.602 84.3286 342.997 84.6475C340.405 84.9942 336.719 85.5628 332.506 86.6999C328.307 87.8371 323.526 89.418 318.786 91.72C314.033 93.9943 309.265 96.8787 304.9 100.193C300.548 103.563 296.626 107.349 293.314 111.204C290.002 115.073 287.383 119.025 285.346 122.548C283.308 126.07 281.964 129.19 281.036 131.395L280.523 132.754H278.416C279.165 130.951 279.982 129.121 280.897 127.29C283.987 121.078 288.117 114.907 293.065 109.443C297.957 103.91 303.653 99.0837 309.584 95.2562C315.502 91.4149 321.572 88.5027 327.101 86.5197C332.631 84.5366 337.537 83.344 341.043 82.7061C344.563 82.0266 346.642 81.8047 346.642 81.8047C346.642 81.8047 344.535 81.9572 340.973 82.4703C337.426 83.0112 332.423 83.9819 326.796 85.8679C321.197 87.7677 314.933 90.4997 308.919 94.3548C302.89 98.1823 297.07 103.022 292.067 108.583C287.092 114.172 282.962 120.44 279.885 126.763C278.901 128.76 278.042 130.771 277.266 132.754H274.467C278.222 120.731 285.041 109.97 294.104 101.316C304.623 91.2485 318.135 84.0512 333.254 81.0004L331.051 81.5273C326.727 82.6784 321.793 84.287 316.887 86.6029C311.968 88.891 307.02 91.7893 302.475 95.1453C297.943 98.5151 293.827 102.343 290.348 106.253C286.842 110.136 284.057 114.13 281.867 117.694C279.677 121.244 278.195 124.406 277.183 126.625C276.213 128.857 275.728 130.189 275.728 130.189C275.728 130.189 276.296 128.899 277.405 126.736C278.5 124.572 280.204 121.549 282.477 118.096C284.736 114.615 287.702 110.816 291.194 106.988C294.686 103.175 298.802 99.4442 303.292 96.1576C307.741 92.8017 312.591 89.8895 317.428 87.5736C322.265 85.2716 327.032 83.4688 331.314 82.2207C335.43 81.0142 339.006 80.2099 341.639 79.7523C344.244 79.5027 346.891 79.3779 349.552 79.3779C353.695 79.3779 357.77 79.6968 361.747 80.2793H361.733ZM285.65 5.85212C289.462 8.44535 292.829 12.883 295.227 18.6103C296.779 22.3129 297.915 26.5564 298.525 31.1465L298.151 29.7598C297.458 27.4439 296.599 25.5718 295.989 24.2682C295.351 22.9647 294.922 22.2436 294.922 22.2436C294.922 22.2436 295.282 22.9924 295.809 24.3237C296.349 25.655 297.028 27.5548 297.624 29.8707C298.22 32.1727 298.664 34.9185 298.83 37.8584C298.996 40.7983 298.802 43.974 298.192 47.1081C297.624 50.2699 296.64 53.4039 295.351 56.2884C294.09 59.1729 292.58 61.8354 291.041 64.0681C289.503 66.2869 288.048 68.1174 286.925 69.3655C285.831 70.6274 285.138 71.3208 285.138 71.3208C285.138 71.3208 285.886 70.6552 287.078 69.4348C288.242 68.2145 289.877 66.4533 291.499 64.2484C293.12 62.0157 294.797 59.3947 296.127 56.4825L296.169 56.3855C295.171 59.2561 293.938 61.8909 292.51 64.179C290.529 67.3824 288.173 69.9202 285.637 71.6536C283.101 73.3594 280.398 74.2885 277.571 74.2885L276.421 74.1914V3.31436L277.571 3.21728C280.398 3.21728 283.101 4.11868 285.637 5.83825L285.65 5.85212ZM133.568 11.4269L136.783 11.2605C137.573 11.2327 138.488 11.2189 139.527 11.1911C143.283 11.0802 148.632 10.9138 155.062 10.7474C161.479 10.5394 168.976 10.3036 177.014 10.054C185.038 9.7489 193.603 9.41608 202.153 9.11099C210.704 8.70884 219.268 8.29281 227.293 7.91838C231.298 7.71037 235.178 7.50236 238.864 7.29434C242.537 7.08633 246.015 6.87832 249.23 6.71191C255.647 6.24041 260.996 5.85212 264.738 5.57477C268.466 5.28355 270.6 5.11714 270.6 5.11714C270.6 5.11714 268.452 5.17261 264.697 5.26968C260.955 5.39449 255.605 5.57477 249.189 5.81052C242.759 6.00466 235.261 6.25428 227.237 6.51776C219.213 6.83672 210.649 7.15567 202.084 7.50236C200.767 7.55783 199.465 7.62717 198.148 7.68264L273.206 3.32822V10.0124L235.026 11.8706C231.242 11.9677 227.209 12.0648 223.052 12.2312C215.36 12.5085 207.156 12.7998 198.952 13.1048C190.748 13.4515 182.544 13.826 174.852 14.1588C167.161 14.5055 159.996 14.9215 153.843 15.2543C147.703 15.6287 142.576 15.9338 139 16.1418C136.035 16.336 134.15 16.4608 133.568 16.5163V11.4407V11.4269ZM139.277 79.3501C154.037 79.3501 179.231 79.5443 260.553 80.723L258.945 81.3748C257.837 81.8879 256.728 82.4703 255.591 83.0528C254.427 83.5797 253.388 84.3702 252.252 85.0358L250.561 86.0759L248.967 87.2962C247.928 88.156 246.819 88.9188 245.821 89.8617L242.856 92.6907C241.885 93.6615 241.068 94.7431 240.167 95.7832L238.864 97.3502L238.629 97.7108L237.742 99.0421C237.007 100.151 236.231 101.247 235.58 102.384C234.97 103.549 234.374 104.714 233.792 105.837C233.293 106.725 232.905 107.668 232.559 108.569L232.337 108.514L181.172 105.671L118.143 102.162L118.656 101.081L119.266 99.569C119.612 98.529 119.931 97.4889 120.153 96.4488L120.458 94.8541L120.679 93.2316C120.804 92.1638 120.846 91.0682 120.846 89.9727L120.79 88.3363L120.638 86.6999L120.416 85.0636L120.084 83.4549C119.89 82.3733 119.488 81.2777 119.169 80.1822L118.947 79.5443C119.903 79.4749 120.846 79.4195 121.802 79.4195C128.26 79.4195 132.764 79.3779 139.319 79.3779L139.277 79.3501ZM115.025 81.9434C115.372 82.8032 115.801 83.6213 116.065 84.5366L116.522 85.8956L116.868 87.2962L117.146 88.7107L117.367 90.153C117.492 91.1098 117.547 92.0667 117.547 93.0374L117.52 94.4935L117.395 95.9496C117.298 96.9203 117.118 97.8772 116.91 98.834L116.536 100.249L116.092 101.497L114.346 103.258L112.212 104.977C110.743 106.087 109.163 107.071 107.583 108.042C106.793 108.527 105.976 108.985 105.172 109.429C104.354 109.9 103.537 110.344 102.705 110.76C101.042 111.634 99.3651 112.424 97.6744 113.229C94.2791 114.809 90.8145 116.252 87.3083 117.611L85.576 118.249L78.037 117.611C81.0027 107.654 86.4075 98.4319 93.503 91.6091C99.4067 85.8956 106.419 81.8324 114.138 80.1683L114.36 80.5844L115.025 81.9295V81.9434ZM57.083 111.87L58.3302 112.161C59.7299 112.452 61.6008 112.729 63.4856 112.868C65.3842 113.007 67.2689 113.007 68.7102 112.896C70.1376 112.799 71.0939 112.605 71.0939 112.605C71.0939 112.605 70.1654 112.272 68.7657 111.98C67.366 111.675 65.4812 111.426 63.5965 111.273C61.7117 111.148 59.8131 111.148 58.3857 111.259L57.3186 111.356C57.7482 110.427 58.1778 109.512 58.649 108.638L59.6884 108.902C60.9772 109.207 62.6818 109.47 64.4002 109.595C66.1187 109.72 67.851 109.72 69.1537 109.609C70.4702 109.512 71.3433 109.304 71.3433 109.304C71.3433 109.304 70.498 108.985 69.223 108.694C67.948 108.375 66.2296 108.125 64.5111 107.987C62.7788 107.862 61.0465 107.862 59.7577 107.987L58.9677 108.07C60.5615 105.116 62.3908 102.356 64.428 99.777L66.1741 100.221C67.4491 100.47 69.1398 100.678 70.8583 100.762C72.5629 100.831 74.2813 100.776 75.5702 100.609C76.859 100.484 77.7182 100.262 77.7182 100.262C77.7182 100.262 76.8728 99.9435 75.5979 99.6938C74.3368 99.4304 72.6322 99.2223 70.9276 99.153C69.223 99.0837 67.5045 99.1391 66.2157 99.2917L64.622 99.5274C66.7007 96.9481 68.9597 94.549 71.4265 92.4411C80.0464 85.0358 90.8283 80.6676 102.553 80.6537H103.301C98.9078 82.8864 94.875 85.8124 91.2441 89.3209C83.5665 96.7401 77.8291 106.655 74.7664 117.375L55.5031 115.739C55.9882 114.421 56.5009 113.145 57.0691 111.897L57.083 111.87ZM88.5001 79.4611C81.4323 81.5551 74.9465 85.1745 69.3477 89.9866C61.6978 96.5598 55.7526 105.338 52.1909 115.42L41.8525 114.546C47.7285 94.9373 66.2296 80.3763 88.4862 79.4611H88.5001ZM29.3938 116.723L253.748 135.916V135.999C253.748 136.526 253.651 137.344 253.471 138.204C253.208 139.521 252.792 140.978 252.459 142.087L252.016 143.446L251.891 143.82L251.836 143.945L251.78 144.209L251.434 144.458C250.99 144.763 250.201 145.082 249.272 145.36C247.886 145.776 246.195 146.136 244.699 146.344C243.257 146.566 241.955 146.691 241.359 146.691L29.6017 122.34L29.4215 122.312C28.0079 122.312 26.8438 121.258 26.6498 119.885L140.4 130.369L26.8993 118.304C27.3427 117.375 28.2851 116.723 29.3938 116.723ZM11.7381 125.959L153.247 139.799L234.582 149.159C234.541 151.115 234.111 154.096 233.681 156.814C233.446 158.229 233.224 159.602 233.044 160.739L232.822 162.278L232.725 163.429C232.725 164.955 231.519 166.189 230.009 166.23L12.0291 131.589H11.7797C10.6433 131.575 9.6732 130.896 9.22973 129.925C9.6732 129.994 11.6827 130.327 14.9256 130.854C18.6119 131.423 23.8781 132.255 30.1976 133.239C36.5309 134.169 43.8897 135.306 51.8168 136.415C59.7299 137.525 68.1697 138.703 76.6234 139.896C85.0771 141.005 93.5307 142.129 101.458 143.169C109.371 144.209 116.785 145.068 123.132 145.873C129.48 146.608 134.787 147.232 138.488 147.662C142.188 148.064 144.308 148.3 144.308 148.3C144.308 148.3 142.202 147.953 138.529 147.343C134.843 146.774 129.577 145.97 123.243 144.985C116.91 144.042 109.551 142.891 101.624 141.796C93.7109 140.672 85.2711 139.494 76.8174 138.301C68.3776 137.178 59.9101 136.055 51.9969 135.014C44.0699 133.974 36.6556 133.115 30.3223 132.31C23.9613 131.575 18.6812 130.951 14.9671 130.521C11.6827 130.175 9.65934 129.953 9.22973 129.911L8.98028 128.746C8.98028 127.207 10.2137 125.973 11.752 125.945L11.7381 125.959ZM6.66592 231.519H12.5558L217.342 310.841V318.69H215.208C209.235 316.166 200.282 312.422 189.334 307.818C179.134 303.588 167.23 298.665 154.48 293.41C141.703 288.182 128.08 282.607 114.443 277.046C100.737 271.665 87.0311 266.299 74.1843 261.265C61.3098 256.286 49.3084 251.627 39.0116 247.647C23.0189 241.559 11.1976 237.052 6.66592 235.318V232.073C7.40041 232.365 9.63163 233.294 13.0685 234.722C17.3369 236.442 23.4485 238.924 30.7796 241.906C34.4383 243.376 38.4295 244.956 42.6286 246.648C46.8416 248.285 51.1931 250.268 55.7664 252.126C64.8853 255.912 74.6139 259.975 84.3426 264.024C94.0989 268.032 103.855 272.012 113.002 275.756C117.589 277.628 121.982 279.487 126.237 281.04C130.477 282.648 134.496 284.146 138.183 285.561C145.597 288.306 151.778 290.595 156.088 292.203C160.425 293.784 162.892 294.685 162.892 294.685C162.892 294.685 160.453 293.673 156.199 291.912C151.93 290.165 145.833 287.696 138.501 284.701C134.843 283.245 130.865 281.65 126.666 279.958C122.453 278.294 118.088 276.325 113.528 274.467C104.41 270.667 94.681 266.59 84.9523 262.527C75.1821 258.547 65.4258 254.553 56.2792 250.809C51.692 248.95 47.2989 247.106 43.0444 245.539C38.8037 243.944 34.7986 242.433 31.0984 241.06C23.6841 238.314 17.5032 236.04 13.1794 234.417C9.65934 233.155 7.40042 232.323 6.65206 232.046V231.547L6.66592 231.519ZM169.309 317.206C164.528 315.223 157.723 312.38 149.547 308.969C141.342 305.613 131.78 301.689 121.539 297.473C111.27 293.326 100.321 288.903 89.3593 284.479C78.3834 280.125 67.4075 275.756 57.1107 271.679C47.2989 267.852 38.1385 264.26 30.156 261.14L3.2013 249.616V248.146C4.14368 248.548 5.43251 249.103 7.05395 249.824C10.6156 251.335 15.6878 253.499 21.7993 256.106C27.9248 258.644 35.0342 261.695 42.6979 264.829C50.3755 267.977 58.552 271.333 66.7285 274.675C74.9742 277.892 83.1923 281.109 90.9253 284.132C98.6445 287.169 105.892 289.873 112.087 292.231C118.296 294.561 123.479 296.516 127.096 297.861C130.727 299.179 132.806 299.941 132.806 299.941C132.806 299.941 130.782 299.081 127.207 297.57C123.645 296.086 118.545 293.951 112.42 291.399C106.281 288.903 99.1434 285.907 91.4519 282.829C83.7605 279.75 75.5563 276.464 67.3521 273.177C59.134 269.904 50.9298 266.618 43.2384 263.539C35.5469 260.46 28.3128 257.701 22.1458 255.274C15.9511 252.903 10.7957 250.933 7.17868 249.547C5.50181 248.923 4.18525 248.409 3.21516 248.063V245.289C4.17139 245.705 5.61267 246.329 7.48357 247.12C11.0729 248.645 16.1867 250.809 22.326 253.388C28.4791 255.926 35.6578 258.879 43.3631 262.055C51.0823 265.189 59.3003 268.517 67.5461 271.859C75.8058 275.118 84.0515 278.391 91.7984 281.456C99.5314 284.521 106.807 287.28 113.002 289.693C119.238 292.051 124.435 294.02 128.066 295.393C131.711 296.752 133.79 297.514 133.79 297.514C133.79 297.514 131.766 296.641 128.191 295.102C124.615 293.59 119.488 291.427 113.348 288.847C107.181 286.296 100.03 283.272 92.3112 280.138C84.6059 277.018 76.3739 273.676 68.1282 270.348C59.8685 267.089 51.6227 263.816 43.862 260.752C36.1013 257.756 28.8533 254.927 22.6447 252.528C16.4084 250.157 11.2253 248.188 7.59443 246.815C5.66811 246.107 4.18525 245.553 3.21516 245.178V239.548C3.71407 239.77 5.66811 240.588 8.74469 241.85C12.3617 243.306 17.5309 245.414 23.7395 247.938C26.8577 249.172 30.2253 250.545 33.7869 251.946C37.3624 253.36 41.0626 254.997 44.943 256.55C52.6898 259.739 60.9495 263.123 69.2091 266.52C77.4826 269.876 85.7561 273.246 93.5169 276.394C101.264 279.584 108.581 282.343 114.831 284.77C121.095 287.142 126.32 289.125 129.965 290.511C133.623 291.87 135.73 292.647 135.73 292.647C135.73 292.647 133.679 291.759 130.089 290.206C126.5 288.695 121.345 286.517 115.164 283.938C102.802 278.779 86.3105 271.915 69.8189 265.051C61.5315 261.722 53.2303 258.394 45.4557 255.274C41.5615 253.721 37.8197 252.195 34.2165 250.864C30.6272 249.533 27.218 248.271 24.0721 247.12C17.7804 244.818 12.528 242.904 8.85555 241.559C5.70968 240.436 3.72792 239.742 3.21516 239.548V238.425H4.75345L50.3893 256.688C51.8306 257.299 53.2858 257.895 54.7686 258.505C64.2201 262.388 74.2952 266.534 84.3841 270.667C94.5424 274.633 104.687 278.599 114.208 282.302C116.023 283.009 117.825 283.702 119.598 284.382L212.076 321.367V338.978L78.9793 282.024C82.2361 283.342 85.4928 284.645 88.7773 285.991C99.7532 290.331 110.729 294.685 121.026 298.79C131.337 302.826 140.968 306.584 149.214 309.815C157.487 312.991 164.375 315.653 169.198 317.498C174.021 319.328 176.792 320.382 176.792 320.382C176.792 320.382 174.076 319.231 169.323 317.206H169.309ZM483.785 339.783H215.305V321.88H218.95L220.086 321.436L220.308 321.089H220.779C222.414 321.713 223.274 322.06 223.274 322.06C223.274 322.06 222.456 321.713 220.959 321.089H478.782L479.004 321.436L480.14 321.88H483.799V339.783H483.785Z" fill="#434341"/>
</g>
<defs>
<clipPath id="clip0_123_15">
<rect width="487" height="343" fill="white"/>
</clipPath>
</defs>
</svg>
